<?xml version="1.0" encoding="utf-8"?>
<!-- Generator: Adobe Illustrator 26.5.2, SVG Export Plug-In . SVG Version: 6.00 Build 0)  -->
<svg version="1.1" id="Layer_1" xmlns="http://www.w3.org/2000/svg" xmlns:xlink="http://www.w3.org/1999/xlink" x="0px" y="0px"
	 viewBox="0 0 419.7 265.3" style="enable-background:new 0 0 419.7 265.3;" xml:space="preserve">
<style type="text/css">
	.st0{clip-path:url(#SVGID_00000069387497257449674580000011982311769913339542_);}
	.st1{fill-rule:evenodd;clip-rule:evenodd;fill:#FFFFFF;}
	.st2{clip-path:url(#SVGID_00000003079626552427927820000005650573762427604630_);}
	.st3{fill:#FFFFFF;}
</style>
<g id="Group_824" transform="translate(0 0)">
	<g>
		<defs>
			<rect id="SVGID_1_" x="7.5" width="168.3" height="169.9"/>
		</defs>
		<clipPath id="SVGID_00000140702394715293806130000015653011723131499681_">
			<use xlink:href="#SVGID_1_"  style="overflow:visible;"/>
		</clipPath>
		
			<g id="Group_819" transform="translate(0 0)" style="clip-path:url(#SVGID_00000140702394715293806130000015653011723131499681_);">
			<path id="Path_127" class="st1" d="M80.7,20.5h45.7c12.3,0.3,22.6,9.6,24,21.8h-12.9c-1.4-5-6-8.5-11.2-8.6H75.5l-14.1-15
				l-14.1,15H31.8c-6.6,0.2-11.9,5.7-11.7,12.4v51.2c-0.1,6.6,5.1,12.2,11.7,12.4h94.6c6.6-0.2,11.9-5.7,11.7-12.4V64.8h12.6v32.5
				c0.3,13.8-10.5,25.2-24.3,25.6H31.8C18,122.5,7.2,111.1,7.5,97.3V46.1C7.2,32.3,18,20.9,31.8,20.5H42L61.3,0L80.7,20.5z"/>
			<path id="Path_128" class="st1" d="M102.6,149.4H56.9c-12.3-0.3-22.6-9.6-24-21.8h12.9c1.4,5,6,8.5,11.2,8.6h50.9l14.1,15
				l14.1-15h15.4c6.6-0.2,11.9-5.7,11.7-12.4V72.6c0.1-6.6-5.1-12.2-11.7-12.4H56.9c-6.6,0.2-11.9,5.7-11.7,12.4v32.5H32.6V72.6
				C32.2,58.8,43.1,47.4,56.9,47h94.6c13.8,0.4,24.6,11.8,24.3,25.6v51.2c0.3,13.8-10.5,25.2-24.3,25.6h-10.2l-19.3,20.5
				L102.6,149.4z"/>
			<path id="Path_129" class="st1" d="M75.3,85.8c0,4.7-3.8,8.6-8.6,8.6s-8.6-3.8-8.6-8.6c0-4.7,3.8-8.6,8.6-8.6l0,0
				C71.5,77.2,75.3,81,75.3,85.8"/>
			<path id="Path_130" class="st1" d="M100.2,85.8c0,4.7-3.8,8.6-8.6,8.6c-4.7,0-8.6-3.8-8.6-8.6c0-4.7,3.8-8.6,8.6-8.6l0,0
				C96.4,77.2,100.2,81,100.2,85.8"/>
			<path id="Path_131" class="st1" d="M125.5,85.8c0,4.7-3.8,8.6-8.6,8.6c-4.7,0-8.6-3.8-8.6-8.6c0-4.7,3.8-8.6,8.6-8.6
				C121.7,77.2,125.5,81,125.5,85.8L125.5,85.8"/>
		</g>
	</g>
</g>
<g id="Group_825" transform="translate(12.989 49.07)">
	<g>
		<defs>
			<rect id="SVGID_00000049940160430317615880000003432391899888585400_" x="32.5" y="94.6" width="374.2" height="186.4"/>
		</defs>
		<clipPath id="SVGID_00000074419763589697589790000004830958440522593208_">
			<use xlink:href="#SVGID_00000049940160430317615880000003432391899888585400_"  style="overflow:visible;"/>
		</clipPath>
		
			<g id="Group_821" transform="translate(0 0)" style="clip-path:url(#SVGID_00000074419763589697589790000004830958440522593208_);">
			<path id="Path_132" class="st3" d="M65.7,198.9c-6.3,0.2-12.5-1.6-17.7-5.1c-5-3.4-8.9-8.1-11.5-13.6c-2.7-5.9-4.1-12.3-4-18.8
				c-0.1-6.7,1.5-13.3,4.6-19.2c3-5.6,7.5-10.3,13.1-13.5c6.2-3.5,13.2-5.2,20.3-5c7-0.2,13.8,1.5,19.9,5c5.4,3.2,9.8,7.9,12.6,13.5
				c3,5.8,4.5,12.3,4.4,18.9v36H91.3v-13.3H91c-1.5,2.7-3.3,5.2-5.5,7.4c-2.4,2.4-5.2,4.3-8.3,5.6C73.6,198.3,69.6,199,65.7,198.9
				 M70,185.1c3.9,0.1,7.8-1,11-3.2c3.2-2.2,5.7-5.1,7.4-8.6c1.8-3.8,2.7-8,2.5-12.2c0.1-4.1-0.8-8.2-2.5-12
				c-1.6-3.4-4.1-6.3-7.2-8.4c-3.3-2.2-7.2-3.3-11.1-3.2c-4.1-0.1-8.1,1-11.5,3.2c-3.2,2.1-5.7,5-7.3,8.5c-1.7,3.8-2.6,7.9-2.5,12.1
				c-0.1,4.1,0.8,8.2,2.5,12c1.6,3.5,4.1,6.4,7.2,8.6C62,184.1,66,185.2,70,185.1"/>
			<path id="Path_133" class="st3" d="M121.3,197.2v-13.8h34.6c1.5,0,3.1-0.4,4.4-1.1c1.2-0.7,2.2-1.7,3-3c0.7-1.1,1.1-2.5,1.1-3.8
				c0-1.4-0.3-2.7-1-3.9c-0.7-1.1-1.6-2.1-2.8-2.7c-1.3-0.7-2.7-1.1-4.2-1.1h-14c-4.2,0.1-8.3-0.7-12.2-2.2c-3.5-1.4-6.4-3.8-8.4-7
				c-2.2-3.6-3.3-7.7-3.1-11.9c0-3.7,1-7.4,2.9-10.5c1.9-3.2,4.6-5.8,7.8-7.7c3.4-2,7.2-3,11.1-3h33.3v13.8h-31.8
				c-2-0.1-3.9,0.7-5.3,2c-2.7,2.6-2.8,7-0.2,9.7c0.1,0.1,0.1,0.1,0.2,0.2c1.5,1.4,3.5,2.2,5.6,2.1h13.6c4.5-0.1,9,0.7,13.2,2.4
				c3.5,1.4,6.4,3.9,8.4,7.2c2,3.7,3,7.9,2.9,12.1c0,3.9-1,7.7-3,11c-1.9,3.4-4.7,6.2-8.1,8.2c-3.5,2-7.5,3.1-11.6,3H121.3z"/>
			<path id="Path_134" class="st3" d="M191,197.2V94.6h16.1v59.6h15.5l18-28.7h17.8l-20.1,31.2c6.1,2,11.4,6,15,11.3
				c3.6,5.4,5.5,11.7,5.3,18.2v11h-16.2v-11c0-3.2-0.8-6.4-2.4-9.2c-1.5-2.7-3.8-5-6.5-6.5c-2.8-1.6-6-2.4-9.3-2.4h-17.3v29.1H191z"
				/>
			<path id="Path_135" class="st3" d="M277.4,198.7c-6.2,0-11.2-5-11.2-11.2c0-2.9,1.2-5.8,3.3-7.8c2.1-2.1,5-3.3,7.9-3.3
				c6.1,0.1,11,5,11.1,11.1c0,2-0.5,4-1.5,5.7c-0.9,1.7-2.3,3.1-4,4.1C281.4,198.2,279.4,198.7,277.4,198.7"/>
			<path id="Path_136" class="st3" d="M334.5,197.2c-5.9-0.1-11.8-1.2-17.3-3.5c-5-2-9.5-5-13.3-8.8c-3.7-3.7-6.6-8.1-8.6-13
				c-2-5-3-10.4-3-15.9c0-5.4,1-10.8,3-15.9c1.9-4.9,4.9-9.3,8.6-13c3.8-3.8,8.3-6.8,13.3-8.9c5.5-2.3,11.4-3.4,17.3-3.4h11.6v12.3
				h-11.3c-3.9,0-7.8,0.8-11.4,2.3c-6.8,2.8-12.2,8.3-14.9,15.1c-1.4,3.6-2.1,7.5-2.1,11.3c0,3.9,0.7,7.7,2.1,11.3
				c1.4,3.4,3.4,6.5,5.9,9.1c2.6,2.6,5.6,4.7,9,6c3.6,1.5,7.5,2.2,11.4,2.2h11.3v12.4H334.5z"/>
			<path id="Path_137" class="st3" d="M356.7,197.2v-12.3H372v-57.5h-15.3V115h44.6v12.3H386v57.5h15.3v12.3H356.7z"/>
		</g>
	</g>
</g>
</svg>
