<?xml version="1.0" encoding="utf-8"?>
<!-- Generator: Adobe Illustrator 26.5.0, SVG Export Plug-In . SVG Version: 6.00 Build 0)  -->
<svg version="1.1" id="Layer_1" xmlns="http://www.w3.org/2000/svg" xmlns:xlink="http://www.w3.org/1999/xlink" x="0px" y="0px"
	 viewBox="0 0 389.1 108.7" style="enable-background:new 0 0 389.1 108.7;" xml:space="preserve">
<style type="text/css">
	.st0{fill:#FFFFFF;}
	.st1{fill:#FFFFFF;stroke:#FFFFFF;stroke-width:0.5;stroke-miterlimit:10;}
</style>
<path id="Path_5" class="st0" d="M95.4,60.5h-5.8l0,0H82C78.6,75,64.2,84,49.7,80.6S26.2,62.8,29.6,48.3s17.8-23.5,32.3-20.1
	c8,1.9,14.7,7.3,18.2,14.7H73c-6.5-9.4-19.3-11.7-28.7-5.3S32.6,56.9,39,66.3S58.3,78,67.7,71.6c3.9-2.7,6.7-6.6,8.1-11.1h-8
	c-3.3,6.5-11.2,9.1-17.7,5.9c-6.5-3.3-9.1-11.2-5.9-17.7c3.3-6.5,11.2-9.1,17.7-5.9c2.7,1.4,4.9,3.6,6.1,6.4h7.9l0,0h6.3l0,0h7.6
	C87,30.4,69.4,17.5,50.6,20.3S18.9,40.7,21.7,59.5s20.4,31.7,39.2,28.9C73,86.6,83.3,78.4,87.8,67h6.1C87,88,64.3,99.4,43.3,92.5
	S10.9,62.9,17.8,41.9S47.4,9.5,68.4,16.4C83,21.2,93.5,34,95.5,49.2h7.5c-2.9-26.1-26.4-44.9-52.4-42C24.5,10,5.7,33.5,8.5,59.6
	c2.9,26.1,26.4,44.9,52.4,42c21.8-2.4,39.1-19.4,41.9-41.1H95.4L95.4,60.5z"/>
<g id="Group_760" transform="translate(126.434 6)">
	<g id="Group_758" transform="translate(0.591 62.62)">
		<path id="Path_6" class="st1" d="M22.6,25.3c-3,5.5-8.8,8.9-15.1,8.7C-1.5,34-9,25.9-9,17.2C-9.1,7.8-1.6,0.2,7.7,0.1
			C14,0,19.8,3.5,22.8,9H17c-2.5-2.9-5.3-4.6-9.2-4.6C1.2,4.5-4.2,10-4.3,16.7c0,6.8,5.2,12.9,11.9,12.9c3.5,0,6.9-1.6,9.1-4.3H22.6
			z"/>
		<path id="Path_7" class="st1" d="M45.3,33.3V19.1H31.9v14.2h-4.8V0.7h4.8v14.1h13.5V0.7h4.8v32.7h-4.9V33.3z"/>
		<path id="Path_8" class="st1" d="M77.9,33.3l-3.6-9.6H62.6L59,33.3h-5L66.3,0.7h4.3L83,33.3H77.9z M68.5,6.9L68.5,6.9l-4.3,12.5
			h8.4L68.5,6.9z"/>
		<path id="Path_9" class="st1" d="M116.7,33.3V5.8h-0.1l-11,27.6h-2.9l-11-27.6h-0.1v27.6h-4.8V0.7h7.5l9.8,25l9.8-25h7.5v32.7
			h-4.7V33.3z"/>
		<path id="Path_10" class="st1" d="M127.6,33.3V0.7h9.5c7,0,11.5,3.5,11.5,9.9s-4.4,9.9-11.4,9.9h-4.8v12.9h-4.8V33.3z M137.1,16.1
			c4.2,0,6.7-2,6.7-5.5c0-3.6-2.6-5.5-6.8-5.5h-4.7v11H137.1z"/>
		<path id="Path_11" class="st1" d="M152.7,33.3V0.7h4.8v32.7h-4.8V33.3z"/>
		<path id="Path_12" class="st1" d="M179.2,34c-9.4-0.2-16.8-7.9-16.6-17.2S170.5,0,179.8,0.2c9.2,0.2,16.5,7.6,16.6,16.7
			c0.1,9.4-7.5,17.1-16.8,17.2C179.4,34,179.3,34,179.2,34z M191.6,17.1c0-6.8-5.1-12.7-12-12.7c-8.8,0-12.4,7.6-12.4,12.4
			c0,6.6,4.8,12.7,12.2,12.7C187.1,29.6,191.6,23.1,191.6,17.1L191.6,17.1z"/>
		<path id="Path_13" class="st1" d="M222.4,33.3L206.2,8.1h-0.1v25.2h-4.8V0.7h5.2l15.9,24.8h0.1V0.7h4.8v32.7h-4.9V33.3z"/>
		<path id="Path_14" class="st1" d="M246.1,9.2c0.2-2.4-1.6-4.5-4-4.7c-0.2,0-0.4,0-0.6,0c-2.4,0.1-4.3,2-4.4,4.5
			c0,2.3,1.5,3.6,4.7,4.6c7.1,2.2,9.7,4.9,9.7,10.5c0,5.9-4.2,9.9-10,9.9s-10-4.1-10.1-10.3h4.8c0,3.5,2.1,5.9,5.3,5.9
			s5.3-2.3,5.3-5.5c0-2.4-1.1-3.9-4.5-5.1c-8.1-2.7-9.8-5.4-9.8-10c0-5,4.1-9,9.1-8.9c0,0,0,0,0.1,0c5.4,0,9.3,3.4,9.4,9.1
			L246.1,9.2z"/>
	</g>
	<g id="Group_759" transform="translate(0 0)">
		<path id="Path_15" class="st0" d="M38,37.6c-4.5,8.2-13.1,13.2-22.5,12.9C2.1,50.5-9,38.4-9,25.5C-9.3,11.7,1.7,0.3,15.5,0.1h0.1
			c9.2,0,17.8,4.2,22.7,13.3h-8.5c-3.7-4.3-7.9-6.8-13.7-6.8C6.1,6.7-1.9,14.9-2,24.9C-1.9,35,5.7,44,15.7,44c5.1,0,9.6-2,13.5-6.4
			H38z"/>
		<path id="Path_16" class="st0" d="M73.8,49.6l-5.4-14.3H50.9l-5.4,14.3H38L56.5,1h6.4l18.5,48.6H73.8z M59.8,10.2L59.8,10.2
			l-6.3,18.6H66L59.8,10.2z"/>
		<path id="Path_17" class="st0" d="M131.5,49.6V8.5h-0.2L115,49.6h-4.3L94.3,8.5h-0.1v41.1h-7.1V1h11.2l14.6,37.2L127.5,1h11.2
			v48.6H131.5z"/>
		<path id="Path_18" class="st0" d="M147.8,49.6V1h14.1C172.3,1,179,6.2,179,15.7s-6.5,14.7-17,14.7h-7.1v19.2H147.8z M161.9,23.9
			c6.2,0,10-3,10-8.2c0-5.3-3.9-8.2-10-8.2h-7v16.4H161.9z"/>
		<path id="Path_19" class="st0" d="M210.5,1h7.1v33.2c0,10.2-7.2,16.3-16.3,16.3S185,44.3,185,34.2V1h7.1v32.7
			c0,6,3.4,10.3,9.2,10.3s9.2-4.3,9.2-10.3V1z"/>
		<path id="Path_20" class="st0" d="M245.5,13.6c0-4.4-2.8-7-6.8-7c-3.6,0.1-6.4,3-6.5,6.6c0,3.4,2.3,5.4,7,6.9
			c10.5,3.3,14.4,7.3,14.4,15.7c0,8.8-6.3,14.7-14.9,14.7c-8.7,0-14.8-6.2-15-15.3h7.1c0.1,5.3,3.2,8.8,7.9,8.8s7.8-3.4,7.8-8.2
			c0-3.5-1.6-5.8-6.8-7.6c-12-4.1-14.6-8-14.6-14.9C225.2,5.9,231.2,0,238.6,0h0.1c8,0,13.8,5.1,13.9,13.5L245.5,13.6z"/>
	</g>
</g>
</svg>
