<?xml version="1.0" encoding="utf-8"?>
<!-- Generator: Adobe Illustrator 26.5.0, SVG Export Plug-In . SVG Version: 6.00 Build 0)  -->
<svg version="1.1" id="Layer_1" xmlns="http://www.w3.org/2000/svg" xmlns:xlink="http://www.w3.org/1999/xlink" x="0px" y="0px"
	 viewBox="0 0 110 108.7" style="enable-background:new 0 0 110 108.7;" xml:space="preserve">
<style type="text/css">
	.st0{fill:#C42032;}
	.st1{fill:#C42032;stroke:#C42032;stroke-width:0.5;stroke-miterlimit:10;}
</style>
<path id="Path_5_00000093156233126241562400000013459261317726027694_" class="st0" d="M95.4,60.5h-5.8v0H82
	c-3.4,14.5-17.8,23.5-32.3,20.1c-14.5-3.4-23.5-17.8-20.1-32.3c3.4-14.5,17.8-23.5,32.3-20.1c8,1.9,14.7,7.3,18.2,14.7H73
	c-6.5-9.4-19.3-11.7-28.7-5.3S32.6,56.9,39,66.3S58.3,78,67.7,71.6c3.9-2.7,6.7-6.6,8.1-11.1h-8c-3.3,6.5-11.2,9.1-17.7,5.9
	c-6.5-3.3-9.1-11.2-5.9-17.7c3.3-6.5,11.2-9.1,17.7-5.9c2.7,1.4,4.9,3.6,6.1,6.4h7.9v0h6.3v0h7.6c-2.8-18.8-20.4-31.7-39.2-28.9
	c-18.8,2.8-31.7,20.4-28.9,39.2c2.8,18.8,20.4,31.7,39.2,28.9c12.1-1.8,22.4-10,26.9-21.4h6.1c-6.9,21-29.6,32.4-50.6,25.5
	c-21-6.9-32.4-29.6-25.5-50.6c6.9-21,29.6-32.4,50.6-25.5c14.6,4.8,25.1,17.6,27.1,32.8h7.5c-2.9-26.1-26.4-44.9-52.4-42
	C24.5,10,5.7,33.5,8.5,59.6c2.9,26.1,26.4,44.9,52.4,42c21.8-2.4,39.1-19.4,41.9-41.1L95.4,60.5L95.4,60.5z"/>
</svg>
