<?xml version="1.0" encoding="utf-8"?>
<!-- Generator: Adobe Illustrator 26.5.0, SVG Export Plug-In . SVG Version: 6.00 Build 0)  -->
<svg version="1.1" id="Layer_1" xmlns="http://www.w3.org/2000/svg" xmlns:xlink="http://www.w3.org/1999/xlink" x="0px" y="0px"
	 viewBox="0 0 280 108.7" style="enable-background:new 0 0 280 108.7;" xml:space="preserve">
<style type="text/css">
	.st0{fill:#C42032;}
	.st1{fill:#C42032;stroke:#C42032;stroke-width:0.5;stroke-miterlimit:10;}
</style>
<g id="Group_760_00000054253510125031857250000007408348921064092823_" transform="translate(126.434 6)">
	<g id="Group_758_00000128482808767673047430000016933252163465570745_" transform="translate(0.591 62.62)">
		<path id="Path_6_00000152257498005538120320000013597692275978604690_" class="st1" d="M-86.5,25.3c-3,5.5-8.8,8.9-15.1,8.7
			c-9,0-16.5-8.1-16.5-16.8c-0.1-9.3,7.4-17,16.7-17.1C-95.1,0-89.3,3.5-86.3,9H-92c-2.5-2.9-5.3-4.6-9.2-4.6
			c-6.7,0.1-12.1,5.6-12.1,12.3c0,6.8,5.2,12.9,11.9,12.9c3.5,0,6.9-1.6,9.1-4.3L-86.5,25.3z"/>
		<path id="Path_7_00000078737793389897742390000016636940949339488428_" class="st1" d="M-63.7,33.3V19.1h-13.5v14.2H-82V0.7h4.8
			v14.1h13.5V0.7h4.8v32.7H-63.7z"/>
		<path id="Path_8_00000087407188150784166990000005911671406220786585_" class="st1" d="M-31.1,33.3l-3.6-9.6h-11.7l-3.6,9.6h-5
			l12.4-32.7h4.3l12.4,32.7H-31.1z M-40.5,6.9L-40.5,6.9l-4.3,12.5h8.4L-40.5,6.9z"/>
		<path id="Path_9_00000133500858725003770400000004015448584612570040_" class="st1" d="M7.6,33.3V5.8H7.5l-11,27.6h-2.9l-11-27.6
			h-0.1v27.6h-4.8V0.7h7.5l9.8,25l9.8-25h7.5v32.7H7.6z"/>
		<path id="Path_10_00000175316199353969062520000007987744443435618201_" class="st1" d="M18.5,33.3V0.7H28c7,0,11.5,3.5,11.5,9.9
			s-4.4,9.9-11.4,9.9h-4.8v12.9H18.5z M28,16.1c4.2,0,6.7-2,6.7-5.5C34.7,7,32.1,5,28,5h-4.7v11H28z"/>
		<path id="Path_11_00000181058754776262824070000008249361257578938285_" class="st1" d="M43.7,33.3V0.7h4.8v32.7H43.7z"/>
		<path id="Path_12_00000023997321720627803300000003963500324654044340_" class="st1" d="M70.1,34c-9.4-0.2-16.8-7.9-16.6-17.2
			S61.3-0.1,70.7,0.1c9.2,0.2,16.5,7.6,16.6,16.7c0.1,9.4-7.5,17.1-16.8,17.2C70.3,34,70.2,34,70.1,34z M82.6,17.1
			c0-6.8-5.1-12.7-12-12.7c-8.8,0-12.4,7.6-12.4,12.4c0,6.6,4.8,12.7,12.2,12.7C78.1,29.6,82.6,23.1,82.6,17.1L82.6,17.1z"/>
		<path id="Path_13_00000171702801269157258260000010952679103350659472_" class="st1" d="M113.3,33.3L97.2,8.1h-0.1v25.2h-4.8V0.7
			h5.2l15.9,24.8h0.1V0.7h4.8v32.7H113.3z"/>
		<path id="Path_14_00000085947598410765438270000011882184837209564863_" class="st1" d="M137,9.2c0.2-2.4-1.6-4.5-4-4.7
			c-0.2,0-0.4,0-0.6,0c-2.4,0.1-4.3,2-4.4,4.5c0,2.3,1.5,3.6,4.7,4.6c7.1,2.2,9.7,4.9,9.7,10.5c0,5.9-4.2,9.9-10,9.9
			c-5.8,0-10-4.1-10.1-10.3h4.8c0,3.5,2.1,5.9,5.3,5.9s5.3-2.3,5.3-5.5c0-2.4-1.1-3.9-4.5-5.1c-8.1-2.7-9.8-5.4-9.8-10
			c0-5,4.1-9,9.1-8.9c0,0,0,0,0.1,0c5.4,0,9.3,3.4,9.4,9.1L137,9.2z"/>
	</g>
	<g id="Group_759_00000013906393168611010140000012923768916113740962_" transform="translate(0 0)">
		<path id="Path_15_00000118373714386094875260000017240721551836977282_" class="st0" d="M-71.1,37.6c-4.5,8.2-13.1,13.2-22.5,12.9
			c-13.5,0-24.6-12.1-24.6-25c-0.2-13.8,10.8-25.2,24.5-25.4c0,0,0.1,0,0.1,0c9.2,0,17.8,4.2,22.7,13.3h-8.5
			c-3.7-4.3-7.9-6.8-13.7-6.8c-10,0.1-18,8.3-18.1,18.3C-111,35-103.3,44-93.3,44c5.1,0,9.6-2,13.5-6.4H-71.1z"/>
		<path id="Path_16_00000009555553693756197370000016025964432670760337_" class="st0" d="M-35.3,49.6l-5.4-14.3h-17.5l-5.4,14.3
			H-71L-52.5,1h6.4l18.5,48.6H-35.3z M-49.3,10.2h-0.1l-6.2,18.6h12.5L-49.3,10.2z"/>
		<path id="Path_17_00000055692992135851194130000009436836448877551291_" class="st0" d="M22.5,49.6V8.5h-0.2L5.9,49.6H1.7
			L-14.8,8.5h-0.1v41.1H-22V1h11.2L3.8,38.2L18.4,1h11.2v48.6H22.5z"/>
		<path id="Path_18_00000086667020958311033460000016354339653151992499_" class="st0" d="M38.7,49.6V1h14.1
			c10.4,0,17.1,5.2,17.1,14.7s-6.5,14.7-17,14.7h-7.1v19.2L38.7,49.6z M52.8,23.9c6.2,0,10-3,10-8.2c0-5.3-3.9-8.2-10-8.2h-7v16.4
			H52.8z"/>
		<path id="Path_19_00000174585184923598940850000004434358855011673773_" class="st0" d="M101.4,1h7.1v33.2
			c0,10.2-7.2,16.3-16.3,16.3S76,44.3,76,34.2V1H83v32.7c0,6,3.4,10.3,9.2,10.3s9.2-4.3,9.2-10.3L101.4,1z"/>
		<path id="Path_20_00000014613174500182653030000003642003925397796770_" class="st0" d="M136.4,13.6c0-4.4-2.8-7-6.8-7
			c-3.6,0.1-6.4,3-6.5,6.6c0,3.4,2.3,5.4,7,6.9c10.5,3.3,14.4,7.3,14.4,15.7c0,8.8-6.3,14.7-14.9,14.7c-8.7,0-14.8-6.2-15-15.3h7.1
			c0.1,5.3,3.2,8.8,7.9,8.8c4.7,0,7.8-3.4,7.8-8.2c0-3.5-1.6-5.8-6.8-7.6c-12-4.1-14.6-8-14.6-14.9C116,5.9,122.1,0,129.5,0.1
			c0,0,0.1,0,0.1,0c8,0,13.8,5.1,13.9,13.5L136.4,13.6z"/>
	</g>
</g>
</svg>
