<?xml version="1.0" encoding="UTF-8"?>
<svg id="Layer_1" xmlns="http://www.w3.org/2000/svg" version="1.1" viewBox="0 0 110 108.7">
  <!-- Generator: Adobe Illustrator 29.7.1, SVG Export Plug-In . SVG Version: 2.1.1 Build 8)  -->
  <defs>
    <style>
      .st0 {
        fill: #c42032;
      }
    </style>
  </defs>
  <path id="Path_5" class="st0" d="M95.4,60.5h-13.4c-3.4,14.5-17.8,23.5-32.3,20.1-14.5-3.4-23.5-17.8-20.1-32.3s17.8-23.5,32.3-20.1c8,1.9,14.7,7.3,18.2,14.7h-7.1c-6.5-9.4-19.3-11.7-28.7-5.3s-11.7,19.3-5.3,28.7,19.3,11.7,28.7,5.3c3.9-2.7,6.7-6.6,8.1-11.1h-8c-3.3,6.5-11.2,9.1-17.7,5.9-6.5-3.3-9.1-11.2-5.9-17.7,3.3-6.5,11.2-9.1,17.7-5.9,2.7,1.4,4.9,3.6,6.1,6.4h21.8c-2.8-18.8-20.4-31.7-39.2-28.9-18.8,2.8-31.7,20.4-28.9,39.2,2.8,18.8,20.4,31.7,39.2,28.9,12.1-1.8,22.4-10,26.9-21.4h6.1c-6.9,21-29.6,32.4-50.6,25.5S10.9,62.9,17.8,41.9c6.9-21,29.6-32.4,50.6-25.5,14.6,4.8,25.1,17.6,27.1,32.8h7.5c-2.9-26.1-26.4-44.9-52.4-42C24.5,10,5.7,33.5,8.5,59.6c2.9,26.1,26.4,44.9,52.4,42,21.8-2.4,39.1-19.4,41.9-41.1h-7.4Z"/>
  <path class="st0" d="M47.6,60.8l5-13.1c0,0,0-.1.2-.1.5,0,1.1,0,1.6,0l5.2,13.2h-2.3l-1.5-3.8h-4.6s-1.4,3.8-1.4,3.8h-2.2ZM51.9,55.1h3.1l-1.5-4.5-1.6,4.5Z"/>
  <rect class="st0" x="61.2" y="47.6" width="2.1" height="13.3"/>
</svg>