<?xml version="1.0" encoding="utf-8"?>
<!-- Generator: Adobe Illustrator 26.5.3, SVG Export Plug-In . SVG Version: 6.00 Build 0)  -->
<svg version="1.1" id="Layer_1" xmlns="http://www.w3.org/2000/svg" xmlns:xlink="http://www.w3.org/1999/xlink" x="0px" y="0px"
	 viewBox="0 0 215.7 174.1" style="enable-background:new 0 0 215.7 174.1;" xml:space="preserve">
<style type="text/css">
	.st0{fill:#24599C;}
	.st1{fill:#178FCC;}
	.st2{fill-rule:evenodd;clip-rule:evenodd;fill:#2E6BB3;}
	.st3{fill-rule:evenodd;clip-rule:evenodd;fill:#3DA8E0;}
</style>
<g id="Group_86" transform="translate(-663.761 -369.265)">
	<path id="Path_286" class="st0" d="M825,390.3L825,390.3L825,390.3c-0.2,2.8-1.1,5.5-2.6,7.8c-1,1.7-2.3,3.2-3.8,4.5l-0.1,0.1
		c-6.1,5.8-6.6,11.8-6.6,19.5s0.5,13.7,6.6,19.5c4.2,3.6,6.6,8.9,6.6,14.4c0,10.6-8.6,19.1-19.1,19.1c-10.6,0-19.1-8.6-19.1-19.1
		c0-5.5,2.3-10.8,6.6-14.4c6.1-5.8,6.6-11.8,6.6-19.5c0-7.7-0.5-13.7-6.6-19.5c-0.5-0.4-0.9-0.9-1.3-1.4c-0.2-0.2-0.3-0.3-0.5-0.5
		c-5.8-6.1-11.8-6.6-19.5-6.6s-13.7,0.5-19.5,6.6c-3.6,4.2-8.9,6.6-14.4,6.6c-10.6,0.1-19.2-8.4-19.3-18.9
		c-0.1-10.6,8.4-19.2,18.9-19.3c0.1,0,0.2,0,0.4,0c5.5-0.1,10.8,2.3,14.4,6.6c5.8,6.1,11.8,6.6,19.5,6.6s13.7-0.5,19.5-6.6l0.1-0.1
		c1.2-1.4,2.6-2.5,4.1-3.5c3-2,6.6-3,10.2-3c10.6,0,19.1,8.6,19.1,19.1C825.1,389,825.1,389.7,825,390.3"/>
	<path id="Path_287" class="st1" d="M688.7,456.2L688.7,456.2c0-6.9-5.6-12.5-12.5-12.5c-6.9,0-12.5,5.6-12.5,12.5
		c0,6.9,5.6,12.5,12.5,12.5l0,0C683.1,468.7,688.7,463.1,688.7,456.2"/>
	<path id="Path_288" class="st0" d="M879.4,456.2L879.4,456.2c0-6.9-5.6-12.5-12.5-12.5c-6.9,0-12.5,5.6-12.5,12.5
		c0,6.9,5.6,12.5,12.5,12.5c0,0,0,0,0,0C873.8,468.7,879.4,463.1,879.4,456.2"/>
	<path id="Path_289" class="st0" d="M719.1,524.1L719.1,524.1c-0.1-5.5,2.3-10.8,6.6-14.4c6.1-5.8,6.6-11.8,6.6-19.5
		s-0.5-13.7-6.6-19.5c-4.2-3.6-6.6-8.9-6.6-14.4c-0.1-10.6,8.4-19.2,18.9-19.3c10.6-0.1,19.2,8.4,19.3,18.9c0,0.1,0,0.2,0,0.4
		c0,5.5-2.3,10.8-6.6,14.4c-6.1,5.8-6.6,11.8-6.6,19.5s0.5,13.7,6.6,19.5c4.2,3.6,6.6,8.9,6.6,14.4c0.1,10.6-8.4,19.2-18.9,19.3
		c-10.6,0.1-19.2-8.4-19.3-18.9C719,524.3,719,524.2,719.1,524.1"/>
	<path id="Path_290" class="st1" d="M704.2,403.2L704.2,403.2c3.5-0.1,7,0.9,10,2.8c1.6,1,3.1,2.2,4.3,3.6l0.1,0.1
		c5.8,6.1,11.8,6.6,19.5,6.6s13.7-0.5,19.5-6.6c3.6-4.2,8.9-6.6,14.4-6.6c10.6,0,19.1,8.6,19.1,19.1c0,10.6-8.6,19.1-19.1,19.1
		c-5.5,0-10.8-2.3-14.4-6.6c-5.8-6.1-11.8-6.6-19.5-6.6s-13.7,0.5-19.5,6.6c-0.3,0.3-0.6,0.6-0.9,0.9l0,0c-0.3,0.3-0.6,0.6-0.9,0.9
		c-6.1,5.8-6.6,11.8-6.6,19.5c0,7.7,0.5,13.7,6.6,19.5c4.2,3.6,6.6,8.9,6.6,14.4c0.1,10.6-8.4,19.2-18.9,19.3
		c-10.6,0.1-19.2-8.4-19.3-18.9c0-0.1,0-0.2,0-0.4c0-5.5,2.3-10.8,6.6-14.4c6.1-5.8,6.6-11.8,6.6-19.5c0-7.7-0.5-13.7-6.6-19.5
		l-0.1-0.1c-1.4-1.3-2.7-2.7-3.6-4.3c-1.9-3-2.9-6.4-2.8-10C685.1,411.8,693.7,403.2,704.2,403.2
		C704.2,403.2,704.2,403.2,704.2,403.2"/>
	<path id="Path_291" class="st1" d="M839.9,509.3c-3.5,0.1-7-0.9-10-2.8c-1.6-1-3.1-2.2-4.3-3.6l-0.1-0.1
		c-5.8-6.1-11.8-6.6-19.5-6.6s-13.7,0.5-19.5,6.6c-3.6,4.2-8.9,6.6-14.4,6.6c-10.6,0-19.1-8.6-19.1-19.1c0-10.6,8.6-19.1,19.1-19.1
		l0,0c5.5,0,10.8,2.3,14.4,6.6c5.8,6.1,11.8,6.6,19.5,6.6c7.7,0,13.7-0.5,19.5-6.6c0.3-0.3,0.6-0.6,0.9-0.9l0,0
		c0.3-0.3,0.6-0.6,0.9-0.9c6.1-5.8,6.6-11.8,6.6-19.5s-0.5-13.7-6.6-19.5c-4.2-3.6-6.6-8.9-6.6-14.4c0-10.6,8.6-19.1,19.1-19.1
		c10.6,0,19.1,8.6,19.1,19.1l0,0c0,5.5-2.4,10.8-6.6,14.4c-6.1,5.8-6.6,11.8-6.6,19.5s0.5,13.7,6.6,19.5l0.1,0.1
		c1.4,1.3,2.7,2.7,3.7,4.3c1.9,3,2.9,6.4,2.8,10C859.1,500.7,850.5,509.3,839.9,509.3"/>
	<path id="Path_292" class="st2" d="M825,390.3L825,390.3L825,390.3c-0.2,2.8-1.1,5.5-2.6,7.8c-1,1.7-2.3,3.2-3.8,4.5l-0.1,0.1
		c-6.1,5.8-6.6,11.8-6.6,19.5s0.5,13.7,6.6,19.5c4.2,3.6,6.6,8.9,6.6,14.4c0,4.7-1.7,9.2-4.8,12.6c-2.2-3.3-4.5-5.9-7.5-6.9
		c-6.8-2.2-13.8,1.7-22.7,4.8c-2.1-3.1-3.2-6.8-3.2-10.6c0-5.5,2.3-10.8,6.6-14.4c6.1-5.8,6.6-11.8,6.6-19.5s-0.5-13.7-6.6-19.5
		c-0.5-0.4-0.9-0.9-1.3-1.4c-0.2-0.2-0.3-0.3-0.5-0.5c-5.8-6.1-11.8-6.6-19.5-6.6c-7.7,0-13.7,0.5-19.5,6.6
		c-3.6,4.2-8.9,6.6-14.4,6.6c-10.6,0.1-19.2-8.4-19.3-18.9c-0.1-10.6,8.4-19.2,18.9-19.3c0.1,0,0.2,0,0.4,0
		c5.5-0.1,10.8,2.3,14.4,6.6c5.8,6.1,11.8,6.6,19.5,6.6c7.7,0,13.7-0.5,19.5-6.6l0.1-0.1c1.2-1.4,2.6-2.5,4.1-3.5c3-2,6.6-3,10.2-3
		c10.6,0,19.1,8.6,19.1,19.1C825.1,389,825.1,389.7,825,390.3"/>
	<path id="Path_293" class="st2" d="M879.4,456.2L879.4,456.2c0-6.9-5.6-12.5-12.5-12.5c-6.9,0-12.5,5.6-12.5,12.5
		c0,6.9,5.6,12.5,12.5,12.5c0,0,0,0,0,0C873.8,468.7,879.4,463.1,879.4,456.2"/>
	<path id="Path_294" class="st2" d="M739.3,437.1c10.1,0.6,18,8.9,18,19.1c0.1,3.4-0.9,6.8-2.7,9.8
		C745.8,459.9,745,447.9,739.3,437.1"/>
	<path id="Path_295" class="st3" d="M704.2,403.2L704.2,403.2c3.5-0.1,7,0.9,10,2.8c1.6,1,3.1,2.2,4.3,3.6l0.1,0.1
		c5.8,6.1,11.8,6.6,19.5,6.6c7.7,0,13.7-0.5,19.5-6.6c3.6-4.2,8.9-6.6,14.4-6.6c10.6,0,19.1,8.6,19.1,19.1
		c0,10.6-8.6,19.1-19.1,19.1c-5.5,0.1-10.8-2.3-14.4-6.6c-5.8-6.1-11.8-6.6-19.5-6.6c-1.9,0-3.6,0-5.3,0.2c-1.6-1.6-3.3-3-5.2-4.2
		c-12.4-8.2-29.3-4.2-42.5-3.1C685.8,411,694.2,403.2,704.2,403.2"/>
	<path id="Path_296" class="st3" d="M825.4,477.7l0.1-0.1c0.3-0.3,0.6-0.6,0.9-0.9l0,0c0.3-0.3,0.6-0.6,0.9-0.9
		c6.1-5.8,6.6-11.8,6.6-19.5s-0.5-13.7-6.6-19.5c-4.2-3.6-6.6-8.9-6.6-14.4c0-10.6,8.6-19.1,19.1-19.1c10.6,0,19.1,8.6,19.1,19.1
		l0,0c0,5.5-2.4,10.8-6.6,14.4c-6.1,5.8-6.6,11.8-6.6,19.5s0.5,13.7,6.6,19.5l0.1,0.1c1.4,1.3,2.7,2.7,3.7,4.3c1.9,3,2.9,6.4,2.8,10
		c0,0.7,0,1.4-0.1,2.1c-3.3,0.6-6.4,1.1-9.5,1.6C836.6,495.7,830.5,486.7,825.4,477.7"/>
</g>
</svg>
