<?xml version="1.0" encoding="utf-8"?>
<!-- Generator: Adobe Illustrator 26.5.2, SVG Export Plug-In . SVG Version: 6.00 Build 0)  -->
<svg version="1.1" id="Layer_1" xmlns="http://www.w3.org/2000/svg" xmlns:xlink="http://www.w3.org/1999/xlink" x="0px" y="0px"
	 viewBox="0 0 594 134.8" style="enable-background:new 0 0 594 134.8;" xml:space="preserve">
<style type="text/css">
	.st0{clip-path:url(#SVGID_00000121250908872089082120000005759309756893619388_);}
	.st1{fill:#FFFFFF;}
	.st2{fill:none;stroke:#FFFFFF;stroke-width:5.2934;stroke-miterlimit:10;}
</style>
<g>
	<defs>
		<rect id="SVGID_1_" width="594" height="134.8"/>
	</defs>
	<clipPath id="SVGID_00000054243878446953014450000004395485270995997364_">
		<use xlink:href="#SVGID_1_"  style="overflow:visible;"/>
	</clipPath>
	
		<g id="Group_826-2" transform="translate(0 0)" style="clip-path:url(#SVGID_00000054243878446953014450000004395485270995997364_);">
		<path id="Path_142" class="st1" d="M169.7,99.9c-5.1,0-10.1-1-14.7-2.9c-4.3-1.8-8.2-4.3-11.5-7.6c-3.2-3.2-5.7-7-7.4-11.2
			c-3.4-8.8-3.4-18.5,0-27.3c1.7-4.2,4.2-8,7.4-11.2c3.3-3.3,7.2-5.9,11.5-7.6c4.7-1.9,9.7-2.9,14.7-2.9h9.1v8.6H170
			c-7.1-0.1-14,2.7-19,7.7c-2.4,2.4-4.3,5.3-5.6,8.4c-2.7,6.8-2.7,14.4,0,21.1c2.6,6.4,7.6,11.5,14,14.1c3.4,1.4,7,2.1,10.6,2.1h8.8
			v8.6L169.7,99.9z"/>
		<path id="Path_143" class="st1" d="M210.8,101.1c-4.9,0.1-9.7-1.1-13.9-3.6c-4-2.3-7.3-5.7-9.6-9.7c-2.4-4.2-3.6-8.9-3.5-13.7
			c-0.1-4.8,1.2-9.5,3.5-13.7c2.3-4,5.6-7.3,9.6-9.7c8.7-4.8,19.2-4.8,27.9,0c4,2.3,7.3,5.7,9.6,9.7c2.3,4.2,3.5,8.9,3.5,13.7
			c0.1,4.8-1.1,9.5-3.5,13.7c-2.3,4-5.6,7.4-9.6,9.7C220.5,99.9,215.7,101.2,210.8,101.1 M210.9,93.1c3.2,0.1,6.4-0.8,9.2-2.5
			c2.6-1.7,4.8-4,6.2-6.8c3-6.1,3-13.2,0-19.3c-1.4-2.8-3.5-5.1-6.2-6.8c-2.7-1.7-5.9-2.6-9.2-2.5c-3.3-0.1-6.5,0.8-9.3,2.5
			c-2.6,1.7-4.8,4-6.2,6.8c-1.5,3-2.3,6.3-2.2,9.6c-0.1,3.3,0.7,6.7,2.2,9.6c1.4,2.8,3.6,5.2,6.2,6.8
			C204.4,92.3,207.6,93.2,210.9,93.1"/>
		<path id="Path_144" class="st1" d="M246.5,99.9V70.1c-0.1-4.2,1-8.4,3.1-12c2-3.4,5-6.2,8.5-8c7.8-3.8,17-3.8,24.9,0
			c3.5,1.8,6.4,4.6,8.5,8c2.1,3.6,3.2,7.8,3.1,12v29.8h-9.3V70.2c0.1-2.8-0.6-5.6-2.1-8c-1.3-2.2-3.2-4-5.4-5.2
			c-4.5-2.4-9.9-2.4-14.4,0c-2.3,1.2-4.1,3-5.5,5.2c-1.4,2.4-2.1,5.2-2.1,8v29.7H246.5z"/>
		<path id="Path_145" class="st1" d="M306.1,99.9V70.1c-0.1-4.2,1-8.4,3.1-12c2-3.4,5-6.2,8.5-8c7.8-3.8,17-3.8,24.9,0
			c3.5,1.8,6.4,4.6,8.5,8c2.1,3.6,3.2,7.8,3.1,12v29.8h-9.3V70.2c0.1-2.8-0.6-5.6-2.1-8c-1.3-2.2-3.2-4-5.4-5.2
			c-4.5-2.4-9.9-2.4-14.4,0c-2.3,1.2-4.1,3-5.5,5.2c-1.4,2.4-2.1,5.2-2.1,8v29.7H306.1z"/>
		<path id="Path_146" class="st1" d="M391.8,99.9c-5.2,0.1-10.3-1-15-3.2c-4.2-2-7.7-5.1-10.2-9c-2.5-4.1-3.8-8.8-3.7-13.6
			c-0.1-4.8,1-9.5,3.1-13.8c2-3.9,5-7.3,8.7-9.6c3.9-2.4,8.4-3.6,12.9-3.5c4.7-0.2,9.3,1,13.3,3.4c3.5,2.2,6.2,5.4,7.9,9.2
			c1.8,4.1,2.7,8.5,2.6,13c0,0.7,0,1.5,0,2.3c0,0.7-0.1,1.4-0.3,2.1h-38.3c0.2,2.9,1.3,5.7,3.1,8c1.8,2.2,4.1,3.9,6.7,4.9
			c2.9,1.1,5.9,1.7,9,1.7H405v8L391.8,99.9z M372.6,70.7H402c0-1.4-0.1-2.7-0.4-4.1c-0.3-1.5-0.8-2.9-1.4-4.2
			c-0.7-1.4-1.6-2.6-2.7-3.7c-1.2-1.2-2.6-2.1-4.1-2.7c-1.9-0.7-3.8-1.1-5.8-1c-2.1,0-4.3,0.4-6.2,1.4c-1.8,0.9-3.3,2.1-4.6,3.6
			c-1.3,1.5-2.3,3.2-2.9,5.1C373.1,66.9,372.7,68.8,372.6,70.7"/>
		<path id="Path_147" class="st1" d="M444.8,99.9c-5,0.1-9.9-1.1-14.2-3.4c-4-2.2-7.4-5.4-9.9-9.2c-2.4-3.9-3.7-8.5-3.6-13.1
			c-0.1-4.6,1.2-9.2,3.6-13.1c2.4-3.9,5.8-7.1,9.9-9.2c4.4-2.3,9.3-3.5,14.2-3.4h6.1v8h-6.4c-3.2-0.1-6.4,0.8-9.2,2.4
			c-2.7,1.5-4.9,3.7-6.5,6.4c-3.2,5.6-3.2,12.4,0,18c1.6,2.7,3.8,4.9,6.5,6.4c2.8,1.6,6,2.4,9.2,2.4h6.4v8L444.8,99.9z"/>
		<path id="Path_148" class="st1" d="M458.6,48.4h35.8v8h-35.8V48.4z M482.1,99.9c-7.4,0.6-14-4.9-14.6-12.3c-0.1-0.8-0.1-1.5,0-2.3
			V35.5h9.3v49.2c-0.1,1.9,0.6,3.8,1.9,5.3c1.4,1.4,3.3,2.1,5.2,2h10.4v8L482.1,99.9z"/>
		<path id="Path_149" class="st1" d="M540.4,99.9c-5.1,0-10.1-1-14.7-2.9c-4.3-1.8-8.2-4.3-11.5-7.6c-3.2-3.2-5.7-7-7.4-11.2
			c-3.4-8.8-3.4-18.5,0-27.3c1.7-4.2,4.2-8,7.4-11.2c3.3-3.3,7.2-5.9,11.5-7.6c4.7-1.9,9.7-2.9,14.7-2.9h9.1v8.6h-8.8
			c-7.1-0.1-14,2.7-19,7.7c-2.4,2.4-4.3,5.3-5.6,8.4c-2.7,6.8-2.7,14.4,0,21.1c2.6,6.4,7.6,11.5,14,14.1c3.4,1.4,7,2.1,10.6,2.1h8.8
			v8.6L540.4,99.9z"/>
		<path id="Path_150" class="st1" d="M557.2,99.9v-8.6h13.6V37.8h-13.6v-8.6H594v8.6h-13.5v53.5H594v8.6L557.2,99.9z"/>
		<path id="Path_151" class="st1" d="M63.4,76.4c-8.3,0-15-6.7-15-15c0-8.3,6.7-15,15-15c8.3,0,15,6.7,15,15v0
			C78.3,69.7,71.6,76.4,63.4,76.4C63.4,76.4,63.4,76.4,63.4,76.4"/>
		<path id="Path_152" class="st2" d="M96.3,61.4c0,18.2-14.8,33-33,33s-33-14.8-33-33c0-18.2,14.8-33,33-33
			C81.6,28.5,96.3,43.2,96.3,61.4z"/>
		<path id="Path_153" class="st2" d="M100.6,16.3C74.6-4.2,36.8,0.3,16.3,26.4s-16,63.8,10.1,84.3c17.1,13.5,40.2,16.6,60.3,8.2"/>
		<path id="Path_154" class="st1" d="M69.3,123.5c0-6.2,5-11.2,11.2-11.2s11.2,5,11.2,11.2s-5,11.2-11.2,11.2c0,0,0,0,0,0
			C74.4,134.8,69.3,129.7,69.3,123.5"/>
		<path id="Path_155" class="st1" d="M85.1,14.7c0-6.2,5-11.2,11.2-11.2s11.2,5,11.2,11.2c0,6.2-5,11.2-11.2,11.2c0,0,0,0,0,0
			C90.1,25.9,85.1,20.9,85.1,14.7"/>
		<path id="Path_156" class="st1" d="M28.3,10.5c4.6,2.6,6.1,8.5,3.5,13s-8.5,6.1-13,3.5c-4.6-2.6-6.1-8.5-3.5-13
			C17.9,9.5,23.8,7.9,28.3,10.5C28.3,10.5,28.3,10.5,28.3,10.5"/>
		<path id="Path_157" class="st1" d="M46.2,79.4c3.6,2.1,4.8,6.6,2.7,10.1s-6.6,4.8-10.1,2.7c-3.6-2.1-4.8-6.6-2.7-10.1c0,0,0,0,0,0
			C38.1,78.6,42.6,77.4,46.2,79.4C46.2,79.4,46.2,79.4,46.2,79.4"/>
	</g>
</g>
</svg>
