<?xml version="1.0" encoding="utf-8"?>
<!-- Generator: Adobe Illustrator 27.0.0, SVG Export Plug-In . SVG Version: 6.00 Build 0)  -->
<svg version="1.1" id="Layer_1" xmlns="http://www.w3.org/2000/svg" xmlns:xlink="http://www.w3.org/1999/xlink" x="0px" y="0px"
	 viewBox="0 0 1400 1400" style="enable-background:new 0 0 1400 1400;" xml:space="preserve">
<style type="text/css">
	.st0{fill:none;}
	.st1{fill:#991B1E;}
	.st2{fill:url(#SVGID_1_);}
	.st3{display:none;}
	.st4{display:inline;}
	.st5{fill:none;stroke:#000000;stroke-width:19.742;}
</style>
<g id="Layer_1_00000037679874486812452230000002083948625559098299_">
	<g>
		<path class="st0" d="M522.3,241.8h-397C92.6,241.8,66,268.3,66,301v237.2c0,32.7,26.6,59.2,59.2,59.2h397
			c32.7,0,59.2-26.6,59.2-59.2V301C581.5,268.3,554.9,241.8,522.3,241.8z"/>
		<path d="M522.3,222h-397c-43.5,0-79,35.4-79,79v237.2c0,43.5,35.4,79,79,79h228.9l168.4,146l-0.3-146c43.5,0,78.9-35.4,78.9-79
			V301C601.2,257.5,565.8,222,522.3,222z M581.5,538.2c0,32.7-26.6,59.2-59.2,59.2h-397c-32.7,0-59.2-26.6-59.2-59.2V301
			c0-32.7,26.6-59.2,59.2-59.2h397c32.7,0,59.2,26.6,59.2,59.2V538.2z"/>
	</g>
	<g>
		<path class="st0" d="M1170.5,163.9H773.6c-32.7,0-59.2,26.6-59.2,59.2v235.6c0,32.7,26.6,59.2,59.2,59.2h396.9
			c32.7,0,59.2-26.6,59.2-59.2V223.1C1229.8,190.4,1203.2,163.9,1170.5,163.9z"/>
		<path d="M1170.5,144.1H773.6c-43.5,0-79,35.4-79,79v235.6c0,43.5,35.4,79,79,79h3.6h0.1l6,157.4l159.3-157.4h0h227.8
			c43.5,0,79-35.4,79-79V223.1C1249.5,179.5,1214.1,144.1,1170.5,144.1z M1170.6,517.9h-397c-32.7,0-59.2-26.6-59.2-59.2V223.1
			c0-32.7,26.6-59.2,59.2-59.2h396.9c32.7,0,59.2,26.6,59.2,59.2v235.6h0.1C1229.8,491.4,1203.2,517.9,1170.6,517.9z"/>
	</g>
	<g>
		<path class="st0" d="M1210,714.8H813.1c-32.7,0-59.2,26.6-59.2,59.2v235.6c0,32.7,26.6,59.2,59.2,59.2H1210
			c32.7,0,59.2-26.6,59.2-59.2V774.1C1269.2,741.4,1242.7,714.8,1210,714.8z"/>
		<path d="M1210,695.1H813.1c-43.5,0-79,35.4-79,79v235.6c0,43.5,35.4,79,79,79h5h0l4.7,157.4l160.6-157.4h0.1H1210
			c43.5,0,79-35.4,79-79V774.1C1289,730.5,1253.6,695.1,1210,695.1z M1269.2,1009.7c0,32.7-26.6,59.2-59.2,59.2H813.1
			c-32.7,0-59.2-26.6-59.2-59.2V774.1c0-32.7,26.6-59.2,59.2-59.2H1210c32.7,0,59.2,26.6,59.2,59.2V1009.7z"/>
	</g>
	<path d="M592.3,778.4h-397c-43.5,0-79,35.4-79,79v237.2c0,43.5,35.4,79,79,79h230.3l167,157.2l-3.9-157.2h3.6c43.5,0,79-35.4,79-79
		V857.3C671.2,813.8,635.8,778.4,592.3,778.4z M651.5,1094.5c0,32.7-26.6,59.2-59.2,59.2h-397c-32.7,0-59.2-26.6-59.2-59.2V857.3
		c0-32.7,26.6-59.2,59.2-59.2h397c32.7,0,59.2,26.6,59.2,59.2V1094.5z"/>
	<g id="fF90ij_00000147919236716296590720000016906223811927466384_">
		
			<image style="overflow:visible;enable-background:new    ;" width="1187" height="307" id="fF90ij" xlink:href="550EE0A0C0EC0F44.png"  transform="matrix(0.3623 0 0 0.3623 171.3108 920.3284)">
		</image>
	</g>
	<g id="Layer_2_00000002345003680731727880000015040511464820500137_">
		<g id="Layer_3">
			<path class="st1" d="M1107.4,853.9l-10.7,61.1h-26.1c-5.9,0.2-10.9-4.5-10.9-10.4c0-0.8,0-1.7,0.2-2.5l3.8-22.3
				c1.5-7.4,7.9-12.7,15.2-13.1h13.1l1.8-10.5c0.3-1-0.2-2.2-1.2-2.5c-0.3-0.2-0.5-0.2-0.8-0.2h-17.9l2.3-13.1h20.4
				c5.9-0.2,10.7,4.4,11,10.2C1107.5,852,1107.5,853,1107.4,853.9z M1089.8,880h-10.5c-1.5,0-2.8,1-3,2.5l-3,17.2
				c-0.2,1.2,0.5,2.2,1.7,2.5c0.2,0,0.3,0,0.5,0h10.5L1089.8,880z"/>
			<path class="st1" d="M970.8,853.9l-8,45.7c-0.2,1.2,0.5,2.2,1.7,2.5c0.2,0,0.3,0,0.5,0h10.5l-2.3,13.1h-13.1
				c-5.9,0.2-10.7-4.4-11-10.2c0-1,0-1.8,0.3-2.8l12.9-74.1h13.1L973,841h13l-2.3,13.1h-12.9V853.9z"/>
			<path class="st1" d="M1017.5,853.9H1007c-1.5,0-2.7,1-3,2.5L993.7,915h-13.1l10.7-61.1c1.5-7.4,7.9-12.7,15.2-13.1h13.1
				L1017.5,853.9z"/>
			<path class="st1" d="M1061.4,853.9l-5.4,30.6h-26.1l-2.7,15.2c-0.3,1,0.3,2.2,1.5,2.3c0.2,0,0.3,0,0.5,0h20.6l-2.3,12.9h-22.8
				c-5.9,0.2-10.9-4.5-10.9-10.4c0-0.8,0-1.7,0.2-2.5l8.4-48.2c1.5-7.4,7.9-12.7,15.2-13.1h13.1c5.9-0.2,10.7,4.4,11,10.2
				C1061.7,852,1061.7,853,1061.4,853.9z M1048.1,856.2c0.2-1-0.3-2-1.3-2.2c-0.2,0-0.3,0-0.5,0h-8.5c-1.3,0-2.3,1-2.7,2.3
				l-2.7,15.2h13.1L1048.1,856.2z"/>
			<path class="st1" d="M873.4,853.9l-5.4,30.6h-26.3l-2.5,15.2c-0.2,1,0.3,2.2,1.5,2.3c0.2,0,0.3,0,0.5,0h20.6l-2.5,13.1h-22.8
				c-5.9,0.2-10.9-4.5-10.9-10.4c0-0.8,0-1.7,0.2-2.5l8.4-48.2c1.5-7.4,7.9-12.7,15.2-13.1h13.2c5.9-0.2,10.7,4.4,11,10.2
				C873.7,852,873.6,853,873.4,853.9z M860,856.2c0.2-1-0.3-2-1.3-2.2c-0.2,0-0.3,0-0.5,0h-8.5c-1.3,0-2.3,1-2.7,2.3l-2.8,15.1h13.1
				L860,856.2z"/>
			<path class="st1" d="M830.4,827.9l-15.6,89c-1.8,10-11.2,13.7-21.3,13.7h-12.9l3.2-13.7h14.7c2,0,3.7-1.5,4-3.5l15.1-85.7h12.7
				L830.4,827.9L830.4,827.9z"/>
			<path class="st1" d="M1170,840.6c5.9-0.2,10.7,4.4,11,10.2c0,1,0,1.8-0.3,2.8l-10.7,61.1h-13.1l10.2-58.6c0.3-1-0.3-2.2-1.5-2.5
				c-0.2,0-0.3,0-0.5,0h-10.5l-10.7,61.1h-13.1l10.2-58.6c0.3-1.2-0.3-2.2-1.5-2.5c-0.2,0-0.3,0-0.5,0h-10.5l-10.7,61.1h-13.1
				l10.7-61.1l2.3-13.1L1170,840.6L1170,840.6z"/>
			<path class="st1" d="M1195.9,841c1.5-7.4,7.9-12.7,15.2-13.1h21.4c7.2,0,10.7,5.7,9.4,12.9l-2.8,17.7c-1,9.2-4.5,12.7-11.7,12.7
				l-8.4,0.2c-14.4,0.2-22.9,7.5-24.1,15.6l-2.3,15.1h38.7l-2.3,13.1h-44.4c-6.2,0-6.4-3.2-5.4-9.7l3-18.2
				c6-29.6,33.8-28.3,44.2-28.3l2.7-15.7c0.3-1-0.3-2.2-1.5-2.5c-0.2,0-0.2,0-0.3,0h-19.1l-2.3,12.9h-12.1L1195.9,841z"/>
			<path class="st1" d="M933,853.9h16.6l2.3-13.1h-16.6c-4.2,0-8.4,1.2-11.9,3.5c-3.3,2.2-6.2,5-8.2,8.5c-2,3.3-3,7-2.8,10.9
				s1.5,7.4,3.8,10.4l15.1,16.9c1.7,2,1.7,4.9,0.3,6.9c-1.3,2.3-3.7,3.8-6.4,4h-19.9l-1.3,7.5c9.5,0.5,19.1,1.5,28.5,3.2
				c0.8-0.3,1.5-0.8,2.3-1.3c3.3-2.2,6.2-5.2,8.2-8.5c1.8-3.3,2.8-7,2.8-10.9c-0.2-3.8-1.5-7.5-4-10.4l-15.1-16.9
				c-1.7-2-1.7-4.9-0.3-7C928,855.5,930.3,854,933,853.9z"/>
			<path class="st1" d="M894.3,853.9h13.1l2.3-13.1h-13.1l2.3-12.9h-13.1L872.7,902c-0.7,3.5,0.3,7.2,2.7,9.7
				c7.2-1.5,14.7-2.3,22.1-2.3l1.3-7.4h-10.5c-1.2,0-2.2-0.8-2.2-2c0-0.2,0-0.3,0-0.5L894.3,853.9z"/>
			
				<linearGradient id="SVGID_1_" gradientUnits="userSpaceOnUse" x1="808.8386" y1="475.6334" x2="1201.0488" y2="550.6868" gradientTransform="matrix(1 0 0 -1 0 1447.8899)">
				<stop  offset="0" style="stop-color:#69090D"/>
				<stop  offset="0.18" style="stop-color:#6C0A0E"/>
				<stop  offset="0.3" style="stop-color:#750B11"/>
				<stop  offset="0.41" style="stop-color:#840E16"/>
				<stop  offset="0.5" style="stop-color:#9A121D"/>
				<stop  offset="0.59" style="stop-color:#B51726"/>
				<stop  offset="0.67" style="stop-color:#D71D31"/>
				<stop  offset="0.68" style="stop-color:#DC1E33"/>
				<stop  offset="0.75" style="stop-color:#DC2132"/>
				<stop  offset="0.81" style="stop-color:#DE2B30"/>
				<stop  offset="0.86" style="stop-color:#E03C2D"/>
				<stop  offset="0.91" style="stop-color:#E25428"/>
				<stop  offset="0.96" style="stop-color:#E67221"/>
				<stop  offset="1" style="stop-color:#EA941A"/>
			</linearGradient>
			<path class="st2" d="M782.3,961.8c41.8-23.1,79-40.3,141.1-30c30,4.7,59.6,11.7,89.2,18.1c37.8,8,76,15.2,114.5,9
				c22.9-3.7,39.5-10.5,56.7-26.9c11.9-11.2,19.2-30.3,21.8-41.5c-2.8,5.2-5.9,12.1-9.9,18.1c-16.4,24.3-40.7,33.3-68.1,35.7
				c-25.9,2.2-51.4-1.3-76.8-6.5c-35-7.4-69.8-15.9-104.9-22.8C893,906.6,867.2,899.2,782.3,961.8z"/>
		</g>
	</g>
	<g id="khokDC_00000065770116199130299270000015806804550489230233_">
		
			<image style="overflow:visible;enable-background:new    ;" width="632" height="351" id="khokDC" xlink:href="550EE0A0C0EC0F47.png"  transform="matrix(0.7348 0 0 0.7348 91.5681 274.9865)">
		</image>
	</g>
	<g id="qm8p46_00000075156817732169720890000011896174981794022810_">
		
			<image style="overflow:visible;enable-background:new    ;" width="431" height="433" id="qm8p46" xlink:href="550EE0A0C0EC0F42.png"  transform="matrix(0.6658 0 0 0.6658 819.6869 188.869)">
		</image>
	</g>
</g>
<g id="frsmes" class="st3">
	<g id="AG-jetstream2_00000178905724076332265060000009379971051702724247_" transform="translate(0 39.472)" class="st4">
		<path class="st5" d="M125.3,192.4h397c38.2,0,69.1,30.9,69.1,69.1v237.2c0,38.2-30.9,69.1-69.1,69.1h-397
			c-38.2,0-69.1-30.9-69.1-69.1V261.5C56.2,223.4,87.1,192.4,125.3,192.4z"/>
	</g>
	<g id="OOKAMII_00000052096132016238208350000016131533707891802247_" transform="translate(328.427)" class="st4">
		<path class="st5" d="M445.2,154h396.9c38.2,0,69.1,30.9,69.1,69.1v235.6c0,38.2-30.9,69.1-69.1,69.1H445.2
			c-38.2,0-69.1-30.9-69.1-69.1V223.1C376.1,184.9,407.1,154,445.2,154z"/>
	</g>
	
		<g id="Pegasus_Affinity_Group_00000178174836014983256610000003394463726500166820_" transform="translate(348.416 279.092)" class="st4">
		<path class="st5" d="M464.7,425.9h396.9c38.2,0,69.1,30.9,69.1,69.1v235.6c0,38.2-30.9,69.1-69.1,69.1H464.7
			c-38.2,0-69.1-30.9-69.1-69.1V495C395.6,456.8,426.5,425.9,464.7,425.9z"/>
	</g>
	
		<g id="ACCESS_Tools-_OpenOndemand_00000149341285412552906210000010647855065346721706_" transform="translate(35.452 321.273)" class="st4">
		<path class="st5" d="M159.8,467h397c38.2,0,69.1,30.9,69.1,69.1v237.2c0,38.2-30.9,69.1-69.1,69.1h-397
			c-38.2,0-69.1-30.9-69.1-69.1V536.1C90.7,497.9,121.6,467,159.8,467z"/>
	</g>
</g>
</svg>
