<?xml version="1.0" encoding="UTF-8"?>
<svg id="Layer_2" data-name="Layer 2" xmlns="http://www.w3.org/2000/svg" viewBox="0 0 409 1280">
  <defs>
    <style>
      .cls-1 {
        fill: #ccc;
      }
    </style>
  </defs>
  <circle class="cls-1" cx="56.42" cy="458.15" r="2.6"/>
  <circle class="cls-1" cx="92.23" cy="458.15" r="2.6"/>
  <circle class="cls-1" cx="86.37" cy="452.52" r="2.22"/>
  <circle class="cls-1" cx="62.34" cy="452.52" r="2.22"/>
  <circle class="cls-1" cx="74.36" cy="452.52" r="2.22"/>
  <circle class="cls-1" cx="68.5" cy="446.36" r="1.89"/>
  <circle class="cls-1" cx="80.4" cy="446.36" r="1.89"/>
  <circle class="cls-1" cx="74.36" cy="440.5" r="1.89"/>
  <circle class="cls-1" cx="104.22" cy="458.15" r="2.6"/>
  <circle class="cls-1" cx="140.02" cy="458.15" r="2.6"/>
  <circle class="cls-1" cx="134.17" cy="452.52" r="2.22"/>
  <circle class="cls-1" cx="110.14" cy="452.52" r="2.22"/>
  <circle class="cls-1" cx="122.15" cy="452.52" r="2.22"/>
  <circle class="cls-1" cx="116.3" cy="446.36" r="1.89"/>
  <circle class="cls-1" cx="128.19" cy="446.36" r="1.89"/>
  <circle class="cls-1" cx="122.15" cy="440.5" r="1.89"/>
  <circle class="cls-1" cx="152.16" cy="458.15" r="2.6"/>
  <circle class="cls-1" cx="187.97" cy="458.15" r="2.6"/>
  <circle class="cls-1" cx="182.11" cy="452.52" r="2.22"/>
  <circle class="cls-1" cx="158.08" cy="452.52" r="2.22"/>
  <circle class="cls-1" cx="170.1" cy="452.52" r="2.22"/>
  <circle class="cls-1" cx="164.24" cy="446.36" r="1.89"/>
  <circle class="cls-1" cx="176.13" cy="446.36" r="1.89"/>
  <circle class="cls-1" cx="170.1" cy="440.5" r="1.89"/>
  <circle class="cls-1" cx="92.52" cy="446.68" r="2.22"/>
  <circle class="cls-1" cx="98.26" cy="452.52" r="2.22"/>
  <circle class="cls-1" cx="98.26" cy="440.5" r="1.89"/>
  <circle class="cls-1" cx="140.11" cy="446.7" r="2.22"/>
  <circle class="cls-1" cx="145.84" cy="452.54" r="2.22"/>
  <circle class="cls-1" cx="145.84" cy="440.52" r="1.89"/>
  <circle class="cls-1" cx="152.34" cy="446.36" r="2.22"/>
  <circle class="cls-1" cx="116.3" cy="458.15" r="2.6"/>
  <circle class="cls-1" cx="128.19" cy="458.15" r="2.6"/>
  <circle class="cls-1" cx="164.15" cy="458.15" r="2.6"/>
  <circle class="cls-1" cx="176.04" cy="458.15" r="2.6"/>
  <circle class="cls-1" cx="32.51" cy="458.15" r="2.6"/>
  <circle class="cls-1" cx="38.43" cy="452.52" r="2.22"/>
  <circle class="cls-1" cx="44.59" cy="446.36" r="1.89"/>
  <circle class="cls-1" cx="56.48" cy="446.36" r="1.89"/>
  <circle class="cls-1" cx="50.44" cy="440.5" r="1.89"/>
  <circle class="cls-1" cx="44.47" cy="458.15" r="2.6"/>
  <circle class="cls-1" cx="194.39" cy="452.2" r="2.22"/>
  <circle class="cls-1" cx="188.53" cy="446.04" r="1.89"/>
  <circle class="cls-1" cx="200.43" cy="446.04" r="1.89"/>
  <circle class="cls-1" cx="194.39" cy="440.19" r="1.89"/>
  <circle class="cls-1" cx="26.09" cy="452.2" r="2.22"/>
  <circle class="cls-1" cx="26.09" cy="440.19" r="1.89"/>
</svg>