<?xml version="1.0" encoding="utf-8"?>
<!-- Generator: Adobe Illustrator 26.5.0, SVG Export Plug-In . SVG Version: 6.00 Build 0)  -->
<svg version="1.1" id="Layer_1" xmlns="http://www.w3.org/2000/svg" xmlns:xlink="http://www.w3.org/1999/xlink" x="0px" y="0px"
	 viewBox="0 0 21 21" style="enable-background:new 0 0 21 21;" xml:space="preserve">
<style type="text/css">
	.st0{fill:#FFFFFF;}
	.st1{fill:#C42032;}
	.st2{enable-background:new    ;}
</style>
<circle class="st0" cx="10.5" cy="10.5" r="10.5"/>
<g id="Ellipse_32">
	<path class="st1" d="M10.5,21C4.7,21,0,16.3,0,10.5C0,4.7,4.7,0,10.5,0C16.3,0,21,4.7,21,10.5C21,16.3,16.3,21,10.5,21z M10.5,2
		C5.8,2,2,5.8,2,10.5c0,4.7,3.8,8.5,8.5,8.5c4.7,0,8.5-3.8,8.5-8.5C19,5.8,15.2,2,10.5,2z"/>
</g>
<g class="st2">
	<path class="st1" d="M5.7,15.5v-1.9l7.1-3l-7.1-3V5.5l9.7,4.1v1.6L5.7,15.5z"/>
</g>
</svg>
