<?xml version="1.0" encoding="utf-8"?>
<!-- Generator: Adobe Illustrator 26.5.0, SVG Export Plug-In . SVG Version: 6.00 Build 0)  -->
<svg version="1.1" id="Layer_1" xmlns="http://www.w3.org/2000/svg" xmlns:xlink="http://www.w3.org/1999/xlink" x="0px" y="0px"
	 viewBox="0 0 510.7 473" style="enable-background:new 0 0 510.7 473;" xml:space="preserve">
<g>
	<path d="M166.1,158.8c6,2.3,10.5,7.4,12.3,13.6l17.3-17.3H247c5.1,0,3.5,0.3,42-38.2c2.5-2.5,3.1-5.4,2.6-8
		c-4.6-1.1-8.5-3.7-11.3-7.3c-1.4,0.4-2.9,1.1-4.2,2.5l-32.9,32.9c-50.1,0-53.4-1.7-57.8,2.7C184.4,140.5,175,149.8,166.1,158.8z
		 M410.5,233.2c2.7-1.3,5.7-2.2,9-2.2c2.5,0,4.9,0.5,7.2,1.4c0.5-1.1,0.8-2.5,0.8-4v-91.6c0-5.1-0.2-4-35-38.8
		c-0.6-0.6-1.2-1.1-1.9-1.5c-2.3,5.6-7,10-12.8,11.8c0.4,0.9,1,1.7,1.8,2.6l29.6,29.6v87.8C409.3,230.3,409.8,231.9,410.5,233.2z
		 M144.6,192.7c-1.1-1-2.1-2.1-2.9-3.3C142.3,190.7,143.3,191.8,144.6,192.7z M484.9,102.2c-84.5-84.5-79.1-80.6-84.3-80.6H177
		c1,2.5,1.6,5.1,1.6,8c0,3.8-1.1,7.2-2.8,10.3h221l72.6,72.6v21.3c3.3-2.4,7.4-3.8,11.8-3.8c2.3,0,4.4,0.5,6.5,1.1v-22.4
		C487.5,106.3,486.6,103.9,484.9,102.2z M374.3,154c0-5-4.1-9.1-9.1-9.1c0,0-68.8-0.1-68.8-0.1c-5,0-4.1,0.3-34.9,31.2H179
		c0.1,0.6,0.2,1.2,0.2,1.9c0,6.7-3.3,12.6-8.3,16.4c98.8,0.2,96.7,1.4,100.8-2.7l28.5-28.5l55.9,0.1v18.6l-31.1,31.1
		c-1.8,1.8-2.6,3.8-2.7,5.8c4.9,1.7,8.8,5.2,11.2,9.6c1.5-0.4,3-1.1,4.4-2.5l33.8-33.8C375.8,187.7,374.3,183.5,374.3,154z
		 M221.2,237.9c0-3.4,0.9-6.6,2.4-9.5H60.8l-15.4-15.4c-3.8,4.5-9.4,7.5-15.7,7.5c-0.9,0-1.7-0.2-2.5-0.3c0.4,0.6,0.8,1.2,1.4,1.8
		l22,22c4.3,4.3-3.3,2.7,172.6,2.7C221.9,244,221.2,241,221.2,237.9z M485.9,239.5c-1.5,0.4-3.1,0.6-4.8,0.6c-3.4,0-6.6-0.9-9.5-2.4
		c-1.6,1.5-2.7,3.7-2.7,6.6v23.6l-33.4,33.4h-31.4c2,3.2,3.3,7,3.3,11c0,2.6-0.5,5-1.4,7.2h33.3c5.2,0,3.3,0.5,45.2-41.4
		c4.2-4.2,2.7-8.7,2.7-33.8C487.2,242.4,486.7,240.8,485.9,239.5z M370.6,375.5c-2,6.1-6.6,11-12.7,13.1l29.3,29.3v46
		c0,12,18.2,12.1,18.2,0c0-48.4,1.7-51.9-2.7-56.2L370.6,375.5z M200.2,302.5l-13.7-13.7c-0.7-0.7-1.4-1.2-2.1-1.6
		c-1.8,6-6.2,10.8-12,13c0.3,0.5,0.7,1,1.2,1.5c17.4,17.4,17.9,19,22.8,19h99.5c-1.1-2.6-1.8-5.4-1.8-8.4c0-3.6,1-6.9,2.6-9.9H200.2
		z M112.3,140.9c1.9-0.2,3.8-1.1,5.3-2.6l38.7-38.7h48.1c-1.9-3.1-3.1-6.7-3.1-10.6c0-2.7,0.6-5.2,1.5-7.6h-50.4
		c-5.1,0-2.7-1.1-47.9,44.1c-1.7,1.7-2.6,3.9-2.6,6.1C106.5,133.3,110,136.7,112.3,140.9z M29.6,179.4c2.8,0,5.5,0.6,8,1.6v-54.1
		l47.1-47.1c0,0,0,0,0.1-0.1C79,77.3,74.6,72.2,72.9,66c-0.4,0.3-0.8,0.6-1.1,0.9c-54,54.1-52.4,51-52.4,56.2v59.1
		C22.4,180.4,25.9,179.4,29.6,179.4z"/>
	<path d="M92.7,90.4c16.3,0,29.6-13.3,29.6-29.6s-13.3-29.6-29.6-29.6S63.1,44.5,63.1,60.8S76.4,90.4,92.7,90.4z M104.1,60.8
		c0,15.1-22.8,15.1-22.8,0C81.3,45.7,104.1,45.7,104.1,60.8z M158.1,59.3c16.3,0,29.6-13.3,29.6-29.6S174.4,0,158.1,0
		s-29.6,13.3-29.6,29.6S141.7,59.3,158.1,59.3z M169.5,29.6c0,15.1-22.8,15.1-22.8,0C146.7,14.6,169.5,14.6,169.5,29.6z M94.2,120.8
		c-16.3,0-29.6,13.3-29.6,29.6s13.3,29.6,29.6,29.6s29.6-13.3,29.6-29.6S110.6,120.8,94.2,120.8z M82.8,150.5
		c0-15.1,22.8-15.1,22.8,0C105.6,165.6,82.8,165.5,82.8,150.5z M158.6,207.5c16.3,0,29.6-13.3,29.6-29.6s-13.3-29.6-29.6-29.6
		S129,161.5,129,177.8S142.3,207.5,158.6,207.5z M170,177.8c0,15.1-22.8,15.1-22.8,0C147.2,162.8,170,162.8,170,177.8z M481.1,180.1
		c16.3,0,29.6-13.3,29.6-29.6s-13.3-29.6-29.6-29.6c-16.3,0-29.6,13.3-29.6,29.6S464.7,180.1,481.1,180.1z M492.5,150.5
		c0,15.1-22.8,15.1-22.8,0C469.7,135.4,492.5,135.4,492.5,150.5z M481.1,190c-16.3,0-29.6,13.3-29.6,29.6s13.3,29.6,29.6,29.6
		c16.3,0,29.6-13.3,29.6-29.6S497.4,190,481.1,190z M469.7,219.6c0-15.1,22.8-15.1,22.8,0C492.5,234.7,469.7,234.7,469.7,219.6z
		 M241.7,208.2c-16.3,0-29.6,13.3-29.6,29.6s13.3,29.6,29.6,29.6s29.6-13.3,29.6-29.6S258,208.2,241.7,208.2z M230.3,237.9
		c0-15.1,22.8-15.1,22.8,0C253.1,253,230.3,252.9,230.3,237.9z M285.8,237.9c0,16.3,13.3,29.6,29.6,29.6c16.3,0,29.6-13.3,29.6-29.6
		s-13.3-29.6-29.6-29.6C299.1,208.2,285.8,221.5,285.8,237.9z M315.4,249.3c-15.1,0-15.1-22.8,0-22.8
		C330.5,226.5,330.5,249.3,315.4,249.3z M164.9,251.6c-16.3,0-29.6,13.3-29.6,29.6c0,16.3,13.3,29.6,29.6,29.6s29.6-13.3,29.6-29.6
		C194.6,264.9,181.3,251.6,164.9,251.6z M153.5,281.2c0-15.1,22.8-15.1,22.8,0C176.3,296.3,153.5,296.3,153.5,281.2z M251.6,88.9
		c0-16.3-13.3-29.6-29.6-29.6s-29.6,13.3-29.6,29.6s13.3,29.6,29.6,29.6S251.6,105.3,251.6,88.9z M210.5,88.9
		c0-15.1,22.8-15.1,22.8,0C233.3,104,210.5,104,210.5,88.9z M326,88.9c0-16.3-13.3-29.6-29.6-29.6c-16.3,0-29.6,13.3-29.6,29.6
		s13.3,29.6,29.6,29.6C312.7,118.6,326,105.3,326,88.9z M285,88.9c0-15.1,22.8-15.1,22.8,0C307.8,104,285,104,285,88.9z
		 M371.6,118.6c16.3,0,29.6-13.3,29.6-29.6S388,59.3,371.6,59.3c-16.3,0-29.6,13.3-29.6,29.6S355.3,118.6,371.6,118.6z M383,88.9
		c0,15.1-22.8,15.1-22.8,0C360.2,73.8,383,73.9,383,88.9z M386.8,282.7c-16.3,0-29.6,13.3-29.6,29.6c0,16.3,13.3,29.6,29.6,29.6
		c16.3,0,29.6-13.3,29.6-29.6C416.5,296,403.2,282.7,386.8,282.7z M375.4,312.4c0-15.1,22.8-15.1,22.8,0
		C398.2,327.4,375.4,327.4,375.4,312.4z M419.5,221.9c-16.3,0-29.6,13.3-29.6,29.6s13.3,29.6,29.6,29.6c16.3,0,29.6-13.3,29.6-29.6
		S435.9,221.9,419.5,221.9z M408.1,251.6c0-15.1,22.8-15.1,22.8,0C430.9,266.6,408.1,266.6,408.1,251.6z M344.3,312.4
		c0-16.3-13.3-29.6-29.6-29.6c-16.3,0-29.6,13.3-29.6,29.6c0,16.3,13.3,29.6,29.6,29.6C331,342,344.3,328.7,344.3,312.4z
		 M303.2,312.4c0-15.1,22.8-15.1,22.8,0C326,327.4,303.2,327.4,303.2,312.4z M351.1,339.7c-16.3,0-29.6,13.3-29.6,29.6
		c0,16.3,13.3,29.6,29.6,29.6c16.3,0,29.6-13.3,29.6-29.6C380.8,353,367.5,339.7,351.1,339.7z M339.7,369.4c0-15.1,22.8-15.1,22.8,0
		C362.5,384.4,339.7,384.4,339.7,369.4z M29.6,170.2C13.3,170.2,0,183.5,0,199.9s13.3,29.6,29.6,29.6s29.6-13.3,29.6-29.6
		S46,170.2,29.6,170.2z M18.2,199.9c0-15.1,22.8-15.1,22.8,0C41,215,18.2,214.9,18.2,199.9z"/>
</g>
</svg>
