<?xml version="1.0" encoding="utf-8"?>
<!-- Generator: Adobe Illustrator 26.5.0, SVG Export Plug-In . SVG Version: 6.00 Build 0)  -->
<svg version="1.1" id="Layer_2" xmlns="http://www.w3.org/2000/svg" xmlns:xlink="http://www.w3.org/1999/xlink" x="0px" y="0px"
	 viewBox="0 0 619 77.4" style="enable-background:new 0 0 619 77.4;" xml:space="preserve">
<style type="text/css">
	.st0{fill:#CEDAEC;}
	.st1{fill:#CFDBEC;}
	.st2{fill:#CFDAEC;}
	.st3{fill:#D6D8E8;}
	.st4{fill:#D3DAEC;}
	.st5{fill:#DBD8E8;}
	.st6{fill:#D8D7E7;}
	.st7{fill:#DDD7E6;}
	.st8{fill:#E0D5E5;}
	.st9{fill:#E1D3E3;}
	.st10{fill:#E4D2E2;}
	.st11{fill:#E5D2E2;}
	.st12{fill:#E9D1E0;}
	.st13{fill:#E8D1E1;}
	.st14{fill:#ECD0DF;}
	.st15{fill:#EDCFDE;}
	.st16{fill:#EFD0DF;}
	.st17{fill:#EFCFDC;}
	.st18{fill:#EFCFDA;}
	.st19{fill:#EFCFD9;}
	.st20{fill:#EFCFDD;}
	.st21{fill:#EFD0D8;}
	.st22{fill:#DED5E5;}
	.st23{fill:#D0DAEC;}
	.st24{fill:#D4D8EA;}
</style>
<circle class="st0" cx="6.7" cy="6.7" r="6.7"/>
<circle class="st1" cx="28.5" cy="70.7" r="6.7"/>
<circle class="st0" cx="68.4" cy="70.7" r="6.7"/>
<circle class="st0" cx="110.5" cy="70.7" r="6.7"/>
<circle class="st0" cx="48.7" cy="49.4" r="6.7"/>
<circle class="st2" cx="131.2" cy="49.4" r="6.7"/>
<circle class="st3" cx="216.3" cy="49.4" r="6.7"/>
<circle class="st0" cx="5.7" cy="49.4" r="5.7"/>
<circle class="st0" cx="69.4" cy="28.5" r="5.7"/>
<circle class="st1" cx="90" cy="7.7" r="5.7"/>
<circle class="st4" cx="174.1" cy="7.7" r="5.7"/>
<circle class="st5" cx="257.6" cy="7.7" r="5.7"/>
<circle class="st0" cx="111.3" cy="28.5" r="5.7"/>
<circle class="st6" cx="236" cy="70.7" r="6.7"/>
<circle class="st7" cx="275.9" cy="70.7" r="6.7"/>
<circle class="st8" cx="317.9" cy="70.7" r="6.7"/>
<circle class="st9" cx="338.7" cy="49.4" r="6.7"/>
<circle class="st8" cx="318.7" cy="28.5" r="5.7"/>
<circle class="st10" cx="360.8" cy="70.7" r="6.7"/>
<circle class="st11" cx="381.5" cy="49.4" r="6.7"/>
<circle class="st9" cx="340.3" cy="7.7" r="5.7"/>
<circle class="st10" cx="361.6" cy="28.5" r="5.7"/>
<circle class="st12" cx="423.6" cy="49.4" r="6.7"/>
<circle class="st13" cx="403.7" cy="28.5" r="5.7"/>
<circle class="st14" cx="445.8" cy="70.7" r="6.7"/>
<circle class="st15" cx="466.5" cy="49.4" r="6.7"/>
<circle class="st12" cx="425.3" cy="7.7" r="5.7"/>
<circle class="st14" cx="446.6" cy="28.5" r="5.7"/>
<circle class="st16" cx="487" cy="28.5" r="5.7"/>
<circle class="st17" cx="529" cy="70.7" r="6.7"/>
<circle class="st16" cx="487" cy="70.7" r="6.7"/>
<circle class="st18" cx="549.8" cy="49.4" r="6.7"/>
<circle class="st19" cx="570.3" cy="70.7" r="6.7"/>
<circle class="st19" cx="591" cy="49.4" r="6.7"/>
<circle class="st20" cx="508.6" cy="7.7" r="5.7"/>
<circle class="st17" cx="529.8" cy="28.5" r="5.7"/>
<circle class="st19" cx="570.5" cy="28.5" r="5.7"/>
<circle class="st19" cx="592" cy="7.7" r="5.7"/>
<circle class="st21" cx="613.3" cy="28.5" r="5.7"/>
<circle class="st4" cx="174.1" cy="49.4" r="5.7"/>
<circle class="st22" cx="297.8" cy="49.4" r="6.7"/>
<circle class="st5" cx="257.6" cy="49.4" r="5.7"/>
<circle class="st23" cx="152.1" cy="28.5" r="5.7"/>
<circle class="st24" cx="194.7" cy="28.5" r="5.7"/>
<circle class="st6" cx="236.5" cy="28.5" r="5.7"/>
</svg>
