<?xml version="1.0" encoding="utf-8"?>
<!-- Generator: Adobe Illustrator 26.5.0, SVG Export Plug-In . SVG Version: 6.00 Build 0)  -->
<svg version="1.1" id="Layer_1" xmlns="http://www.w3.org/2000/svg" xmlns:xlink="http://www.w3.org/1999/xlink" x="0px" y="0px"
	 viewBox="0 0 300 200" style="enable-background:new 0 0 300 200;" xml:space="preserve">
<style type="text/css">
	.st0{fill:#FFFFFF;stroke:#000000;stroke-width:8;}
	.st1{fill:#FFFFFF;}
	.st2{fill:none;}
</style>
<g>
	<path d="M114.5,30.9H70.6c-4.2,0-7.6,3.4-7.6,7.6v17.8c0,4.2,3.4,7.6,7.6,7.6h25.6l18.3,17.2l-0.4-17.2h0.4c4.2,0,7.6-3.4,7.6-7.6
		V38.5C122.2,34.3,118.7,30.9,114.5,30.9z M111.4,52.7H73.3c-0.8,0-1.4-0.6-1.4-1.4s0.6-1.4,1.4-1.4h38.1c0.8,0,1.4,0.6,1.4,1.4
		S112.2,52.7,111.4,52.7z M111.4,43.4H73.3c-0.8,0-1.4-0.6-1.4-1.4s0.6-1.4,1.4-1.4h38.1c0.8,0,1.4,0.6,1.4,1.4
		S112.2,43.4,111.4,43.4z"/>
</g>
<g>
	<path d="M164.9,16.7v21.2c0,5,4.1,9.1,9.1,9.1h0.5L174,67.5L195.8,47h30.5c5,0,9.1-4.1,9.1-9.1V16.7c0-5-4.1-9.1-9.1-9.1H174
		C169,7.6,164.9,11.7,164.9,16.7z M176,31.9c0-0.9,0.8-1.7,1.7-1.7H223c0.9,0,1.7,0.8,1.7,1.7s-0.8,1.7-1.7,1.7h-45.3
		C176.8,33.6,176,32.9,176,31.9z M176,20.8c0-0.9,0.8-1.7,1.7-1.7H223c0.9,0,1.7,0.8,1.7,1.7s-0.8,1.7-1.7,1.7h-45.3
		C176.8,22.5,176,21.7,176,20.8z"/>
</g>
<circle cx="148.9" cy="89.7" r="28.2"/>
<circle cx="206.4" cy="98.1" r="18.7"/>
<circle cx="93.5" cy="98.1" r="18.7"/>
<g>
	<path class="st2" d="M109.8,185.8c-2.5,0-5,0-7.5,0h94.6c0,0,0,0-0.1,0C167.8,185.8,138.8,185.8,109.8,185.8z"/>
	<path d="M109.8,185.8c29,0,58,0,87,0c0,0,0,0,0.1,0h2.8c0-6.4,0-12.8,0-19.2c0-0.7-1.1-12.5-1.7-15.5c-1.2-5.8-4.1-10.5-7.3-15
		c-0.8-1.1-1.8-2.2-2.8-3.1c-3.9-3.3-4.7-4.1-8.1-6.7c-1.7-1.2-3.8-1.7-5.7-2.5c-3.9-1.7-8-2.2-12.1-2.2c-1.5,0-2.2,0.6-2.9,2.1
		c-2.2,5.1-4.5,10.2-6.8,15.3c-1.1,2.5-2.3,5-3.7,8c-1.5-3.3-2.8-6.3-4.1-9.3c-1.9-4.1-3.8-8.2-5.6-12.4c-1.1-2.6-2.5-4.2-5.2-3.6
		c-1.9,0.4-3.9,0.4-5.7,0.8c-2.3,0.5-4.7,1.1-6.9,2c-1.9,0.8-3.8,2.1-5.5,3.3c-1.9,1.3-3.8,2.5-5.4,4.2c-2.2,2.3-4.1,5-6,7.7
		c-1.1,1.6-2.1,3.4-2.9,5.3c-0.8,1.8-1.4,3.7-1.9,5.6c-0.7,2.6-1.3,4.8-1.8,8c-1.2,9-0.1,18.2-0.2,27.3h5
		C104.8,185.7,107.3,185.8,109.8,185.8z"/>
	<path d="M244.5,144.9c-0.1-1.3-0.7-4.1-1.2-6.2c-0.4-1.5-1.4-4.2-2.7-6.3c-1.5-2.3-2.8-4.8-4.8-6.6c-1.5-1.4-5.6-3.8-8-5.3
		c-3.9-2.3-8.3-2.5-12.6-2.3c-0.8,0-1.9,0.9-2.3,1.6c-2.3,4.4-4.5,8.9-6.9,13.7c-0.2-0.8-4.3-9-6.1-12.9c-0.9-1.9-2.2-2.9-4.5-2.6
		c-3.3,0.5-6.7,0.9-10,1.3c-3.2,1-6.3,2-5.9,2.2c5,1.9,9.2,5.1,13.2,8.5c1.9,1.6,3.6,3.7,5,5.8c1.9,2.9,3.2,6,4.5,9.2
		c2.3,5.6,2.6,10.2,3,18.1c0,0,4.4,0,10.1,0c8.9,0,20.4,0.2,29.3,0c0.3,0,0.1-0.7,0.1-2.8C244.6,155.1,244.9,150,244.5,144.9z"/>
	<path d="M92.4,163c0.2-1.7,0.3-4.1,0.5-6c0.6-4.6,2.6-11.9,3.5-13.5c2.4-4.3,4.2-8.1,7.5-11.6c3.2-3.5,6.8-6.5,11-8.7
		c1.7-0.9,3.3-1.8,5-2.7c-1.3-0.8-11.4-2.3-13.5-2.8c-1.9-0.4-4.5,0.6-5.2,2.2c-1.4,2.9-2.8,5.7-4.3,8.6c-0.8,1.5-1.6,3-2.5,4.7
		c-0.7-1.4-1.2-2.4-1.7-3.5c-1.5-2.8-3.1-5.6-4.4-8.5c-1.1-2.5-1.5-3-4.2-3c-4.7,0-9,1.2-13.2,3.6c-5.7,3.2-9.4,7.9-12.2,13.5
		c-1.8,3.5-2.3,7.5-2.3,11.6c0,4.2,0,8.5,0,12.7c0,2.6,0.9,3.6,3.5,3.6c8.6,0,17.2,0,25.8,0C86.3,163,92,163,92.4,163z"/>
</g>
</svg>
