<svg enable-background="new 0 0 300 200" viewBox="0 0 300 200" xmlns="http://www.w3.org/2000/svg" xmlns:xlink="http://www.w3.org/1999/xlink"><clipPath id="a"><path d="m7.2 15.5h285.6v173.7h-285.6z"/></clipPath><path d="m37.5 48.5h1.3v40h-1.3z" transform="matrix(.04539781 -.999 .999 .04539781 -32.0174 103.4885)"/><path d="m43 25.9h1.3v48.3h-1.3z" transform="matrix(.7997 -.6004 .6004 .7997 -21.3419 36.2176)"/><path d="m175.3 95.9.2-3 1.3-.1.3 2.1.6-.3-.5 2.6-1.3.2z"/><path d="m192.2 107.9-9.6-.8-4.7-11.3-2.6.9 2.5 15.6 15 2.7z"/><path d="m55.1 90-.4-3h-1.3l-.2 2.1-.6-.3.7 2.5 1.4.1z"/><path d="m36.4 104.8 13.8-2.7 2.4-12 2.7.6-.8 16.7-13.8 4.6z"/><g clip-path="url(#a)"><path d="m93.6 180.8c-.2-.3-.6-.5-1-.4s-.7.3-.9.7c-.1.2-.1.5-.2.7-.1 1.3-.1 4.4 1.6 4.8.7.1 1.4-.3 1.5-1 .3-1.7-.1-3.4-1-4.8"/><path d="m94.2 161.1-.1 8c.1 3.5-.4 7.1-.3 10.6.1.8.1 1.7 0 2.5-.2.8-.8.9-1.5.5-.9-.5-.7-1.8-.9-2.7-.4-2.5-.9-5-1.3-7.5-.2-1.2.2-2.9.1-4.2l-1.3-6.7z"/><path d="m85.1 148.3 3.5 15.4.7 14.5 5.5-.1 1.5-40.6-10.6.2z"/><path d="m101.4 180.5c-.3-.3-.7-.4-1-.4-.4.1-.7.3-.8.7-.1.2-.1.5-.1.7-.1 1.3.1 4.4 1.8 4.8.7.1 1.4-.4 1.5-1.1.1-1.6-.3-3.3-1.4-4.7"/><path d="m98.5 162.2.5 7.9c0 2.2.3 4.4.6 6.6.2 2-.1 4.2.9 6 .3.6 1 1 1.5.3.4-.5.2-1.5.2-2.1.3-2.5.6-5 .9-7.5.2-1.2-.4-2.9-.3-4.2l1-6.7z"/><path d="m105.5 147.3.4 14.9-2.3 15.1-5.6.2.2-16.3-3-13.6-1-8.9 8.9-1z"/><path d="m98.5 107.1-9.6-.2-5.5 10.3 2 9.6.4 11.5 13.6.2 4.5-.7-1.2-12.3.7-16.5z"/><path d="m85.7 133.8-.4 1.6 2.2 1.8 1.7-.8.5-1.9-1.4-.5.1-.4-.4-.5z"/><path d="m88.9 107.3-11.7 12.8-1.8 5.2 9.5 10 2.9-1.9-6.1-8.4 5.8-4.3z"/><path d="m98.1 113.4 5 9.9 5.4 1.1 10.3-8.7-2.3-2.6-9.2 5.1-4.9-9.1z"/><path d="m97.9 99.1c-1.4-4.2-7-2.6-8.1 1.1-.6 2.7 1 5.4 3.7 6.3v.3c0 .4 0 .8.1 1.2.8 0 1.7-.1 2.5-.3.1 0 .2 0 .2-.1.1-.1-.1-.5-.1-.7l-.1-.5c1.2-.7 2.1-1.8 2.2-3.2.2-1.5.1-2.8-.4-4.1"/><path d="m94.3 95.3c-.3.3-.4.7-.5 1.1-.1.2-.1.5 0 .7.2 1 1.1.9 1.9 1.2.9.4 1.7 1 2.2 1.9.6 1.3.6 2.9.1 4.3-.1.5-.3 1.2 0 1.6.5.4 1.2.4 1.7.2.4-.2.8-.6 1.2-.7.5-.1 1.1.1 1.4-.3 0-.1.1-.3.2-.4.3-.4.9.1 1.3-.2.2-.2.3-.5.2-.8s-.2-.6-.2-.9c.1-.2.2-.5.3-.7.2-.5.1-1-.2-1.4-.6-.7-1.8-.6-2.4-1.2-.3-.4-.5-.8-.6-1.3s-.3-.9-.6-1.3c-.4-.4-1.1-.3-1.5-.8-.2-.3-.5-.6-.7-.9-.5-.3-1-.6-1.6-.7-.8-.1-1.6.1-2.2.6"/><path d="m90.8 102c0 1.4.7 2.9 0 4.1s-2.2 1.4-3.6 1.5c-.2 0-3.1.3-3.1.2-.2-1-.5-1.9-.9-2.8-.5-.9-1.3-1.5-2.3-1.6.3-.1.4-.4.4-.7-.1-.3-.2-.6-.3-.8-.2-.7 0-1.4.5-1.9 1-.9 2.9-.6 3.7-1.6.5-.7.5-1.7.8-2.5.5-1.6 2.3-1.9 3.6-2.6 1.3-.8 2.8-1.1 4.3-.9 1.8.2 3 1.8 2.8 3.6 0 .2-.1.4-.1.6-1 2.4-4.9 2.2-5.6 4.7-.2.2-.2.4-.2.7"/><path d="m91.8 107.1 3 4.2 1.4-.1 2.3-4.3z"/><path d="m233.3 9.6h1.3v48.4h-1.3z" transform="matrix(.1321 -.9912 .9912 .1321 169.5838 261.2732)"/><path d="m74.5 63.2h1.3v69h-1.3z" transform="matrix(.6841 -.7294 .7294 .6841 -47.5315 85.7041)"/><path d="m240.9 17.3h1.3v75h-1.3z" transform="matrix(.5609 -.8279 .8279 .5609 60.6461 224.0105)"/><path d="m28.3 130.3c.4-1.9.7-3.8.9-5.8.1-3.6.6-15.5.6-15.5l2.2-4.5h.4-.1c0-.3 0-.7 0-1-3.9.2-7.9 2.3-9 6.1-.1.3-.2.6-.2 1-.2 1.9.4 3.4-.1 5.3-.5 1.7-.9 3.4-1.3 5.2-.5 2.5-.9 5-1.2 7.5-.4 2.7-.6 5.5-.7 8.3 0 .3-.1 1.2-.1 2.2-.1 2.1 0 5 .9 5.1.2 0 .3 0 .5-.1 1.1-.6 2.1-1.2 3.1-1.9l.1-11.1z"/><path d="m48.9 141.7c-.2-2.4-.5-4.7-.8-7.1-.5-4.7-1.4-9.3-2.7-13.9-.5-1.7-1.1-3.4-1.7-5.2l-2.1-6.2c-.7-2.5-2.6-4.5-5-5.3-.5-.2-1-.3-1.5-.4v.2c0 .3-.1.5-.3.7h1.7s4.9 17 5 19.9c.1 1.1.3 3.5.5 6.1l2.6.4.1 9.8c.2 0 .3.1.4.1.8.3 1.6.8 2.2 1.3 1.3.7 1.7 1 1.6-.4"/><path d="m37.8 139.2h-.6l-1.9 18.2 2 26.4v-.4h3.4l4.3-29.4-.2-13.3c-2.1-.8-4.2-1.3-6.4-1.5-.2 0-.4 0-.6 0"/><path d="m42.1 130.5c.4 4 .9 8.4.9 8.4s-2.1.1-5.2.3h.7c2.2.2 4.4.7 6.4 1.5l-.1-9.8z"/><path d="m37.3 183.9v1.4l3.6 1.8 1.8-1.8-1.8-1.8h-.2l-.1.4z"/><path d="m37.3 183.9h3.3l.1-.4h-3.4z"/><path d="m32.4 139.7h-.2c-1.5.3-3 .6-4.5.7-.9.2-1.7.5-2.5.9-.4.2-.8.4-1.1.6v2.3l4.1 39.2h3.4v.4l3.7-26.3v-.2l-.1-1.1z"/><path d="m27.7 140.5c-1.5.1-1.7-.2-1.7-.2s1.3-5.3 2.3-10l-4.2.6v11.1c.4-.2.7-.4 1.1-.6.8-.4 1.7-.7 2.5-.9"/><path d="m32.4 139.7 2.8 16.6.1 1.1 1.9-18.2c-1.5.2-3.1.3-4.8.5"/><path d="m28.2 183.5h-.2l-1.8 1.8 1.8 1.8 3.6-1.8v-1.4h-3.3z"/><path d="m28.2 183.5v.4h3.3v-.4z"/><path d="m42.1 130.5c-.3-2.6-.5-5-.5-6.1-.2-2.9-5-19.9-5-19.9h-1.7s0 0-.1.1c-.1 0-.1.1-.2.1s-.3 0-.4 0l-1.7-.2h-.5l-2.2 4.5s-.5 11.9-.6 15.5c-.2 1.9-.5 3.9-.9 5.8-.9 4.6-2.3 10-2.3 10s.2.3 1.7.2 3-.3 4.5-.7h.2c1.7-.2 3.3-.4 4.7-.5h.6c3.2-.3 5.3-.3 5.3-.3s-.5-4.4-.9-8.5"/><path d="m35.1 103.6c.2-1 1.3-1.4 1.9-2.2.6-1 1-2.1 1.1-3.2 0 0 0 0 0-.1-.1 0-.2.1-.3.1 0-.5 0-.9.2-1.4 0-.1 0-.2 0-.4-.8-.1-1.5-.4-2.2-.7-1.6-.7-3.3-.9-5-.5-1 .5-.7 2.1-.7 3.2v.8c-.1.2-.2.5-.3.7.1.4.3.8.6 1.1.8.9 1.7 1.4 1.9 2.4.9 0 1.9.1 2.8.2"/><path d="m32.3 104.5h2.5c.2-.2.2-.4.3-.7 0-.1 0-.1 0-.2-.9-.2-1.9-.2-2.8-.2.1.4.1.8 0 1.1"/><path d="m34.1 104.7h.4c.1 0 .1-.1.2-.1 0 0 0 0 .1-.1h-2.4z"/><path d="m38.1 96.5c.1.5.1 1.1 0 1.6.6-.4 1-.9 1.2-1.6-.4.1-.8.1-1.2 0"/><path d="m38.1 96.5c0 .1-.1.2-.1.3-.2.4-.2.9-.2 1.4.1 0 .2-.1.3-.1.1-.5.1-1.1 0-1.6"/><path d="m29.7 96.8c0-.4.1-.8.2-1.2.4-.6 1-1.1 1.7-1.2 1.8-.6 3.7-.4 5.3.6.4.2.8.6 1 1 0 .1.1.1.1.2-.2-.4-.2-.9-.3-1.4.2-.4.6-.6 1-.5.1 0 .1.1.2.1.3.2.5.6.5.9 0 .4 0 .7-.2 1.1v.1c.2 0 .5-.1.7-.2 1.2-.8 1.9-2.1 2-3.6 0-.6-.3-1.1-.7-1.4-.5-.2-.9-.6-1.2-1-.2-.4-.2-.8-.4-1.1-.5-.6-1.1-.9-1.8-1.1-1.7-.5-2.6-1.2-4.4-.5-1.4.3-2.8.7-4.1 1.3-.5.3-.9.8-1.3 1.3-1.2 1.9-1.5 4.3-.7 6.5.2.4.4.8.6 1.2.4.9 1 1.6 1.8 2.1 0-.1 0-.2.1-.3-.2-.8-.2-1.9-.1-2.9"/><path d="m30.2 98.5c-.1-1-.4-2.7.7-3.2 1.7-.4 3.4-.3 5 .5.7.3 1.5.6 2.2.7 0-.1 0-.2 0-.3s-.1-.1-.1-.2c-.2-.4-.6-.8-1-1-1.6-1-3.5-1.2-5.3-.6-.7.2-1.3.6-1.7 1.2-.1.4-.2.8-.2 1.2-.1 1-.1 2.1.1 3.1.1-.2.2-.4.3-.7 0-.2 0-.5 0-.7"/><path d="m39.5 95.4c0-.4-.2-.7-.5-.9-.4-.3-.9-.2-1.1.2 0 .1-.1.1-.1.2 0 .5.1.9.3 1.4 0 .1.1.2.1.3.4.1.8.1 1.2.1v-.1c0-.5.1-.8.1-1.2"/><path d="m38 96.2v.3h.1c0-.1 0-.2-.1-.3"/><path d="m254 108.5 4.6-1.2 4.4.9-4 3.1z"/><path d="m256.1 100.4c-.6 1.3-.6 2.8-.1 4.1.1.5.4 1.3-.2 1.7-.7.4-1.5.1-1.9-.6-.2-.4-.3-.9-.2-1.3-.2-2.2.1-4.5.7-6.7.6-1.5 3.3-3.6 5-2 .3.3.4.7.5 1.1.1.2.1.5.1.7-.2.9-1.1.9-1.8 1.2-.9.4-1.6 1-2.1 1.8"/><path d="m257.8 106.2c-1.2-.6-2-1.8-2.3-3.1-.2-1.3 0-2.6.4-3.8 1.4-4 6.8-2.6 8 1 1.1 3.1-2.5 7.5-6.1 5.9"/><path d="m263.1 102.2c-.1.5 0 1.1-.1 1.6-.3 1-.6 2-.7 3.1 1.1.1 2.2 0 3.2-.5.9-.4 1.1-1.5 1.6-2.4.5-.8.9-1.7 1.1-2.6 1-3.6-1.1-7.4-4.7-8.4-1.1-.3-2.2-.3-3.2-.1-1.7.2-2.9 1.7-2.7 3.4 0 .2.1.4.1.7.8 1.9 3.7 2.1 4.9 3.7.4.4.5.9.5 1.5"/><path d="m257.8 105.8c0 .4-.1.8-.1 1.1 0 .2-.2.6-.1.8.1.1.1.1.2.1.8.2 1.6.3 2.4.3.1-.4.1-.9.1-1.3.1-.4.1-.9.1-1.3-.4.2-.9.2-1.3.2-.4.1-.8.1-1.3.1z"/><path d="m241.8 137.9-1.5-.3-1.5 2.1.9 1.5 1.8.3.7-2.2z"/><path d="m256 110.9-5.6.3-3.5 15-6.6 11 1.8 2.1 8.8-8.8z"/><path d="m253.7 182.3c.2-.4.6-.7 1-.7s.9.2 1.1.5c.2.2.3.5.3.8.4 1.4 1.2 4.8-.7 5.7-.7.3-1.6 0-2-.7-.5-1.9-.5-3.9.3-5.6"/><path d="m257 160.6-.2 8.9c.1 4-.6 8-.6 11.9.1.9.1 1.9 0 2.8-.2.9-1 1-1.7.6-1-.6-.8-2-1-3-.4-2.8-.9-5.6-1.4-8.4-.2-1.4.3-3.3.2-4.7l-1.4-7.5z"/><path d="m260 182.6c.3-.4.7-.6 1.2-.5.4 0 .8.3 1 .7.1.3.2.5.2.8.2 1.5.3 4.9-1.6 5.5-.8.2-1.6-.3-1.8-1-.4-1.9 0-3.9 1-5.5"/><path d="m258.3 160.6.5 8.9c.1 4 .9 7.9.9 11.9-.1.9-.1 1.9.1 2.8.3.9 1 1 1.7.5 1-.6.8-2 .9-3.1.3-2.8.7-5.6 1.1-8.5.2-1.4-.4-3.3-.4-4.7l1.1-7.5z"/><path d="m262.8 107.4-3.8 2-4.3-1.5-4.4 3.3s.5 13.8.3 18.9-.5 9.2-.9 16.7c-.1 6.1.4 12.1 1.6 18.1l17-.3s3.5-18.7 1.7-23.5-.7-9.7-.8-13.6c-.1-4-1.7-17.2-1.7-17.2z"/><path d="m278.9 95.6 1.8.6 2.2-2.5-.8-2.1-2.1-.6-1.2 2.7z"/><path d="m263.9 115.5 12-3.9 6-16.1-3.6-.9-7.1 12.2-7.3 1.6z"/><path d="m94.1 100.6h70.4v1.3h-70.4z" transform="matrix(.8218 -.5698 .5698 .8218 -34.6757 91.6973)"/><path d="m127.5 27.3h1.3v70.6h-1.3z" transform="matrix(.5271 -.8498 .8498 .5271 7.3593 138.5119)"/><path d="m101.7 19.9h1.3v112.1h-1.3z" transform="matrix(.09447316 -.9955 .9955 .09447316 17.0515 170.6694)"/><path d="m146.5 55.3h74v1.3h-74z" transform="matrix(.7293 -.6842 .6842 .7293 11.4034 140.675)"/><path d="m191.5 61.9h1.3v85.2h-1.3z" transform="matrix(.5457 -.838 .838 .5457 -.2739 208.5137)"/><path d="m158.1 77.1h117v1.3h-117z" transform="matrix(.9995 -.03264931 .03264931 .9995 -2.4244 7.114)"/><path d="m118.1 76c0-19.5 15.8-35.3 35.3-35.3s35.3 15.8 35.3 35.3-15.8 35.3-35.3 35.3-35.3-15.8-35.3-35.3z"/><path d="m80.3 40.1c0-9.1 7.4-16.5 16.5-16.5s16.5 7.4 16.5 16.5-7.4 16.5-16.5 16.5-16.5-7.4-16.5-16.5z"/><path d="m38.8 69.4c0-10.4 8.4-18.8 18.8-18.8s19.8 8.4 19.8 18.8-9.4 18.8-19.8 18.8-18.8-8.4-18.8-18.8"/><path d="m88 121.3c0-8.2 6.6-14.8 14.8-14.8s14.8 6.6 14.8 14.8-6.6 14.8-14.8 14.8c-8.2 0-14.8-6.6-14.8-14.8"/><path d="m193.6 31.9c0-9.1 7.3-16.4 16.4-16.4s16.4 7.3 16.4 16.4-7.3 16.4-16.4 16.4c-9 0-16.4-7.4-16.4-16.4"/><path d="m210 125.9c0-9.9 8-17.9 17.9-17.9s17.9 8 17.9 17.9-8 17.9-17.9 17.9c-9.9-.1-17.9-8.1-17.9-17.9z"/><path d="m252.3 75.9c0-11.2 9.1-20.3 20.2-20.3 11.2 0 20.3 9.1 20.3 20.2 0 11.2-9.1 20.3-20.2 20.3-11.3 0-20.3-9-20.3-20.2"/><path d="m248 37c0-5.5 4.5-10 10-10s10 4.5 10 10-4.5 10-10 10c-5.6 0-10-4.5-10-10z"/><path d="m20.1 30.8c0-5.5 4.5-10 10-10s10 4.5 10 10-4.5 10-10 10-10-4.5-10-10z"/><path d="m7.2 67.6c0-6 4.9-11 11-11 6 0 11 4.9 11 11 0 6-4.9 11-11 11s-11-5-11-11z"/><path d="m36.5 118.7c0-6.8 5.5-12.2 12.2-12.2 6.8 0 12.2 5.5 12.2 12.2 0 6.8-5.5 12.2-12.2 12.2-6.7 0-12.2-5.4-12.2-12.2"/><path d="m33.8 121.9 1.9-.1 1.1-1.3.4.1-.1.5 1.2-.8 1.2.1.8 1.4-.2 1.6-1.5.6-1.9-.2-2.6.3z"/><path d="m34.9 121-10.5.3 2.1-16.2-7.2 7.1-1.1 14.9 3.9 2.1 14.4-4.6z"/><path d="m191 139.5v4.4l-5.8 18.9 1.4 19.6-3.6.6-5.8-23.9.2-7 2.7-14.4z"/><path d="m186.4 144.6 5.8 39.9h2.7l1.7-21.8 3.6-21.8z"/><path d="m183.5 182.6-2.8 2.9.8 1.5 5.7-2.7-1.1-2.2z"/><path d="m192.3 183.9-3.4 2.1.4 1.6 6.2-1.2-.5-2.4z"/><path d="m191 96.1c1.6 1.7 4.5 1.8 5.9 3.7.9 1.3.9 3 .2 4.4-.3.7-.8 1.2-1.4 1.7-.4.2-.9.4-1.3.4-.6.1-1.2.1-1.8-.1-.1.6-.2 1.1-.2 1.7-1.1-.4-2.5-.1-3.6-.5.2-.6.8-2 1.1-2.6-.2-.2-.4-.5-.6-.8-1.1-1.8-1.1-4-.1-5.7.5-.9 1.1-1.6 1.8-2.2"/><path d="m191 97 5.9 4.3-2.7 5.1 2.6.2 5.3-7.4-7.4-7.1-5-1.1-1.6 2.1 1.1 4.7z"/><path d="m117.9 116.4.8-1.5-1.8-2.3-1.9.4-.9 1.7 1.2.8-.2.4.3.5z"/><path d="m168.4 102-1.1-2.9 1.2-.5 1.2 1.8.5-.5.7 2.6-1.2.7z"/><path d="m194.2 111.5-12.8 1.2-10.5-11.1-2.3 1.6 8.5 14.7 17.2 2.9z"/><path d="m184.4 107.1 8.6-.9c4.7 5.9 8.2 12.7 10.3 19.9 3.4 11.8-4.1 28.4-4.1 28.4s-23.3-4.8-27.2-5.5l7.6-23.7z"/></g></svg>