<?xml version="1.0" encoding="utf-8"?>
<!-- Generator: Adobe Illustrator 26.5.2, SVG Export Plug-In . SVG Version: 6.00 Build 0)  -->
<svg version="1.1" id="Layer_1" xmlns="http://www.w3.org/2000/svg" xmlns:xlink="http://www.w3.org/1999/xlink" x="0px" y="0px"
	 viewBox="0 0 554.8 551" style="enable-background:new 0 0 554.8 551;" xml:space="preserve">
<style type="text/css">
	.st0{fill:none;}
	.st1{clip-path:url(#SVGID_00000083056165303305281000000003726295361158573979_);}
	.st2{fill-rule:evenodd;clip-rule:evenodd;fill:#3667F2;}
	.st3{fill-rule:evenodd;clip-rule:evenodd;fill:#4B45D6;}
	.st4{fill-rule:evenodd;clip-rule:evenodd;}
	.st5{clip-path:url(#SVGID_00000134238354794177180870000017438432824509824657_);}
	.st6{fill:#3667F2;}
</style>
<g>
	<path class="st0" d="M475.9,19.8H79c-32.7,0-59.2,26.6-59.2,59.2v235.6c0,32.7,26.6,59.2,59.2,59.2h396.9
		c32.7,0,59.2-26.6,59.2-59.2V79C535.2,46.3,508.6,19.8,475.9,19.8z"/>
	<polygon points="88.7,551 248.1,393.5 82.7,393.5 	"/>
	<path d="M475.9,0H79C35.5,0,0,35.4,0,79v235.6c0,43.5,35.4,79,79,79h3.6l-0.4-9.9H258l-10,9.9h227.8c43.5,0,79-35.4,79-79V79
		C554.9,35.4,519.5,0,475.9,0z M535.2,314.6c0,32.7-26.6,59.2-59.2,59.2H79c-32.7,0-59.2-26.6-59.2-59.2V79
		c0-32.7,26.6-59.2,59.2-59.2h396.9c32.7,0,59.2,26.6,59.2,59.2L535.2,314.6L535.2,314.6L535.2,314.6z"/>
	<polygon points="82.3,383.7 82.7,393.5 248.1,393.5 258.1,383.7 	"/>
</g>
<g id="Group_820">
	<g>
		<g>
			<defs>
				<rect id="SVGID_1_" x="56.2" y="37" width="167.8" height="169.4"/>
			</defs>
			<clipPath id="SVGID_00000105407409453518443040000012688916480319325873_">
				<use xlink:href="#SVGID_1_"  style="overflow:visible;"/>
			</clipPath>
			
				<g id="Group_819" transform="translate(0 0)" style="clip-path:url(#SVGID_00000105407409453518443040000012688916480319325873_);">
				<path id="Path_127" class="st2" d="M129.2,57.4h45.6c12.1,0,22.2,9.5,24,21.8H186c-1.4-5-6-8.5-11.1-8.6h-50.8l-14.2-14.9
					l-14.1,15H80.4c-6.6,0.2-11.8,5.7-11.7,12.3v51.1c-0.1,6.6,5.1,12.1,11.7,12.3h94.3c6.6-0.2,11.8-5.7,11.7-12.3v-32.4h12.5v32.4
					c0,14.1-10.9,25.5-24.2,25.5H80.4c-13.3,0-24.2-11.5-24.2-25.5V83c0-14,10.9-25.5,24.2-25.5h10.2L109.9,37L129.2,57.4z"/>
				<path id="Path_128" class="st3" d="M151.1,186h-45.6c-12.1,0-22.2-9.5-24-21.8h12.8c1.4,5,6,8.5,11.1,8.6h50.8l14.1,15l14.1-15
					h15.4c6.6-0.2,11.8-5.7,11.7-12.3v-51.1c0.1-6.6-5.1-12.1-11.7-12.3h-94.3c-6.6,0.2-11.8,5.7-11.7,12.3v32.4H81.3v-32.4
					c0-14.1,10.9-25.5,24.2-25.5h94.3c13.3,0,24.2,11.5,24.2,25.5v51.1c0,14-10.9,25.5-24.2,25.5h-10.2l-19.3,20.4L151.1,186z"/>
				<path id="Path_129" class="st4" d="M123.9,122.6c0,4.7-3.8,8.6-8.6,8.6c-4.7,0-8.6-3.8-8.6-8.6c0-4.7,3.8-8.6,8.6-8.6
					C120,114,123.9,117.8,123.9,122.6"/>
				<path id="Path_130" class="st4" d="M148.7,122.6c0,4.7-3.8,8.6-8.6,8.6s-8.6-3.8-8.6-8.6s3.8-8.6,8.6-8.6
					C144.9,114,148.7,117.8,148.7,122.6L148.7,122.6"/>
				<path id="Path_131" class="st4" d="M174,122.6c0,4.7-3.8,8.6-8.6,8.6s-8.6-3.8-8.6-8.6s3.8-8.6,8.6-8.6S174,117.8,174,122.6
					L174,122.6"/>
			</g>
		</g>
	</g>
</g>
<g id="Group_822" transform="translate(26.161 73.171)">
	<g>
		<g>
			<defs>
				<rect id="SVGID_00000167371981577507854040000011931101871835523215_" x="79.3" y="101.5" width="373.2" height="185.9"/>
			</defs>
			<clipPath id="SVGID_00000024716614033728737880000012726744813239154575_">
				<use xlink:href="#SVGID_00000167371981577507854040000011931101871835523215_"  style="overflow:visible;"/>
			</clipPath>
			
				<g id="Group_821" transform="translate(0 0)" style="clip-path:url(#SVGID_00000024716614033728737880000012726744813239154575_);">
				<path id="Path_132" d="M112.4,205.5c-6.3,0.2-12.4-1.6-17.7-5c-5-3.4-8.9-8.1-11.4-13.5c-2.7-5.9-4.1-12.3-4-18.7
					c-0.1-6.7,1.5-13.2,4.6-19.1c3-5.6,7.5-10.3,13-13.5c6.2-3.5,13.2-5.2,20.2-5c6.9-0.2,13.8,1.5,19.8,5
					c5.4,3.2,9.7,7.9,12.6,13.5c3,5.8,4.5,12.3,4.4,18.9V204h-16v-13.3h-0.3c-1.5,2.7-3.3,5.2-5.5,7.4c-2.4,2.4-5.2,4.3-8.3,5.5
					C120.2,204.8,116.3,205.6,112.4,205.5 M116.7,191.7c3.9,0.1,7.7-1,11-3.2c3.2-2.1,5.7-5.1,7.4-8.5c1.8-3.8,2.7-7.9,2.5-12.1
					c0.1-4.1-0.8-8.2-2.5-12c-1.6-3.4-4.1-6.3-7.1-8.4c-3.3-2.2-7.1-3.3-11.1-3.2c-4.1-0.1-8.1,1-11.5,3.2c-3.2,2.1-5.7,5-7.3,8.5
					c-1.7,3.8-2.6,7.9-2.5,12.1c-0.1,4.1,0.8,8.2,2.5,12c1.6,3.5,4.1,6.4,7.2,8.5C108.7,190.8,112.7,191.9,116.7,191.7"/>
				<path id="Path_133" d="M167.9,203.8v-13.7h34.5c1.5,0,3.1-0.4,4.4-1.1c1.2-0.7,2.2-1.7,2.9-2.9c0.7-1.1,1-2.4,1.1-3.8
					c0-1.4-0.3-2.7-1-3.9c-0.7-1.1-1.6-2.1-2.8-2.7c-1.3-0.7-2.7-1.1-4.2-1.1h-14c-4.2,0.1-8.3-0.7-12.2-2.2
					c-3.4-1.4-6.4-3.8-8.4-6.9c-2.2-3.6-3.2-7.7-3.1-11.8c0-3.7,1-7.3,2.9-10.5s4.6-5.8,7.8-7.7c3.3-2,7.2-3,11.1-2.9h33.2v13.7
					h-31.7c-2-0.1-3.9,0.7-5.3,2c-2.7,2.6-2.8,7-0.2,9.7c0.1,0.1,0.1,0.1,0.2,0.2c1.5,1.4,3.5,2.2,5.6,2.1h13.6
					c4.5-0.1,9,0.7,13.2,2.4c3.5,1.4,6.4,3.9,8.3,7.1c2,3.7,3,7.8,2.9,12.1c0,3.9-1,7.7-2.9,11c-1.9,3.4-4.7,6.2-8.1,8.1
					c-3.5,2-7.5,3.1-11.6,3h-36.2V203.8z"/>
				<path id="Path_134" d="M237.4,203.8V101.5h16.1v59.4h15.4l17.9-28.6h17.8l-20,31.1c6.1,2,11.4,6,15,11.3
					c3.6,5.4,5.4,11.7,5.3,18.1v10.9h-16.1v-10.9c0-3.2-0.8-6.4-2.4-9.2c-1.5-2.7-3.8-4.9-6.4-6.5c-2.8-1.6-6-2.4-9.2-2.4h-17.2v29
					L237.4,203.8L237.4,203.8z"/>
				<path id="Path_135" d="M323.6,205.3c-6.2,0-11.2-5-11.2-11.2c0-2.9,1.2-5.8,3.3-7.8c2.1-2.1,4.9-3.3,7.9-3.3
					c6.1,0.1,11,5,11.1,11.1c0,2-0.5,3.9-1.5,5.7c-0.9,1.7-2.3,3.1-4,4.1C327.5,204.8,325.5,205.3,323.6,205.3"/>
				<path id="Path_136" d="M380.5,203.8c-5.9-0.1-11.8-1.2-17.3-3.5c-4.9-2-9.4-5-13.2-8.8c-3.7-3.7-6.6-8.1-8.5-12.9
					c-2-5-3-10.4-3-15.8c0-5.4,1-10.8,3-15.8c1.9-4.8,4.8-9.3,8.5-12.9c3.8-3.8,8.3-6.8,13.2-8.8c5.5-2.3,11.3-3.4,17.3-3.4h11.6
					v12.3h-11.2c-3.9,0-7.8,0.8-11.4,2.3c-6.8,2.8-12.2,8.3-14.9,15.1c-1.4,3.6-2.1,7.4-2.1,11.3c0,3.9,0.7,7.7,2.1,11.3
					c1.4,3.4,3.4,6.5,5.9,9.1c2.6,2.6,5.6,4.6,9,6c3.6,1.5,7.5,2.2,11.4,2.2h11.2v12.4L380.5,203.8z"/>
				<path id="Path_137" d="M402.6,203.8v-12.3h15.2v-57.4h-15.2v-12.3h44.5v12.3h-15.2v57.4h15.2v12.3L402.6,203.8z"/>
				<path id="Path_138" class="st6" d="M325.5,275.2c-3.2,0-6.4-0.6-9.4-1.7c-2.9-1.2-5.6-2.9-7.8-5.2c-2.3-2.4-4.1-5.3-5.3-8.5
					c-1.3-3.7-2-7.7-1.9-11.6c-0.1-4,0.6-7.9,1.9-11.6c1.1-3.1,2.9-6,5.3-8.4c2.2-2.2,4.8-4,7.7-5.1c6.1-2.3,12.8-2.3,18.9,0
					c2.9,1.1,5.6,2.9,7.8,5.1c2.3,2.4,4.1,5.3,5.3,8.4c1.3,3.7,2,7.7,1.9,11.6c0.1,4-0.6,7.9-1.9,11.6c-1.2,3.2-3,6-5.3,8.5
					c-2.2,2.3-4.9,4-7.8,5.2C331.8,274.6,328.7,275.2,325.5,275.2 M325.5,265.2c2,0,3.9-0.6,5.6-1.6c1.9-1.3,3.4-3.2,4.3-5.4
					c1.2-3.2,1.8-6.7,1.6-10.1c0.1-3.4-0.4-6.9-1.7-10.1c-0.9-2.2-2.3-4-4.3-5.3c-3.4-2.1-7.7-2.1-11.1,0c-1.9,1.3-3.4,3.1-4.3,5.3
					c-1.2,3.2-1.8,6.7-1.6,10.1c-0.1,3.5,0.4,6.9,1.6,10.1c0.8,2.2,2.3,4,4.3,5.3C321.6,264.7,323.5,265.2,325.5,265.2 M319.8,273.7
					h10.7c0,1,0.4,1.9,1.2,2.6c0.8,0.7,1.8,1.3,2.8,1.6c1,0.4,2,0.7,3.1,0.9c1,0.2,1.6,0.3,2,0.3l-3.5,8.4c-0.8,0-1.5-0.1-2.3-0.3
					c-1.4-0.2-2.8-0.6-4.1-1.1c-1.6-0.5-3.2-1.3-4.6-2.3c-1.5-1-2.8-2.4-3.7-4C320.2,278,319.7,275.8,319.8,273.7"/>
				<path id="Path_139" class="st6" d="M374.7,275.2c-3.4,0-6.8-0.5-10-1.7c-2.8-1-5.2-2.6-7.1-4.9c-1.8-2.3-2.7-5.1-2.6-8
					c0-2.4,0.7-4.7,2-6.6c1.6-2.2,3.5-4,5.8-5.5c3-2,6.1-3.9,9.2-5.5c2.4-1.2,4.6-2.8,6.5-4.6c1.2-1.2,1.9-2.7,2-4.4
					c0-0.8-0.2-1.6-0.6-2.3c-0.4-0.6-0.9-1.1-1.6-1.4s-1.5-0.5-2.3-0.5s-1.6,0.2-2.3,0.5c-0.7,0.3-1.2,0.8-1.7,1.4
					c-0.4,0.7-0.6,1.5-0.6,2.3c0.1,1.5,0.5,3,1.4,4.3c1,1.7,2.1,3.3,3.4,4.8l17.6,20.9c0.6,0.8,1.5,1.5,2.5,1.9
					c0.6,0.2,1.3,0.4,2,0.4c0.6,0,1.2-0.1,1.8-0.3c0.6-0.2,1.1-0.3,1.4-0.4v8.7c-0.2,0.1-0.7,0.2-1.5,0.4c-1.1,0.3-2.2,0.4-3.4,0.3
					c-1.6,0-3.2-0.3-4.6-0.9c-1.6-0.6-3-1.6-4.1-2.9l-19.3-22.8c-1.1-1.3-2.2-2.7-3.3-4.3c-1.2-1.6-2.1-3.3-2.9-5.1
					c-0.8-1.8-1.2-3.7-1.2-5.7c0-2.1,0.6-4.2,1.9-5.9c1.3-1.9,3.1-3.3,5.2-4.3c2.4-1.1,5.1-1.7,7.8-1.6c2.7-0.1,5.3,0.5,7.7,1.6
					c2,0.9,3.7,2.4,5,4.3c1.1,1.7,1.8,3.7,1.7,5.8c0,2.3-0.5,4.5-1.6,6.5c-1.2,2-2.7,3.8-4.6,5.3c-2.3,1.8-4.8,3.5-7.3,4.9
					c-2.7,1.5-5.3,3.2-7.8,5.1c-1.6,1.2-2.6,3-2.6,5c0,1.2,0.4,2.3,1.1,3.2c0.8,1,1.8,1.7,3,2.2c1.3,0.5,2.7,0.8,4.1,0.8
					c2.3,0.1,4.7-0.4,6.8-1.3c1.8-0.8,3.5-2,4.9-3.5c1.3-1.4,2.5-3,3.3-4.7c1-2.2,1.4-4.6,1.3-7h10.2c0.1,2.7-0.3,5.3-1.1,7.9
					c-0.7,2.1-1.6,4.1-2.9,5.9c-1.1,1.6-2.4,3.1-3.8,4.5c-2.3,2.2-5.1,4-8.1,5.1C382.1,274.6,378.4,275.2,374.7,275.2"/>
				<path id="Path_140" class="st6" d="M407.4,274.3l12.6-52.2h20l12.5,52.2h-12.9l-9.7-44.6h0.1l-9.7,44.6H407.4z M417.4,253.1
					h25.3v9.7h-25.3V253.1z"/>
			</g>
		</g>
	</g>
</g>
</svg>
