<?xml version="1.0" encoding="utf-8"?>
<!-- Generator: Adobe Illustrator 26.5.2, SVG Export Plug-In . SVG Version: 6.00 Build 0)  -->
<svg version="1.1" id="Layer_1" xmlns="http://www.w3.org/2000/svg" xmlns:xlink="http://www.w3.org/1999/xlink" x="0px" y="0px"
	 viewBox="0 0 554.9 551" style="enable-background:new 0 0 554.9 551;" xml:space="preserve">
<style type="text/css">
	.st0{fill:none;}
	.st1{enable-background:new    ;}
	.st2{fill:#D6002A;}
	.st3{font-family:'MyriadPro-Regular';}
	.st4{font-size:12.7496px;}
</style>
<g>
	<path class="st0" d="M475.9,19.7H79c-32.7,0-59.2,26.6-59.2,59.2v235.6c0,32.7,26.6,59.2,59.2,59.2h396.9
		c32.7,0,59.2-26.6,59.2-59.2V79C535.1,46.3,508.6,19.7,475.9,19.7z"/>
	<polygon points="88.7,551 249.4,393.5 84,393.5 	"/>
	<path d="M475.9,0H79C35.5,0,0,35.4,0,79v235.6c0,43.5,35.4,79,79,79h5l-0.3-9.9h175.8l-10.1,9.9h226.5c43.5,0,79-35.4,79-79V79
		C554.9,35.4,519.5,0,475.9,0z M535.1,314.6c0,32.7-26.6,59.2-59.2,59.2H79c-32.7,0-59.2-26.6-59.2-59.2V79
		c0-32.7,26.6-59.2,59.2-59.2h396.9c32.7,0,59.2,26.6,59.2,59.2V314.6z"/>
	<polygon points="83.7,383.7 84,393.5 249.4,393.5 259.5,383.7 	"/>
</g>
<g class="st1">
	<path class="st2" d="M111.8,285.8c-4.6-5.6-10.2-8.3-16.9-8.3c-2.9,0-5.7,0.5-8.2,1.6c-2.5,1.1-4.7,2.5-6.5,4.4
		c-1.8,1.8-3.2,4-4.3,6.6c-1,2.5-1.6,5.3-1.6,8.2c0,3,0.5,5.8,1.6,8.3c1,2.5,2.5,4.8,4.3,6.6c1.8,1.9,4,3.3,6.5,4.4
		c2.5,1.1,5.2,1.6,8,1.6c6.3,0,11.9-2.7,17-8v23.3l-2,0.7c-3,1.1-5.8,1.9-8.4,2.4c-2.6,0.5-5.2,0.8-7.7,0.8c-5.2,0-10.2-1-15-3
		c-4.8-2-9-4.8-12.6-8.3c-3.6-3.6-6.6-7.8-8.8-12.7c-2.2-4.9-3.3-10.3-3.3-16.1s1.1-11.2,3.3-16c2.2-4.9,5.1-9,8.7-12.5
		c3.6-3.5,7.9-6.3,12.7-8.2c4.8-2,9.9-3,15.2-3c3,0,6,0.3,8.9,1c2.9,0.6,6,1.6,9.2,3V285.8z"/>
	<path class="st2" d="M143.9,260.5v75.7h-19.7v-75.7H143.9z"/>
	<path class="st2" d="M213.6,260.5v59h23.6v16.7h-43.3v-75.7H213.6z"/>
	<path class="st2" d="M267,260.5v75.7h-19.7v-75.7H267z"/>
	<path class="st2" d="M282.8,336.2v-75.7h19.7l36.3,46.3v-46.3h19.6v75.7h-19.6l-36.3-46.3v46.3H282.8z"/>
	<path class="st2" d="M393.9,291.7l24-31.2h24.3l-30,35.8l32.8,39.8h-25.5l-25.6-32.8v32.8h-19.7v-75.7h19.7V291.7z"/>
	<path class="st2" d="M495.3,279.9c-2.1-1.7-4.3-3-6.4-3.9c-2.1-0.8-4.2-1.3-6.2-1.3c-2.5,0-4.6,0.6-6.2,1.8
		c-1.6,1.2-2.4,2.8-2.4,4.7c0,1.3,0.4,2.4,1.2,3.3c0.8,0.9,1.9,1.6,3.2,2.3c1.3,0.6,2.8,1.2,4.4,1.7c1.6,0.5,3.3,1,4.9,1.5
		c6.4,2.1,11.1,5,14.1,8.6c3,3.6,4.5,8.2,4.5,14c0,3.9-0.7,7.4-2,10.5c-1.3,3.1-3.2,5.8-5.7,8.1c-2.5,2.2-5.6,4-9.2,5.2
		c-3.6,1.2-7.8,1.9-12.4,1.9c-9.6,0-18.4-2.8-26.6-8.5l8.4-15.9c2.9,2.6,5.9,4.6,8.7,5.8c2.9,1.3,5.7,1.9,8.5,1.9
		c3.2,0,5.6-0.7,7.2-2.2c1.6-1.5,2.4-3.1,2.4-5c0-1.1-0.2-2.1-0.6-3c-0.4-0.8-1.1-1.6-2-2.3c-0.9-0.7-2.2-1.4-3.7-2
		c-1.5-0.6-3.3-1.3-5.5-2c-2.5-0.8-5-1.7-7.5-2.7c-2.4-1-4.6-2.3-6.5-3.9c-1.9-1.6-3.4-3.6-4.6-6.1c-1.2-2.4-1.8-5.5-1.8-9.3
		c0-3.7,0.6-7.1,1.9-10.2c1.2-3,3-5.7,5.2-7.8c2.2-2.2,5-3.9,8.2-5.1c3.2-1.2,6.9-1.8,10.9-1.8c3.7,0,7.7,0.5,11.7,1.6
		c4.1,1,8,2.6,11.7,4.6L495.3,279.9z"/>
</g>
<g class="st1">
	<path d="M75.7,134.9H56.9V62.8h29.8c8.1,0,14.3,2.1,18.6,6.3c4.3,4.2,6.5,10.1,6.5,17.8s-2.2,13.6-6.5,17.8
		c-4.3,4.2-10.5,6.3-18.6,6.3H75.7V134.9z M75.7,95.9h6.2c6.9,0,10.3-3,10.3-9c0-6-3.4-9-10.3-9h-6.2V95.9z"/>
	<path d="M118.5,98.9c0-5.4,1-10.3,3-15c2-4.6,4.7-8.7,8.2-12.1c3.5-3.4,7.7-6.1,12.6-8.1c4.9-1.9,10.2-2.9,16.1-2.9
		c5.8,0,11.2,1,16.1,2.9c4.9,1.9,9.1,4.6,12.7,8.1s6.3,7.5,8.3,12.1c2,4.6,3,9.6,3,15c0,5.4-1,10.3-3,15c-2,4.6-4.7,8.7-8.3,12.1
		s-7.8,6.1-12.7,8.1c-4.9,1.9-10.3,2.9-16.1,2.9c-5.9,0-11.2-1-16.1-2.9c-4.9-1.9-9.1-4.6-12.6-8.1c-3.5-3.4-6.2-7.5-8.2-12.1
		C119.5,109.2,118.5,104.2,118.5,98.9z M138.1,98.9c0,2.9,0.5,5.5,1.6,7.9c1.1,2.4,2.5,4.5,4.4,6.3c1.8,1.8,4,3.2,6.5,4.2
		c2.5,1,5.1,1.5,7.8,1.5c2.7,0,5.3-0.5,7.8-1.5c2.5-1,4.6-2.4,6.5-4.2c1.9-1.8,3.4-3.9,4.4-6.3c1.1-2.4,1.6-5.1,1.6-7.9
		c0-2.9-0.5-5.5-1.6-7.9c-1.1-2.4-2.6-4.5-4.4-6.3c-1.9-1.8-4-3.2-6.5-4.2c-2.5-1-5.1-1.5-7.8-1.5c-2.7,0-5.3,0.5-7.8,1.5
		c-2.5,1-4.6,2.4-6.5,4.2c-1.8,1.8-3.3,3.9-4.4,6.3C138.7,93.3,138.1,96,138.1,98.9z"/>
	<path d="M249.8,81.3c-2-1.7-4.1-2.9-6.1-3.7c-2-0.8-4-1.2-5.9-1.2c-2.4,0-4.4,0.6-5.9,1.7s-2.3,2.6-2.3,4.5c0,1.3,0.4,2.3,1.1,3.2
		c0.8,0.8,1.8,1.5,3,2.2c1.2,0.6,2.6,1.1,4.2,1.6c1.6,0.4,3.1,0.9,4.6,1.4c6.1,2,10.6,4.8,13.4,8.2c2.8,3.4,4.3,7.9,4.3,13.3
		c0,3.7-0.6,7-1.9,10c-1.2,3-3.1,5.6-5.5,7.7c-2.4,2.1-5.3,3.8-8.8,5c-3.5,1.2-7.4,1.8-11.8,1.8c-9.1,0-17.6-2.7-25.3-8.1l8-15.1
		c2.8,2.5,5.6,4.3,8.3,5.5c2.7,1.2,5.5,1.8,8.1,1.8c3.1,0,5.3-0.7,6.8-2.1c1.5-1.4,2.2-3,2.2-4.8c0-1.1-0.2-2-0.6-2.8
		c-0.4-0.8-1-1.5-1.9-2.2c-0.9-0.7-2.1-1.3-3.5-1.9c-1.4-0.6-3.2-1.2-5.2-1.9c-2.4-0.8-4.8-1.6-7.1-2.5c-2.3-0.9-4.4-2.2-6.2-3.7
		c-1.8-1.5-3.3-3.5-4.4-5.8c-1.1-2.3-1.7-5.3-1.7-8.8c0-3.6,0.6-6.8,1.8-9.7c1.2-2.9,2.8-5.4,5-7.5c2.1-2.1,4.7-3.7,7.8-4.8
		c3.1-1.1,6.5-1.7,10.4-1.7c3.6,0,7.3,0.5,11.2,1.5c3.9,1,7.6,2.4,11.2,4.4L249.8,81.3z"/>
	<path d="M299.8,78.7v56.2h-18.7V78.7h-15.4V62.8h49.5v15.9H299.8z"/>
	<path d="M352.8,98.9c0-5.4,1-10.3,3-15c2-4.6,4.7-8.7,8.2-12.1c3.5-3.4,7.7-6.1,12.6-8.1c4.9-1.9,10.2-2.9,16.1-2.9
		c5.8,0,11.2,1,16.1,2.9c4.9,1.9,9.1,4.6,12.7,8.1s6.3,7.5,8.3,12.1c2,4.6,3,9.6,3,15c0,5.4-1,10.3-3,15c-2,4.6-4.7,8.7-8.3,12.1
		s-7.8,6.1-12.7,8.1c-4.9,1.9-10.3,2.9-16.1,2.9c-5.9,0-11.2-1-16.1-2.9c-4.9-1.9-9.1-4.6-12.6-8.1c-3.5-3.4-6.2-7.5-8.2-12.1
		C353.8,109.2,352.8,104.2,352.8,98.9z M372.4,98.9c0,2.9,0.5,5.5,1.6,7.9c1.1,2.4,2.5,4.5,4.4,6.3c1.8,1.8,4,3.2,6.5,4.2
		c2.5,1,5.1,1.5,7.8,1.5c2.7,0,5.3-0.5,7.8-1.5c2.5-1,4.6-2.4,6.5-4.2c1.9-1.8,3.4-3.9,4.4-6.3s1.6-5.1,1.6-7.9
		c0-2.9-0.5-5.5-1.6-7.9c-1.1-2.4-2.6-4.5-4.4-6.3c-1.9-1.8-4-3.2-6.5-4.2c-2.5-1-5.1-1.5-7.8-1.5c-2.7,0-5.3,0.5-7.8,1.5
		c-2.5,1-4.6,2.4-6.5,4.2c-1.8,1.8-3.3,3.9-4.4,6.3C372.9,93.3,372.4,96,372.4,98.9z"/>
	<path d="M504.4,134.9h-23.3l-17.9-27.7v27.7h-18.7V62.8h29.2c4,0,7.5,0.6,10.5,1.8c3,1.2,5.5,2.8,7.4,4.8c1.9,2,3.4,4.4,4.4,7.1
		c1,2.7,1.5,5.5,1.5,8.6c0,5.5-1.3,9.9-4,13.3c-2.6,3.4-6.6,5.7-11.7,6.9L504.4,134.9z M463.2,95h3.5c3.7,0,6.5-0.8,8.5-2.3
		c2-1.5,3-3.7,3-6.6c0-2.9-1-5.1-3-6.6c-2-1.5-4.8-2.3-8.5-2.3h-3.5V95z"/>
</g>
<g class="st1">
	<path d="M98,179.6H75.7v12h21v15.9h-21v12.4H98v15.9h-41v-72.1h41V179.6z"/>
	<path d="M132.1,197.4l-22.5-33.7h23.1l9.8,18.6l12-18.6h23.1l-23.8,33.7l26.9,38.4h-22.9l-14.4-23.5l-16.9,23.5h-22.7L132.1,197.4z
		"/>
	<path d="M207.1,235.8h-18.7v-72.1h29.8c8.1,0,14.3,2.1,18.6,6.3c4.3,4.2,6.5,10.1,6.5,17.8s-2.2,13.6-6.5,17.8
		c-4.3,4.2-10.5,6.3-18.6,6.3h-11.1V235.8z M207.1,196.8h6.2c6.9,0,10.3-3,10.3-9c0-6-3.4-9-10.3-9h-6.2V196.8z"/>
	<path d="M271.9,163.7v56.2h22.5v15.9h-41.2v-72.1H271.9z"/>
	<path d="M299.3,199.8c0-5.4,1-10.3,3-15c2-4.6,4.7-8.7,8.2-12.1c3.5-3.4,7.7-6.1,12.6-8.1c4.9-1.9,10.2-2.9,16.1-2.9
		c5.8,0,11.2,1,16.1,2.9c4.9,1.9,9.1,4.6,12.7,8.1s6.3,7.5,8.3,12.1c2,4.6,3,9.6,3,15c0,5.4-1,10.3-3,15c-2,4.6-4.7,8.7-8.3,12.1
		s-7.8,6.1-12.7,8.1c-4.9,1.9-10.3,2.9-16.1,2.9c-5.9,0-11.2-1-16.1-2.9c-4.9-1.9-9.1-4.6-12.6-8.1c-3.5-3.4-6.2-7.5-8.2-12.1
		C300.3,210.1,299.3,205.1,299.3,199.8z M318.9,199.8c0,2.9,0.5,5.5,1.6,7.9s2.5,4.5,4.4,6.3c1.8,1.8,4,3.2,6.5,4.2
		c2.5,1,5.1,1.5,7.8,1.5c2.7,0,5.3-0.5,7.8-1.5c2.5-1,4.6-2.4,6.5-4.2c1.9-1.8,3.4-3.9,4.4-6.3c1.1-2.4,1.6-5.1,1.6-7.9
		c0-2.9-0.5-5.5-1.6-7.9c-1.1-2.4-2.6-4.5-4.4-6.3c-1.9-1.8-4-3.2-6.5-4.2c-2.5-1-5.1-1.5-7.8-1.5c-2.7,0-5.3,0.5-7.8,1.5
		c-2.5,1-4.6,2.4-6.5,4.2c-1.8,1.8-3.3,3.9-4.4,6.3C319.5,194.2,318.9,196.9,318.9,199.8z"/>
	<path d="M451,235.8h-23.3l-17.9-27.7v27.7H391v-72.1h29.2c4,0,7.5,0.6,10.5,1.8c3,1.2,5.5,2.8,7.4,4.8c1.9,2,3.4,4.4,4.4,7.1
		c1,2.7,1.5,5.5,1.5,8.6c0,5.5-1.3,9.9-4,13.3c-2.6,3.4-6.5,5.7-11.7,6.9L451,235.8z M409.8,195.9h3.5c3.7,0,6.5-0.8,8.5-2.3
		c2-1.5,3-3.7,3-6.6c0-2.9-1-5.1-3-6.6c-2-1.5-4.8-2.3-8.5-2.3h-3.5V195.9z"/>
	<path d="M499.8,179.6h-22.3v12h21v15.9h-21v12.4h22.3v15.9h-41v-72.1h41V179.6z"/>
</g>
</svg>
