<?xml version="1.0" encoding="utf-8"?>
<!-- Generator: Adobe Illustrator 26.5.2, SVG Export Plug-In . SVG Version: 6.00 Build 0)  -->
<svg version="1.1" id="Layer_1" xmlns="http://www.w3.org/2000/svg" xmlns:xlink="http://www.w3.org/1999/xlink" x="0px" y="0px"
	 viewBox="0 0 555 552.4" style="enable-background:new 0 0 555 552.4;" xml:space="preserve">
<path d="M476,0H79C35.5,0,0,35.4,0,79v237.2c0,43.5,35.4,79,79,79h230.3l167,157.2l-3.9-157.2h3.6c43.5,0,79-35.4,79-79V78.9
	C554.9,35.4,519.5,0,476,0z M535.2,316.1c0,32.7-26.6,59.2-59.2,59.2H79c-32.7,0-59.2-26.6-59.2-59.2V78.9
	c0-32.7,26.6-59.2,59.2-59.2h397c32.7,0,59.2,26.6,59.2,59.2V316.1z"/>
<g id="YzI1pJ_00000027598365331805818480000006893335047392174988_">
	<g>
		<g>
			<path d="M404.2,164.9c10.7-24.5,29.4-37.4,56.2-37.1c21.9,0.3,38.3,10.8,49.7,29.6c-2.5,0.6-4.7,1.2-6.8,1.8
				c-6.6,1.7-13.2,3.5-19.8,5.2c-0.4,0.1-1,0-1.3-0.2c-5.2-5.6-11.7-8.6-19.1-9.6c-7.6-1-14.7,0.3-21.2,4.5
				c-6.7,4.4-10.5,10.8-12.2,18.5c-1.7,7.8-1.3,15.6,2,23c4.2,9.5,11.7,14.9,22,16.5c8.6,1.3,16.5-0.4,23.7-5.2
				c2.7-1.8,5-4.1,6.9-6.7c0.2-0.3,0.9-0.7,1.3-0.6c8.8,2.2,17.5,4.5,26.3,6.8c-9.5,21.2-32.8,35.4-59.4,32.6
				c-28.3-3-51.7-25.6-51.7-58.8c-2,3.6-4.2,6.7-7,9.3c-2.8,2.6-6,4.6-9.6,6.4c8.2,13.7,16.5,27.4,24.8,41.2c-0.5,0-0.8,0.1-1.2,0.1
				c-9.3,0-18.6,0-27.8,0c-0.9,0-1.2-0.3-1.6-1c-6.5-11.4-13.1-22.9-19.6-34.3c-0.5-0.9-1-1.3-2.1-1.3c-3.7,0.1-7.4,0.1-11,0
				c-1.2,0-1.4,0.4-1.4,1.5c0,11.1,0,22.3,0,33.4c0,0.5,0,1,0,1.6c-17,0-33.9,0-50.9,0c-1.8-4.8-3.5-9.6-5.3-14.5
				c-1.1-3-1.1-3-4.3-3c-13.3,0-26.7,0-40,0c-1.1,0-1.5,0.3-1.8,1.3c-1.8,5.1-3.7,10.2-5.5,15.3c-0.3,0.7-0.6,0.9-1.3,0.9
				c-34.9,0-69.7,0-104.6,0c-0.3,0-0.6,0-1,0c0-20,0-40,0-60c-0.1,0-0.2,0-0.2-0.1c-0.1,0.2-0.2,0.4-0.3,0.7
				c-4.1,11.2-12.3,18-23.5,21.6c-5.5,1.8-11.2,2.6-17,2.6c-5.3,0-10.6,0-15.9,0c-0.5,0-0.9,0-1.5,0c0,11.8,0,23.5,0,35.2
				c-9,0-17.9,0-26.8,0c0-37.3,0-74.5,0-111.9c0.5,0,1-0.1,1.4-0.1c14.2,0,28.3-0.1,42.5,0c8.9,0.1,17.4,1.6,25.3,6
				c7.5,4.2,12.7,10.3,15.5,18.4c0.1,0.2,0.1,0.3,0.4,0.4c0-8.2,0-16.4,0-24.7c27.3,0,54.4,0,81.5,0c0,8.3,0,16.6,0,25
				c-18.2,0-36.3,0-54.6,0c0,6.2,0,12.2,0,18.4c14.2,0,28.5,0,42.7,0c0,7.9,0,15.6,0,23.4c-14.2,0-28.4,0-42.7,0c0,6.7,0,13.3,0,20
				c18.4,0,36.9,0,55.6,0c0,4.1,0,8,0,11.9c0.1,0,0.2,0,0.3,0.1c0.4-1.1,0.9-2.1,1.3-3.2c12.6-31.5,25.3-63.1,37.9-94.6
				c0.3-0.9,0.8-1.2,1.7-1.2c7.7,0,15.4,0,23.1,0c1,0,1.4,0.4,1.7,1.2c12.8,32,25.6,63.9,38.4,95.9c0.3,0.6,0.5,1.3,1,1.8
				c0-32.9,0-65.8,0-98.8c0.6,0,1.1-0.1,1.6-0.1c13.8,0,27.6-0.1,41.4,0c9.5,0.1,18.6,1.8,26.8,6.7c9.6,5.7,15.1,14.2,16.8,25.2
				C403.9,163,404,164,404.2,164.9z M344.1,181.6c0.3,0,0.6,0.1,0.8,0.1c6.3,0,12.6,0,18.9,0c0.9,0,1.7-0.2,2.6-0.4
				c6-1.3,9.5-6.6,9.7-12.4c0.4-7.7-5.2-13.8-12.9-13.8c-5.9,0-11.9,0-17.8,0c-0.4,0-0.9,0-1.4,0C344.1,164,344.1,172.8,344.1,181.6
				z M71,181.7c0.3,0,0.6,0,0.8,0c5.4,0,10.8,0,16.2,0c2.7,0,5.4-0.7,7.9-1.8c9.2-4.1,9.1-16.6,2.6-21.4c-3.1-2.3-6.6-3.3-10.3-3.3
				c-5.4-0.1-10.9,0-16.3,0c-0.3,0-0.6,0-0.9,0.1C71,164,71,172.8,71,181.7z M251.1,200.9c9,0,17.9,0,26.8,0
				c-4.5-12.8-9-25.4-13.4-37.8C260.1,175.5,255.6,188.2,251.1,200.9z"/>
		</g>
	</g>
</g>
<g>
	<path d="M70.6,277.1l0,0.1c0.1,2.6-1.1,4.8-3.4,6.4c-2.3,1.6-5.5,2.4-9.4,2.4c-4,0-7.3-1-9.8-3.1c-2.5-2-3.8-4.7-3.8-7.9v-5
		c0-3.2,1.2-5.8,3.7-7.9c2.5-2.1,5.7-3.1,9.7-3.1c4.1,0,7.3,0.8,9.6,2.3s3.5,3.7,3.4,6.4l0,0.1H65c0-1.7-0.6-3.1-1.9-4
		s-3.1-1.4-5.5-1.4c-2.3,0-4.2,0.7-5.6,2.1c-1.4,1.4-2.1,3.2-2.1,5.3v5c0,2.2,0.7,3.9,2.1,5.4c1.4,1.4,3.3,2.1,5.7,2.1
		c2.4,0,4.2-0.5,5.4-1.4s1.8-2.3,1.8-4H70.6z"/>
	<path d="M103.6,274.9c0,3.2-1.3,5.8-4,7.9c-2.7,2.1-6.1,3.1-10.4,3.1c-4.1,0-7.5-1-10.1-3.1c-2.6-2.1-3.9-4.7-3.9-7.9v-4.7
		c0-3.2,1.3-5.8,3.9-7.9c2.6-2.1,6-3.2,10.1-3.2c4.2,0,7.7,1.1,10.4,3.2c2.7,2.1,4,4.7,4,7.9V274.9z M97.8,270.2
		c0-2.2-0.8-4-2.3-5.4c-1.5-1.4-3.6-2.1-6.3-2.1c-2.6,0-4.6,0.7-6,2.1c-1.5,1.4-2.2,3.2-2.2,5.4v4.7c0,2.2,0.7,4,2.2,5.4
		c1.5,1.4,3.5,2.1,6,2.1c2.6,0,4.7-0.7,6.3-2.1c1.5-1.4,2.3-3.2,2.3-5.4V270.2z"/>
	<path d="M136.9,285.6h-5.8l-15.3-18.8l-0.1,0v18.8h-5.8v-26.1h5.8l15.3,18.8l0.1,0v-18.8h5.8V285.6z"/>
	<path d="M164.1,274.5h-14v11.1h-5.8v-26.1h22.2v3.5h-16.4v8h14V274.5z"/>
	<path d="M190.8,273.9h-13.6v8.3h16v3.5h-21.8v-26.1h21.6v3.5h-15.8v7.4h13.6V273.9z"/>
	<path d="M204.4,274.8v10.8h-5.8v-26.1h11.9c3.9,0,6.8,0.7,8.9,2s3.2,3.2,3.2,5.6c0,1.4-0.5,2.5-1.4,3.5c-0.9,1-2.3,1.8-4.1,2.3
		c2,0.5,3.4,1.2,4.2,2.3c0.9,1.1,1.3,2.4,1.3,3.9v2.2c0,0.8,0.1,1.5,0.4,2.2s0.7,1.3,1.3,1.7v0.4h-5.9c-0.6-0.4-1-1-1.2-1.8
		c-0.2-0.8-0.3-1.7-0.3-2.5v-2.1c0-1.3-0.5-2.4-1.5-3.2c-1-0.8-2.4-1.2-4.2-1.2H204.4z M204.4,271.3h5.8c2.3,0,4-0.3,5.1-1
		c1.1-0.7,1.6-1.7,1.6-3.1c0-1.3-0.5-2.3-1.6-3.1c-1-0.7-2.6-1.1-4.8-1.1h-6.1V271.3z"/>
	<path d="M249.1,273.9h-13.6v8.3h16v3.5h-21.8v-26.1h21.6v3.5h-15.8v7.4h13.6V273.9z"/>
	<path d="M283.9,285.6h-5.8l-15.3-18.8l-0.1,0v18.8h-5.8v-26.1h5.8l15.3,18.8l0.1,0v-18.8h5.8V285.6z"/>
	<path d="M316.7,277.1l0,0.1c0.1,2.6-1.1,4.8-3.4,6.4c-2.3,1.6-5.5,2.4-9.4,2.4c-4,0-7.3-1-9.8-3.1c-2.5-2-3.8-4.7-3.8-7.9v-5
		c0-3.2,1.2-5.8,3.7-7.9c2.5-2.1,5.7-3.1,9.7-3.1c4.1,0,7.3,0.8,9.6,2.3s3.5,3.7,3.4,6.4l0,0.1h-5.6c0-1.7-0.6-3.1-1.9-4
		s-3.1-1.4-5.5-1.4c-2.3,0-4.2,0.7-5.6,2.1c-1.4,1.4-2.1,3.2-2.1,5.3v5c0,2.2,0.7,3.9,2.1,5.4c1.4,1.4,3.3,2.1,5.7,2.1
		c2.4,0,4.2-0.5,5.4-1.4c1.2-0.9,1.8-2.3,1.8-4H316.7z"/>
	<path d="M341.8,273.9h-13.6v8.3h16v3.5h-21.8v-26.1H344v3.5h-15.8v7.4h13.6V273.9z"/>
	<path d="M380.1,278.9c0-1.1-0.5-2-1.5-2.7c-1-0.7-2.8-1.3-5.4-1.9c-3.7-0.8-6.6-1.8-8.6-3.1s-3-2.9-3-4.9c0-2.1,1.1-3.8,3.3-5.2
		s5.1-2,8.6-2c3.7,0,6.7,0.8,9,2.3c2.2,1.5,3.3,3.4,3.2,5.6l0,0.1H380c0-1.4-0.6-2.5-1.8-3.3c-1.2-0.8-2.8-1.2-4.8-1.2
		c-2,0-3.5,0.3-4.5,1c-1.1,0.7-1.6,1.6-1.6,2.7c0,1,0.6,1.8,1.7,2.5s3.1,1.3,5.8,1.9c3.6,0.8,6.4,1.8,8.3,3.1s2.9,3,2.9,5.1
		c0,2.2-1.1,3.9-3.4,5.2c-2.3,1.3-5.2,1.9-8.9,1.9c-3.5,0-6.6-0.7-9.2-2.1s-3.9-3.4-3.8-6l0-0.1h5.6c0,1.6,0.7,2.7,2.2,3.5
		c1.4,0.8,3.2,1.2,5.2,1.2c2,0,3.6-0.3,4.8-1C379.5,280.9,380.1,280.1,380.1,278.9z"/>
	<path d="M411.3,273.9h-13.6v8.3h16v3.5h-21.8v-26.1h21.6v3.5h-15.8v7.4h13.6V273.9z"/>
	<path d="M424.9,274.8v10.8h-5.8v-26.1H431c3.9,0,6.8,0.7,8.9,2s3.2,3.2,3.2,5.6c0,1.4-0.5,2.5-1.4,3.5c-0.9,1-2.3,1.8-4.1,2.3
		c2,0.5,3.4,1.2,4.2,2.3c0.9,1.1,1.3,2.4,1.3,3.9v2.2c0,0.8,0.1,1.5,0.4,2.2c0.3,0.7,0.7,1.3,1.3,1.7v0.4h-5.9c-0.6-0.4-1-1-1.2-1.8
		c-0.2-0.8-0.3-1.7-0.3-2.5v-2.1c0-1.3-0.5-2.4-1.5-3.2c-1-0.8-2.4-1.2-4.2-1.2H424.9z M424.9,271.3h5.8c2.3,0,4-0.3,5.1-1
		c1.1-0.7,1.6-1.7,1.6-3.1c0-1.3-0.5-2.3-1.6-3.1c-1-0.7-2.6-1.1-4.8-1.1h-6.1V271.3z"/>
	<path d="M456.5,285.6h-5.8v-26.1h5.8V285.6z"/>
	<path d="M483.7,273.9h-13.6v8.3h16v3.5h-21.8v-26.1H486v3.5h-15.8v7.4h13.6V273.9z"/>
	<path d="M509.8,278.9c0-1.1-0.5-2-1.5-2.7c-1-0.7-2.8-1.3-5.4-1.9c-3.7-0.8-6.6-1.8-8.6-3.1s-3-2.9-3-4.9c0-2.1,1.1-3.8,3.3-5.2
		s5.1-2,8.6-2c3.7,0,6.7,0.8,9,2.3c2.2,1.5,3.3,3.4,3.2,5.6l0,0.1h-5.6c0-1.4-0.6-2.5-1.8-3.3c-1.2-0.8-2.8-1.2-4.8-1.2
		c-2,0-3.5,0.3-4.5,1c-1.1,0.7-1.6,1.6-1.6,2.7c0,1,0.6,1.8,1.7,2.5s3.1,1.3,5.8,1.9c3.6,0.8,6.4,1.8,8.3,3.1s2.9,3,2.9,5.1
		c0,2.2-1.1,3.9-3.4,5.2c-2.3,1.3-5.2,1.9-8.9,1.9c-3.5,0-6.6-0.7-9.2-2.1s-3.9-3.4-3.8-6l0-0.1h5.6c0,1.6,0.7,2.7,2.2,3.5
		c1.4,0.8,3.2,1.2,5.2,1.2c2,0,3.6-0.3,4.8-1C509.2,280.9,509.8,280.1,509.8,278.9z"/>
</g>
</svg>
