<?xml version="1.0" encoding="utf-8"?>
<!-- Generator: Adobe Illustrator 28.3.0, SVG Export Plug-In . SVG Version: 6.00 Build 0)  -->
<svg version="1.1" id="Layer_1" xmlns="http://www.w3.org/2000/svg" xmlns:xlink="http://www.w3.org/1999/xlink" x="0px" y="0px"
	 viewBox="0 0 554.9 551" style="enable-background:new 0 0 554.9 551;" xml:space="preserve">
<style type="text/css">
	.st0{fill:none;}
	.st1{enable-background:new    ;}
	.st2{stroke:#000000;stroke-width:2;stroke-miterlimit:10;}
	.st3{font-family:'Poppins-SemiBold';}
	.st4{font-size:96.6644px;}
	.st5{fill:#D6002A;stroke:#D6002A;stroke-width:4;stroke-miterlimit:10;}
	.st6{font-size:78.2449px;}
</style>
<g>
	<path class="st0" d="M475.9,19.7H79c-32.7,0-59.2,26.6-59.2,59.2v235.6c0,32.7,26.6,59.2,59.2,59.2h396.9
		c32.7,0,59.2-26.6,59.2-59.2V79C535.1,46.3,508.6,19.7,475.9,19.7z"/>
	<polygon points="88.7,551 249.4,393.5 84,393.5 	"/>
	<path d="M475.9,0H79C35.5,0,0,35.4,0,79v235.6c0,43.5,35.4,79,79,79h5l-0.3-9.9h175.8l-10.1,9.9h226.5c43.5,0,79-35.4,79-79V79
		C554.9,35.4,519.5,0,475.9,0z M535.1,314.6c0,32.7-26.6,59.2-59.2,59.2H79c-32.7,0-59.2-26.6-59.2-59.2V79
		c0-32.7,26.6-59.2,59.2-59.2h396.9c32.7,0,59.2,26.6,59.2,59.2V314.6z"/>
	<polygon points="83.7,383.7 84,393.5 249.4,393.5 259.5,383.7 	"/>
</g>
<g class="st1">
	<path d="M75.7,144.9H56.9V72.8h29.8c8.1,0,14.3,2.1,18.6,6.3c4.3,4.2,6.5,10.1,6.5,17.8s-2.2,13.6-6.5,17.8
		c-4.3,4.2-10.5,6.3-18.6,6.3h-11V144.9z M75.7,105.9h6.2c6.9,0,10.3-3,10.3-9s-3.4-9-10.3-9h-6.2V105.9z"/>
	<path d="M118.5,108.9c0-5.4,1-10.3,3-15c2-4.6,4.7-8.7,8.2-12.1s7.7-6.1,12.6-8.1c4.9-1.9,10.2-2.9,16.1-2.9c5.8,0,11.2,1,16.1,2.9
		c4.9,1.9,9.1,4.6,12.7,8.1s6.3,7.5,8.3,12.1s3,9.6,3,15s-1,10.3-3,15c-2,4.6-4.7,8.7-8.3,12.1s-7.8,6.1-12.7,8.1
		c-4.9,1.9-10.3,2.9-16.1,2.9c-5.9,0-11.2-1-16.1-2.9c-4.9-1.9-9.1-4.6-12.6-8.1c-3.5-3.4-6.2-7.5-8.2-12.1
		C119.5,119.2,118.5,114.2,118.5,108.9z M138.1,108.9c0,2.9,0.5,5.5,1.6,7.9s2.5,4.5,4.4,6.3c1.8,1.8,4,3.2,6.5,4.2s5.1,1.5,7.8,1.5
		s5.3-0.5,7.8-1.5s4.6-2.4,6.5-4.2c1.9-1.8,3.4-3.9,4.4-6.3c1.1-2.4,1.6-5.1,1.6-7.9c0-2.9-0.5-5.5-1.6-7.9s-2.6-4.5-4.4-6.3
		c-1.9-1.8-4-3.2-6.5-4.2s-5.1-1.5-7.8-1.5s-5.3,0.5-7.8,1.5s-4.6,2.4-6.5,4.2c-1.8,1.8-3.3,3.9-4.4,6.3
		C138.7,103.3,138.1,106,138.1,108.9z"/>
	<path d="M249.8,91.3c-2-1.7-4.1-2.9-6.1-3.7c-2-0.8-4-1.2-5.9-1.2c-2.4,0-4.4,0.6-5.9,1.7s-2.3,2.6-2.3,4.5c0,1.3,0.4,2.3,1.1,3.2
		c0.8,0.8,1.8,1.5,3,2.2c1.2,0.6,2.6,1.1,4.2,1.6c1.6,0.4,3.1,0.9,4.6,1.4c6.1,2,10.6,4.8,13.4,8.2c2.8,3.4,4.3,7.9,4.3,13.3
		c0,3.7-0.6,7-1.9,10c-1.2,3-3.1,5.6-5.5,7.7c-2.4,2.1-5.3,3.8-8.8,5s-7.4,1.8-11.8,1.8c-9.1,0-17.6-2.7-25.3-8.1l8-15.1
		c2.8,2.5,5.6,4.3,8.3,5.5c2.7,1.2,5.5,1.8,8.1,1.8c3.1,0,5.3-0.7,6.8-2.1c1.5-1.4,2.2-3,2.2-4.8c0-1.1-0.2-2-0.6-2.8
		c-0.4-0.8-1-1.5-1.9-2.2s-2.1-1.3-3.5-1.9s-3.2-1.2-5.2-1.9c-2.4-0.8-4.8-1.6-7.1-2.5s-4.4-2.2-6.2-3.7s-3.3-3.5-4.4-5.8
		c-1.1-2.3-1.7-5.3-1.7-8.8c0-3.6,0.6-6.8,1.8-9.7c1.2-2.9,2.8-5.4,5-7.5c2.1-2.1,4.7-3.7,7.8-4.8c3.1-1.1,6.5-1.7,10.4-1.7
		c3.6,0,7.3,0.5,11.2,1.5s7.6,2.4,11.2,4.4L249.8,91.3z"/>
	<path d="M299.8,88.7v56.2h-18.7V88.7h-15.4V72.8h49.5v15.9H299.8z"/>
</g>
<g class="st1">
	<path d="M96.5,191.1H74.2v12h21V219h-21v12.4h22.3v15.9h-41v-72.1h41V191.1z"/>
	<path d="M130.6,208.9l-22.5-33.7h23.1l9.8,18.6l12-18.6h23.1l-23.8,33.7l26.9,38.4h-22.9l-14.4-23.5L125,247.3h-22.7L130.6,208.9z"
		/>
	<path d="M205.6,247.3h-18.7v-72.1h29.8c8.1,0,14.3,2.1,18.6,6.3c4.3,4.2,6.5,10.1,6.5,17.8c0,7.7-2.2,13.6-6.5,17.8
		c-4.3,4.2-10.5,6.3-18.6,6.3h-11.1V247.3z M205.6,208.3h6.2c6.9,0,10.3-3,10.3-9s-3.4-9-10.3-9h-6.2V208.3z"/>
	<path d="M270.4,175.2v56.2h22.5v15.9h-41.2v-72.1H270.4L270.4,175.2z"/>
	<path d="M297.8,211.3c0-5.4,1-10.3,3-15c2-4.6,4.7-8.7,8.2-12.1c3.5-3.4,7.7-6.1,12.6-8.1c4.9-1.9,10.2-2.9,16.1-2.9
		c5.8,0,11.2,1,16.1,2.9s9.1,4.6,12.7,8.1s6.3,7.5,8.3,12.1s3,9.6,3,15s-1,10.3-3,15c-2,4.6-4.7,8.7-8.3,12.1
		c-3.6,3.4-7.8,6.1-12.7,8.1c-4.9,1.9-10.3,2.9-16.1,2.9c-5.9,0-11.2-1-16.1-2.9s-9.1-4.6-12.6-8.1c-3.5-3.4-6.2-7.5-8.2-12.1
		C298.8,221.6,297.8,216.6,297.8,211.3z M317.4,211.3c0,2.9,0.5,5.5,1.6,7.9s2.5,4.5,4.4,6.3c1.8,1.8,4,3.2,6.5,4.2s5.1,1.5,7.8,1.5
		c2.7,0,5.3-0.5,7.8-1.5s4.6-2.4,6.5-4.2c1.9-1.8,3.4-3.9,4.4-6.3c1.1-2.4,1.6-5.1,1.6-7.9c0-2.9-0.5-5.5-1.6-7.9s-2.6-4.5-4.4-6.3
		c-1.9-1.8-4-3.2-6.5-4.2s-5.1-1.5-7.8-1.5c-2.7,0-5.3,0.5-7.8,1.5s-4.6,2.4-6.5,4.2c-1.8,1.8-3.3,3.9-4.4,6.3
		C318,205.7,317.4,208.4,317.4,211.3z"/>
	<path d="M449.5,247.3h-23.3l-17.9-27.7v27.7h-18.8v-72.1h29.2c4,0,7.5,0.6,10.5,1.8c3,1.2,5.5,2.8,7.4,4.8s3.4,4.4,4.4,7.1
		c1,2.7,1.5,5.5,1.5,8.6c0,5.5-1.3,9.9-4,13.3c-2.6,3.4-6.5,5.7-11.7,6.9L449.5,247.3z M408.3,207.4h3.5c3.7,0,6.5-0.8,8.5-2.3
		s3-3.7,3-6.6c0-2.9-1-5.1-3-6.6s-4.8-2.3-8.5-2.3h-3.5V207.4z"/>
	<path d="M498.3,191.1H476v12h21V219h-21v12.4h22.3v15.9h-41v-72.1h41V191.1z"/>
</g>
<g class="st1">
	<path d="M75.7,144.9H56.9V72.8h29.8c8.1,0,14.3,2.1,18.6,6.3c4.3,4.2,6.5,10.1,6.5,17.8s-2.2,13.6-6.5,17.8
		c-4.3,4.2-10.5,6.3-18.6,6.3h-11V144.9z M75.7,105.9h6.2c6.9,0,10.3-3,10.3-9s-3.4-9-10.3-9h-6.2V105.9z"/>
	<path d="M118.5,108.9c0-5.4,1-10.3,3-15c2-4.6,4.7-8.7,8.2-12.1s7.7-6.1,12.6-8.1c4.9-1.9,10.2-2.9,16.1-2.9c5.8,0,11.2,1,16.1,2.9
		c4.9,1.9,9.1,4.6,12.7,8.1s6.3,7.5,8.3,12.1s3,9.6,3,15s-1,10.3-3,15c-2,4.6-4.7,8.7-8.3,12.1s-7.8,6.1-12.7,8.1
		c-4.9,1.9-10.3,2.9-16.1,2.9c-5.9,0-11.2-1-16.1-2.9c-4.9-1.9-9.1-4.6-12.6-8.1c-3.5-3.4-6.2-7.5-8.2-12.1
		C119.5,119.2,118.5,114.2,118.5,108.9z M138.1,108.9c0,2.9,0.5,5.5,1.6,7.9s2.5,4.5,4.4,6.3c1.8,1.8,4,3.2,6.5,4.2s5.1,1.5,7.8,1.5
		s5.3-0.5,7.8-1.5s4.6-2.4,6.5-4.2c1.9-1.8,3.4-3.9,4.4-6.3c1.1-2.4,1.6-5.1,1.6-7.9c0-2.9-0.5-5.5-1.6-7.9s-2.6-4.5-4.4-6.3
		c-1.9-1.8-4-3.2-6.5-4.2s-5.1-1.5-7.8-1.5s-5.3,0.5-7.8,1.5s-4.6,2.4-6.5,4.2c-1.8,1.8-3.3,3.9-4.4,6.3
		C138.7,103.3,138.1,106,138.1,108.9z"/>
	<path d="M249.8,91.3c-2-1.7-4.1-2.9-6.1-3.7c-2-0.8-4-1.2-5.9-1.2c-2.4,0-4.4,0.6-5.9,1.7s-2.3,2.6-2.3,4.5c0,1.3,0.4,2.3,1.1,3.2
		c0.8,0.8,1.8,1.5,3,2.2c1.2,0.6,2.6,1.1,4.2,1.6c1.6,0.4,3.1,0.9,4.6,1.4c6.1,2,10.6,4.8,13.4,8.2c2.8,3.4,4.3,7.9,4.3,13.3
		c0,3.7-0.6,7-1.9,10c-1.2,3-3.1,5.6-5.5,7.7c-2.4,2.1-5.3,3.8-8.8,5s-7.4,1.8-11.8,1.8c-9.1,0-17.6-2.7-25.3-8.1l8-15.1
		c2.8,2.5,5.6,4.3,8.3,5.5c2.7,1.2,5.5,1.8,8.1,1.8c3.1,0,5.3-0.7,6.8-2.1c1.5-1.4,2.2-3,2.2-4.8c0-1.1-0.2-2-0.6-2.8
		c-0.4-0.8-1-1.5-1.9-2.2s-2.1-1.3-3.5-1.9s-3.2-1.2-5.2-1.9c-2.4-0.8-4.8-1.6-7.1-2.5s-4.4-2.2-6.2-3.7s-3.3-3.5-4.4-5.8
		c-1.1-2.3-1.7-5.3-1.7-8.8c0-3.6,0.6-6.8,1.8-9.7c1.2-2.9,2.8-5.4,5-7.5c2.1-2.1,4.7-3.7,7.8-4.8c3.1-1.1,6.5-1.7,10.4-1.7
		c3.6,0,7.3,0.5,11.2,1.5s7.6,2.4,11.2,4.4L249.8,91.3z"/>
	<path d="M299.8,88.7v56.2h-18.7V88.7h-15.4V72.8h49.5v15.9H299.8z"/>
</g>
<g class="st1">
	<path d="M96.5,191.1H74.2v12h21V219h-21v12.4h22.3v15.9h-41v-72.1h41V191.1z"/>
	<path d="M130.6,208.9l-22.5-33.7h23.1l9.8,18.6l12-18.6h23.1l-23.8,33.7l26.9,38.4h-22.9l-14.4-23.5L125,247.3h-22.7L130.6,208.9z"
		/>
	<path d="M205.6,247.3h-18.7v-72.1h29.8c8.1,0,14.3,2.1,18.6,6.3c4.3,4.2,6.5,10.1,6.5,17.8c0,7.7-2.2,13.6-6.5,17.8
		c-4.3,4.2-10.5,6.3-18.6,6.3h-11.1V247.3z M205.6,208.3h6.2c6.9,0,10.3-3,10.3-9s-3.4-9-10.3-9h-6.2V208.3z"/>
	<path d="M270.4,175.2v56.2h22.5v15.9h-41.2v-72.1H270.4L270.4,175.2z"/>
	<path d="M297.8,211.3c0-5.4,1-10.3,3-15c2-4.6,4.7-8.7,8.2-12.1c3.5-3.4,7.7-6.1,12.6-8.1c4.9-1.9,10.2-2.9,16.1-2.9
		c5.8,0,11.2,1,16.1,2.9s9.1,4.6,12.7,8.1s6.3,7.5,8.3,12.1s3,9.6,3,15s-1,10.3-3,15c-2,4.6-4.7,8.7-8.3,12.1
		c-3.6,3.4-7.8,6.1-12.7,8.1c-4.9,1.9-10.3,2.9-16.1,2.9c-5.9,0-11.2-1-16.1-2.9s-9.1-4.6-12.6-8.1c-3.5-3.4-6.2-7.5-8.2-12.1
		C298.8,221.6,297.8,216.6,297.8,211.3z M317.4,211.3c0,2.9,0.5,5.5,1.6,7.9s2.5,4.5,4.4,6.3c1.8,1.8,4,3.2,6.5,4.2s5.1,1.5,7.8,1.5
		c2.7,0,5.3-0.5,7.8-1.5s4.6-2.4,6.5-4.2c1.9-1.8,3.4-3.9,4.4-6.3c1.1-2.4,1.6-5.1,1.6-7.9c0-2.9-0.5-5.5-1.6-7.9s-2.6-4.5-4.4-6.3
		c-1.9-1.8-4-3.2-6.5-4.2s-5.1-1.5-7.8-1.5c-2.7,0-5.3,0.5-7.8,1.5s-4.6,2.4-6.5,4.2c-1.8,1.8-3.3,3.9-4.4,6.3
		C318,205.7,317.4,208.4,317.4,211.3z"/>
	<path d="M449.5,247.3h-23.3l-17.9-27.7v27.7h-18.8v-72.1h29.2c4,0,7.5,0.6,10.5,1.8c3,1.2,5.5,2.8,7.4,4.8s3.4,4.4,4.4,7.1
		c1,2.7,1.5,5.5,1.5,8.6c0,5.5-1.3,9.9-4,13.3c-2.6,3.4-6.5,5.7-11.7,6.9L449.5,247.3z M408.3,207.4h3.5c3.7,0,6.5-0.8,8.5-2.3
		s3-3.7,3-6.6c0-2.9-1-5.1-3-6.6s-4.8-2.3-8.5-2.3h-3.5V207.4z"/>
	<path d="M498.3,191.1H476v12h21V219h-21v12.4h22.3v15.9h-41v-72.1h41V191.1z"/>
</g>
<text transform="matrix(1 0 0 1 330.0454 141.9014)" class="st2 st3 st4">&amp;</text>
<text transform="matrix(1 0 0 1 49.2433 329.6306)" class="st5 st3 st6">RESOURCES</text>
<g class="st1">
	<path d="M75.7,140.9H56.9V68.8h29.8c8.1,0,14.3,2.1,18.6,6.3c4.3,4.2,6.5,10.1,6.5,17.8s-2.2,13.6-6.5,17.8
		c-4.3,4.2-10.5,6.3-18.6,6.3h-11V140.9z M75.7,101.9h6.2c6.9,0,10.3-3,10.3-9s-3.4-9-10.3-9h-6.2V101.9z"/>
	<path d="M118.5,104.9c0-5.4,1-10.3,3-15c2-4.6,4.7-8.7,8.2-12.1s7.7-6.1,12.6-8.1c4.9-1.9,10.2-2.9,16.1-2.9c5.8,0,11.2,1,16.1,2.9
		c4.9,1.9,9.1,4.6,12.7,8.1s6.3,7.5,8.3,12.1s3,9.6,3,15s-1,10.3-3,15c-2,4.6-4.7,8.7-8.3,12.1s-7.8,6.1-12.7,8.1
		c-4.9,1.9-10.3,2.9-16.1,2.9c-5.9,0-11.2-1-16.1-2.9c-4.9-1.9-9.1-4.6-12.6-8.1c-3.5-3.4-6.2-7.5-8.2-12.1
		C119.5,115.2,118.5,110.2,118.5,104.9z M138.1,104.9c0,2.9,0.5,5.5,1.6,7.9s2.5,4.5,4.4,6.3c1.8,1.8,4,3.2,6.5,4.2s5.1,1.5,7.8,1.5
		s5.3-0.5,7.8-1.5s4.6-2.4,6.5-4.2c1.9-1.8,3.4-3.9,4.4-6.3c1.1-2.4,1.6-5.1,1.6-7.9c0-2.9-0.5-5.5-1.6-7.9s-2.6-4.5-4.4-6.3
		c-1.9-1.8-4-3.2-6.5-4.2s-5.1-1.5-7.8-1.5s-5.3,0.5-7.8,1.5s-4.6,2.4-6.5,4.2c-1.8,1.8-3.3,3.9-4.4,6.3
		C138.7,99.3,138.1,102,138.1,104.9z"/>
	<path d="M249.8,87.3c-2-1.7-4.1-2.9-6.1-3.7c-2-0.8-4-1.2-5.9-1.2c-2.4,0-4.4,0.6-5.9,1.7s-2.3,2.6-2.3,4.5c0,1.3,0.4,2.3,1.1,3.2
		c0.8,0.8,1.8,1.5,3,2.2c1.2,0.6,2.6,1.1,4.2,1.6c1.6,0.4,3.1,0.9,4.6,1.4c6.1,2,10.6,4.8,13.4,8.2c2.8,3.4,4.3,7.9,4.3,13.3
		c0,3.7-0.6,7-1.9,10c-1.2,3-3.1,5.6-5.5,7.7c-2.4,2.1-5.3,3.8-8.8,5s-7.4,1.8-11.8,1.8c-9.1,0-17.6-2.7-25.3-8.1l8-15.1
		c2.8,2.5,5.6,4.3,8.3,5.5s5.5,1.8,8.1,1.8c3.1,0,5.3-0.7,6.8-2.1s2.2-3,2.2-4.8c0-1.1-0.2-2-0.6-2.8c-0.4-0.8-1-1.5-1.9-2.2
		s-2.1-1.3-3.5-1.9s-3.2-1.2-5.2-1.9c-2.4-0.8-4.8-1.6-7.1-2.5s-4.4-2.2-6.2-3.7s-3.3-3.5-4.4-5.8c-1.1-2.3-1.7-5.3-1.7-8.8
		c0-3.6,0.6-6.8,1.8-9.7c1.2-2.9,2.8-5.4,5-7.5c2.1-2.1,4.7-3.7,7.8-4.8c3.1-1.1,6.5-1.7,10.4-1.7c3.6,0,7.3,0.5,11.2,1.5
		s7.6,2.4,11.2,4.4L249.8,87.3z"/>
	<path d="M299.8,84.7v56.2h-18.7V84.7h-15.4V68.8h49.5v15.9H299.8z"/>
</g>
<g class="st1">
	<path d="M96.5,187.1H74.2v12h21V215h-21v12.4h22.3v15.9h-41v-72.1h41V187.1z"/>
	<path d="M130.6,204.9l-22.5-33.7h23.1l9.8,18.6l12-18.6h23.1l-23.8,33.7l26.9,38.4h-22.9l-14.4-23.5L125,243.3h-22.7L130.6,204.9z"
		/>
	<path d="M205.6,243.3h-18.7v-72.1h29.8c8.1,0,14.3,2.1,18.6,6.3c4.3,4.2,6.5,10.1,6.5,17.8c0,7.7-2.2,13.6-6.5,17.8
		c-4.3,4.2-10.5,6.3-18.6,6.3h-11.1V243.3z M205.6,204.3h6.2c6.9,0,10.3-3,10.3-9s-3.4-9-10.3-9h-6.2V204.3z"/>
	<path d="M270.4,171.2v56.2h22.5v15.9h-41.2v-72.1H270.4L270.4,171.2z"/>
	<path d="M297.8,207.3c0-5.4,1-10.3,3-15c2-4.6,4.7-8.7,8.2-12.1c3.5-3.4,7.7-6.1,12.6-8.1c4.9-1.9,10.2-2.9,16.1-2.9
		c5.8,0,11.2,1,16.1,2.9s9.1,4.6,12.7,8.1s6.3,7.5,8.3,12.1s3,9.6,3,15s-1,10.3-3,15c-2,4.6-4.7,8.7-8.3,12.1
		c-3.6,3.4-7.8,6.1-12.7,8.1c-4.9,1.9-10.3,2.9-16.1,2.9c-5.9,0-11.2-1-16.1-2.9s-9.1-4.6-12.6-8.1c-3.5-3.4-6.2-7.5-8.2-12.1
		C298.8,217.6,297.8,212.6,297.8,207.3z M317.4,207.3c0,2.9,0.5,5.5,1.6,7.9s2.5,4.5,4.4,6.3c1.8,1.8,4,3.2,6.5,4.2s5.1,1.5,7.8,1.5
		c2.7,0,5.3-0.5,7.8-1.5s4.6-2.4,6.5-4.2c1.9-1.8,3.4-3.9,4.4-6.3c1.1-2.4,1.6-5.1,1.6-7.9c0-2.9-0.5-5.5-1.6-7.9s-2.6-4.5-4.4-6.3
		c-1.9-1.8-4-3.2-6.5-4.2s-5.1-1.5-7.8-1.5c-2.7,0-5.3,0.5-7.8,1.5s-4.6,2.4-6.5,4.2c-1.8,1.8-3.3,3.9-4.4,6.3
		C318,201.7,317.4,204.4,317.4,207.3z"/>
	<path d="M449.5,243.3h-23.3l-17.9-27.7v27.7h-18.8v-72.1h29.2c4,0,7.5,0.6,10.5,1.8c3,1.2,5.5,2.8,7.4,4.8s3.4,4.4,4.4,7.1
		c1,2.7,1.5,5.5,1.5,8.6c0,5.5-1.3,9.9-4,13.3c-2.6,3.4-6.5,5.7-11.7,6.9L449.5,243.3z M408.3,203.4h3.5c3.7,0,6.5-0.8,8.5-2.3
		s3-3.7,3-6.6c0-2.9-1-5.1-3-6.6s-4.8-2.3-8.5-2.3h-3.5V203.4z"/>
	<path d="M498.3,187.1H476v12h21V215h-21v12.4h22.3v15.9h-41v-72.1h41V187.1z"/>
</g>
<text transform="matrix(1 0 0 1 330.0454 141.9014)" class="st2 st3 st4">&amp;</text>
<text transform="matrix(1 0 0 1 49.2433 329.6306)" class="st5 st3 st6">RESOURCES</text>
<g>
	<path class="st2" d="M388.6,137.9l-7.3-7.2c-6.3,5.6-13.9,8.4-22.9,8.4c-5,0-9.3-0.9-13.1-2.6c-3.8-1.7-6.7-4.1-8.7-7.2
		c-2.1-3.1-3.1-6.8-3.1-10.9c0-4.4,1.3-8.4,3.8-12c2.5-3.5,6.2-6.4,11.1-8.6c-1.7-2.1-3-4.2-3.8-6.1c-0.8-2-1.2-4.1-1.2-6.3
		c0-3.1,0.8-5.9,2.4-8.4c1.6-2.5,3.9-4.4,6.9-5.8c3-1.4,6.5-2.1,10.5-2.1c4.1,0,7.5,0.8,10.4,2.3c2.9,1.5,5.1,3.6,6.5,6.2
		c1.4,2.6,2,5.4,1.8,8.6h-13.1c0.1-2.1-0.5-3.8-1.5-4.9c-1.1-1.1-2.6-1.7-4.4-1.7c-1.8,0-3.3,0.5-4.5,1.6c-1.2,1.1-1.8,2.4-1.8,4.1
		c0,1.6,0.5,3.2,1.4,4.8c1,1.6,2.5,3.5,4.7,5.8l17,16.8c0.1-0.1,0.2-0.3,0.3-0.4c0.1-0.1,0.1-0.3,0.2-0.4l5.5-9.2h14.1l-6.8,11.9
		c-1.3,2.5-2.7,4.9-4.2,7.2l16.3,16.1H388.6z M372.8,122.2l-16.6-16.4c-6.3,2.8-9.4,6.7-9.4,11.8c0,2.9,1.1,5.3,3.3,7.3
		c2.2,2,5.1,2.9,8.7,2.9C364,127.8,368.7,126,372.8,122.2z"/>
</g>
<g>
	<path class="st5" d="M82.8,329.6l-12-21.3h-5.2v21.3h-11V275h20.5c4.2,0,7.8,0.7,10.8,2.2c3,1.5,5.2,3.5,6.7,6
		c1.5,2.5,2.2,5.4,2.2,8.5c0,3.6-1,6.8-3.1,9.7c-2.1,2.9-5.2,4.9-9.3,6l13.1,22.1H82.8z M65.6,300.1h9.2c3,0,5.2-0.7,6.7-2.2
		c1.5-1.4,2.2-3.4,2.2-6c0-2.5-0.7-4.4-2.2-5.8c-1.5-1.4-3.7-2.1-6.7-2.1h-9.2V300.1z"/>
	<path class="st5" d="M115.8,283.9v13.7h18.4v8.7h-18.4v14.5h20.7v8.9h-31.7v-54.7h31.7v8.9H115.8z"/>
	<path class="st5" d="M155,328.2c-3.1-1.3-5.5-3.2-7.2-5.6c-1.8-2.5-2.7-5.3-2.7-8.7h11.7c0.2,2.2,1,4,2.4,5.3c1.4,1.3,3.4,2,5.9,2
		c2.6,0,4.6-0.6,6-1.8c1.5-1.2,2.2-2.8,2.2-4.8c0-1.6-0.5-2.9-1.5-4c-1-1-2.2-1.9-3.7-2.5c-1.5-0.6-3.5-1.3-6.1-2
		c-3.5-1-6.4-2.1-8.6-3.1c-2.2-1-4.1-2.6-5.7-4.6c-1.6-2.1-2.4-4.8-2.4-8.3c0-3.2,0.8-6.1,2.4-8.5c1.6-2.4,3.9-4.2,6.8-5.5
		c2.9-1.3,6.3-1.9,10-1.9c5.6,0,10.2,1.4,13.7,4.1c3.5,2.7,5.5,6.6,5.8,11.5h-12c-0.1-1.9-0.9-3.4-2.4-4.7c-1.5-1.2-3.5-1.8-5.9-1.8
		c-2.1,0-3.8,0.5-5.1,1.6c-1.3,1.1-1.9,2.7-1.9,4.8c0,1.5,0.5,2.7,1.4,3.6c1,1,2.2,1.7,3.6,2.3c1.4,0.6,3.5,1.3,6.1,2.1
		c3.5,1,6.4,2.1,8.7,3.1c2.2,1,4.2,2.6,5.8,4.7c1.6,2.1,2.4,4.8,2.4,8.2c0,2.9-0.8,5.6-2.3,8.1c-1.5,2.5-3.7,4.5-6.7,6
		c-2.9,1.5-6.4,2.2-10.4,2.2C161.5,330.2,158,329.5,155,328.2z"/>
	<path class="st5" d="M205.3,326.6c-4.3-2.4-7.7-5.7-10.2-10c-2.5-4.3-3.8-9.1-3.8-14.4c0-5.3,1.3-10.1,3.8-14.4
		c2.5-4.3,5.9-7.6,10.2-10c4.3-2.4,9-3.6,14.1-3.6c5.2,0,9.9,1.2,14.1,3.6c4.3,2.4,7.6,5.7,10.1,10c2.5,4.3,3.7,9,3.7,14.4
		c0,5.4-1.2,10.2-3.7,14.4c-2.5,4.3-5.9,7.6-10.1,10c-4.3,2.4-9,3.6-14.1,3.6C214.3,330.2,209.6,329,205.3,326.6z M228.1,318.2
		c2.5-1.5,4.5-3.6,5.9-6.4c1.4-2.8,2.1-6,2.1-9.6c0-3.7-0.7-6.8-2.1-9.6c-1.4-2.7-3.4-4.8-5.9-6.3c-2.5-1.5-5.4-2.2-8.7-2.2
		c-3.3,0-6.2,0.7-8.7,2.2c-2.5,1.5-4.5,3.6-5.9,6.3c-1.4,2.7-2.1,5.9-2.1,9.6c0,3.7,0.7,6.9,2.1,9.6c1.4,2.8,3.4,4.9,5.9,6.4
		c2.5,1.5,5.4,2.2,8.7,2.2C222.7,320.4,225.6,319.7,228.1,318.2z"/>
	<path class="st5" d="M266.3,275v33.8c0,3.7,1,6.5,2.9,8.5c1.9,2,4.6,2.9,8.1,2.9c3.5,0,6.3-1,8.2-2.9c1.9-2,2.9-4.8,2.9-8.5V275h11
		v33.7c0,4.6-1,8.6-3,11.8c-2,3.2-4.7,5.6-8.1,7.2c-3.4,1.6-7.1,2.4-11.2,2.4c-4.1,0-7.8-0.8-11.1-2.4c-3.3-1.6-5.9-4-7.9-7.2
		c-1.9-3.2-2.9-7.1-2.9-11.8V275H266.3z"/>
	<path class="st5" d="M338.2,329.6l-12-21.3H321v21.3h-11V275h20.5c4.2,0,7.8,0.7,10.8,2.2c3,1.5,5.2,3.5,6.7,6
		c1.5,2.5,2.2,5.4,2.2,8.5c0,3.6-1,6.8-3.1,9.7c-2.1,2.9-5.2,4.9-9.3,6l13.1,22.1H338.2z M321,300.1h9.2c3,0,5.2-0.7,6.7-2.2
		c1.5-1.4,2.2-3.4,2.2-6c0-2.5-0.7-4.4-2.2-5.8c-1.5-1.4-3.7-2.1-6.7-2.1H321V300.1z"/>
	<path class="st5" d="M361.2,287.8c2.4-4.3,5.7-7.6,9.9-9.9c4.2-2.4,8.9-3.6,14.1-3.6c6.1,0,11.4,1.6,16,4.7c4.6,3.1,7.8,7.5,9.6,13
		h-12.6c-1.3-2.6-3-4.6-5.3-5.9s-4.9-2-7.9-2c-3.2,0-6,0.7-8.5,2.2s-4.4,3.6-5.8,6.3c-1.4,2.7-2.1,5.9-2.1,9.5
		c0,3.6,0.7,6.8,2.1,9.5c1.4,2.7,3.3,4.9,5.8,6.3s5.3,2.2,8.5,2.2c3,0,5.6-0.7,7.9-2s4-3.3,5.3-5.9h12.6c-1.8,5.6-5,9.9-9.6,13
		c-4.6,3.1-9.9,4.7-16.1,4.7c-5.2,0-9.9-1.2-14.1-3.6c-4.2-2.4-7.5-5.7-9.9-9.9c-2.4-4.2-3.6-9-3.6-14.4
		C357.5,296.9,358.7,292.1,361.2,287.8z"/>
	<path class="st5" d="M431.2,283.9v13.7h18.4v8.7h-18.4v14.5H452v8.9h-31.7v-54.7H452v8.9H431.2z"/>
	<path class="st5" d="M470.5,328.2c-3.1-1.3-5.5-3.2-7.2-5.6c-1.8-2.5-2.7-5.3-2.7-8.7h11.7c0.2,2.2,1,4,2.4,5.3s3.4,2,5.9,2
		c2.6,0,4.6-0.6,6-1.8c1.5-1.2,2.2-2.8,2.2-4.8c0-1.6-0.5-2.9-1.5-4c-1-1-2.2-1.9-3.7-2.5c-1.5-0.6-3.5-1.3-6.1-2
		c-3.5-1-6.4-2.1-8.6-3.1c-2.2-1-4.1-2.6-5.7-4.6c-1.6-2.1-2.4-4.8-2.4-8.3c0-3.2,0.8-6.1,2.4-8.5c1.6-2.4,3.9-4.2,6.8-5.5
		c2.9-1.3,6.3-1.9,10-1.9c5.6,0,10.2,1.4,13.7,4.1c3.5,2.7,5.5,6.6,5.8,11.5h-12c-0.1-1.9-0.9-3.4-2.4-4.7c-1.5-1.2-3.5-1.8-5.9-1.8
		c-2.1,0-3.8,0.5-5.1,1.6c-1.3,1.1-1.9,2.7-1.9,4.8c0,1.5,0.5,2.7,1.4,3.6c1,1,2.2,1.7,3.6,2.3s3.5,1.3,6.1,2.1
		c3.5,1,6.4,2.1,8.7,3.1c2.2,1,4.2,2.6,5.8,4.7c1.6,2.1,2.4,4.8,2.4,8.2c0,2.9-0.8,5.6-2.3,8.1c-1.5,2.5-3.7,4.5-6.7,6
		c-2.9,1.5-6.4,2.2-10.4,2.2C477,330.2,473.5,329.5,470.5,328.2z"/>
</g>
<g class="st1">
	<path d="M830.7,119.9h-18.8V47.8h29.8c8.1,0,14.3,2.1,18.6,6.3c4.3,4.2,6.5,10.1,6.5,17.8s-2.2,13.6-6.5,17.8
		c-4.3,4.2-10.5,6.3-18.6,6.3h-11V119.9z M830.7,80.9h6.2c6.9,0,10.3-3,10.3-9s-3.4-9-10.3-9h-6.2V80.9z"/>
	<path d="M873.5,83.9c0-5.4,1-10.3,3-15c2-4.6,4.7-8.7,8.2-12.1s7.7-6.1,12.6-8.1c4.9-1.9,10.2-2.9,16.1-2.9c5.8,0,11.2,1,16.1,2.9
		c4.9,1.9,9.1,4.6,12.7,8.1c3.6,3.5,6.3,7.5,8.3,12.1s3,9.6,3,15s-1,10.3-3,15c-2,4.6-4.7,8.7-8.3,12.1c-3.6,3.4-7.8,6.1-12.7,8.1
		c-4.9,1.9-10.3,2.9-16.1,2.9c-5.9,0-11.2-1-16.1-2.9c-4.9-1.9-9.1-4.6-12.6-8.1c-3.5-3.4-6.2-7.5-8.2-12.1
		C874.5,94.2,873.5,89.2,873.5,83.9z M893.1,83.9c0,2.9,0.5,5.5,1.6,7.9c1.1,2.4,2.5,4.5,4.4,6.3c1.8,1.8,4,3.2,6.5,4.2
		s5.1,1.5,7.8,1.5s5.3-0.5,7.8-1.5s4.6-2.4,6.5-4.2c1.9-1.8,3.4-3.9,4.4-6.3c1.1-2.4,1.6-5.1,1.6-7.9c0-2.9-0.5-5.5-1.6-7.9
		c-1.1-2.4-2.6-4.5-4.4-6.3c-1.9-1.8-4-3.2-6.5-4.2s-5.1-1.5-7.8-1.5s-5.3,0.5-7.8,1.5s-4.6,2.4-6.5,4.2c-1.8,1.8-3.3,3.9-4.4,6.3
		C893.7,78.3,893.1,81,893.1,83.9z"/>
	<path d="M1004.8,66.3c-2-1.7-4.1-2.9-6.1-3.7c-2-0.8-4-1.2-5.9-1.2c-2.4,0-4.4,0.6-5.9,1.7s-2.3,2.6-2.3,4.5c0,1.3,0.4,2.3,1.1,3.2
		c0.8,0.8,1.8,1.5,3,2.2c1.2,0.6,2.6,1.1,4.2,1.6c1.6,0.4,3.1,0.9,4.6,1.4c6.1,2,10.6,4.8,13.4,8.2c2.8,3.4,4.3,7.9,4.3,13.3
		c0,3.7-0.6,7-1.9,10c-1.2,3-3.1,5.6-5.5,7.7c-2.4,2.1-5.3,3.8-8.8,5s-7.4,1.8-11.8,1.8c-9.1,0-17.6-2.7-25.3-8.1l8-15.1
		c2.8,2.5,5.6,4.3,8.3,5.5c2.7,1.2,5.5,1.8,8.1,1.8c3.1,0,5.3-0.7,6.8-2.1s2.2-3,2.2-4.8c0-1.1-0.2-2-0.6-2.8
		c-0.4-0.8-1-1.5-1.9-2.2c-0.9-0.7-2.1-1.3-3.5-1.9c-1.4-0.6-3.2-1.2-5.2-1.9c-2.4-0.8-4.8-1.6-7.1-2.5c-2.3-0.9-4.4-2.2-6.2-3.7
		s-3.3-3.5-4.4-5.8c-1.1-2.3-1.7-5.3-1.7-8.8c0-3.6,0.6-6.8,1.8-9.7c1.2-2.9,2.8-5.4,5-7.5c2.1-2.1,4.7-3.7,7.8-4.8
		c3.1-1.1,6.5-1.7,10.4-1.7c3.6,0,7.3,0.5,11.2,1.5c3.9,1,7.6,2.4,11.2,4.4L1004.8,66.3z"/>
	<path d="M1054.8,63.7v56.2h-18.7V63.7h-15.4V47.8h49.5v15.9H1054.8z"/>
</g>
<g class="st1">
	<path d="M851.5,166h-22.3v12h21v15.9h-21v12.4h22.3v15.9h-41v-72.1h41V166z"/>
	<path d="M885.6,183.8l-22.5-33.7h23.1l9.8,18.6l12-18.6h23.1l-23.8,33.7l26.9,38.4h-22.9l-14.4-23.5L880,222.2h-22.7L885.6,183.8z"
		/>
	<path d="M960.6,222.2h-18.7v-72.1h29.8c8.1,0,14.3,2.1,18.6,6.3c4.3,4.2,6.5,10.1,6.5,17.8c0,7.7-2.2,13.6-6.5,17.8
		c-4.3,4.2-10.5,6.3-18.6,6.3h-11.1V222.2z M960.6,183.2h6.2c6.9,0,10.3-3,10.3-9s-3.4-9-10.3-9h-6.2V183.2z"/>
	<path d="M1025.4,150.1v56.2h22.5v15.9h-41.2v-72.1L1025.4,150.1L1025.4,150.1z"/>
	<path d="M1052.8,186.2c0-5.4,1-10.3,3-15c2-4.6,4.7-8.7,8.2-12.1s7.7-6.1,12.6-8.1c4.9-1.9,10.2-2.9,16.1-2.9
		c5.8,0,11.2,1,16.1,2.9s9.1,4.6,12.7,8.1c3.6,3.5,6.3,7.5,8.3,12.1s3,9.6,3,15s-1,10.3-3,15c-2,4.6-4.7,8.7-8.3,12.1
		c-3.6,3.4-7.8,6.1-12.7,8.1c-4.9,1.9-10.3,2.9-16.1,2.9c-5.9,0-11.2-1-16.1-2.9c-4.9-1.9-9.1-4.6-12.6-8.1
		c-3.5-3.4-6.2-7.5-8.2-12.1C1053.8,196.5,1052.8,191.5,1052.8,186.2z M1072.4,186.2c0,2.9,0.5,5.5,1.6,7.9s2.5,4.5,4.4,6.3
		c1.8,1.8,4,3.2,6.5,4.2s5.1,1.5,7.8,1.5c2.7,0,5.3-0.5,7.8-1.5s4.6-2.4,6.5-4.2c1.9-1.8,3.4-3.9,4.4-6.3c1.1-2.4,1.6-5.1,1.6-7.9
		c0-2.9-0.5-5.5-1.6-7.9c-1.1-2.4-2.6-4.5-4.4-6.3c-1.9-1.8-4-3.2-6.5-4.2s-5.1-1.5-7.8-1.5c-2.7,0-5.3,0.5-7.8,1.5
		s-4.6,2.4-6.5,4.2c-1.8,1.8-3.3,3.9-4.4,6.3C1073,180.6,1072.4,183.3,1072.4,186.2z"/>
	<path d="M1204.5,222.2h-23.3l-17.9-27.7v27.7h-18.8v-72.1h29.2c4,0,7.5,0.6,10.5,1.8c3,1.2,5.5,2.8,7.4,4.8c1.9,2,3.4,4.4,4.4,7.1
		s1.5,5.5,1.5,8.6c0,5.5-1.3,9.9-4,13.3c-2.6,3.4-6.5,5.7-11.7,6.9L1204.5,222.2z M1163.3,182.3h3.5c3.7,0,6.5-0.8,8.5-2.3
		s3-3.7,3-6.6s-1-5.1-3-6.6s-4.8-2.3-8.5-2.3h-3.5V182.3z"/>
	<path d="M1253.3,166H1231v12h21v15.9h-21v12.4h22.3v15.9h-41v-72.1h41V166z"/>
</g>
<text transform="matrix(1 0 0 1 1085.0405 116.8609)" class="st2 st3 st4">&amp;</text>
<text transform="matrix(1 0 0 1 804.2385 304.5901)" class="st5 st3 st6">RESOURCES</text>
<text transform="matrix(1 0 0 1 -41.7642 -116.9131)" style="font-family:'MyriadPro-Regular'; font-size:12px;">Lorem ipsum</text>
</svg>
