<?xml version="1.0" encoding="utf-8"?>
<!-- Generator: Adobe Illustrator 26.5.2, SVG Export Plug-In . SVG Version: 6.00 Build 0)  -->
<svg version="1.1" id="Layer_1" xmlns="http://www.w3.org/2000/svg" xmlns:xlink="http://www.w3.org/1999/xlink" x="0px" y="0px"
	 viewBox="0 0 554.9 541.2" style="enable-background:new 0 0 554.9 541.2;" xml:space="preserve">
<style type="text/css">
	.st0{fill:none;}
	.st1{enable-background:new    ;}
	.st2{fill:#319DE6;}
</style>
<g>
	<path class="st0" d="M476,19.8H79c-32.7,0-59.3,26.5-59.3,59.2v237.2c0,32.7,26.6,59.2,59.2,59.2h397c32.7,0,59.2-26.6,59.2-59.2
		V79C535.2,46.3,508.6,19.8,476,19.8z"/>
	<path d="M307.9,395.2l168.4,146l-0.3-146l0,0L307.9,395.2L307.9,395.2z"/>
	<path d="M476,0H79C35.5,0,0,35.4,0,79v237.2c0,43.5,35.4,79,79,79h229l-11.4-9.9H476v9.9c43.5,0,78.9-35.4,78.9-79V79
		C554.9,35.5,519.5,0,476,0z M535.2,316.2c0,32.7-26.6,59.2-59.2,59.2H79c-32.7,0-59.2-26.6-59.2-59.2V79
		c0-32.7,26.6-59.2,59.2-59.2h397c32.7,0,59.2,26.6,59.2,59.2V316.2z"/>
	<path d="M296.5,385.3l11.4,9.9h168l0,0v-9.9H296.5z"/>
</g>
<g class="st1">
	<path class="st2" d="M100.5,232.3H74l-4.3,12.4H50l27.1-71.2h20.2l27.1,71.2h-19.7L100.5,232.3z M95.6,218.2l-8.3-23.7l-8.3,23.7
		H95.6z"/>
	<path class="st2" d="M173.4,189.1h-22.3V201h20.3v15.7h-20.3v28h-18.5v-71.2h40.8V189.1z"/>
	<path class="st2" d="M225.3,189.1H203V201h20.3v15.7H203v28h-18.5v-71.2h40.8V189.1z"/>
	<path class="st2" d="M254.8,173.4v71.2h-18.5v-71.2H254.8z"/>
	<path class="st2" d="M269.8,244.7v-71.2h18.5l34.2,43.5v-43.5h18.4v71.2h-18.4l-34.2-43.5v43.5H269.8z"/>
	<path class="st2" d="M374.3,173.4v71.2h-18.5v-71.2H374.3z"/>
	<path class="st2" d="M416.3,189.1v55.5h-18.5v-55.5h-15.2v-15.7h48.9v15.7H416.3z"/>
	<path class="st2" d="M461.5,210.5l-26-37h22.1l13.2,19.5l13.1-19.5h22.1l-26.1,37v34.2h-18.5V210.5z"/>
</g>
<g class="st1">
	<path class="st2" d="M91.5,283.4h36.7c0,3.8-0.2,7.2-0.5,10.3c-0.3,3.1-0.9,6-1.9,8.6c-1.3,3.7-3.1,7-5.4,9.9
		c-2.3,2.9-4.9,5.3-8,7.2c-3.1,1.9-6.4,3.4-10.1,4.4c-3.7,1-7.5,1.5-11.5,1.5c-5.5,0-10.6-0.9-15.2-2.7c-4.6-1.8-8.5-4.4-11.8-7.7
		c-3.3-3.3-5.8-7.3-7.7-11.9c-1.8-4.6-2.7-9.7-2.7-15.4c0-5.5,0.9-10.6,2.7-15.3c1.8-4.6,4.3-8.6,7.7-11.9c3.3-3.3,7.3-5.8,11.9-7.7
		c4.7-1.8,9.9-2.7,15.6-2.7c7.4,0,13.9,1.6,19.6,4.8c5.6,3.2,10,8.2,13.3,14.9l-17.6,7.3c-1.6-3.9-3.8-6.7-6.4-8.4
		c-2.6-1.7-5.6-2.6-8.9-2.6c-2.8,0-5.3,0.5-7.6,1.6s-4.2,2.5-5.8,4.4c-1.6,1.9-2.9,4.2-3.8,6.9c-0.9,2.7-1.4,5.7-1.4,9.1
		c0,3,0.4,5.8,1.2,8.4c0.8,2.6,2,4.8,3.5,6.7c1.6,1.9,3.5,3.4,5.9,4.4c2.3,1,5,1.6,8.1,1.6c1.8,0,3.6-0.2,5.3-0.6
		c1.7-0.4,3.2-1.1,4.6-2c1.4-0.9,2.5-2.1,3.4-3.5c0.9-1.4,1.5-3.2,1.8-5.3H91.5V283.4z"/>
	<path class="st2" d="M199.2,323.2h-23l-17.7-27.4v27.4H140V252h28.8c4,0,7.4,0.6,10.4,1.7c3,1.2,5.4,2.8,7.3,4.8
		c1.9,2,3.4,4.3,4.3,7c1,2.6,1.5,5.5,1.5,8.5c0,5.4-1.3,9.8-3.9,13.2c-2.6,3.4-6.5,5.7-11.6,6.8L199.2,323.2z M158.5,283.8h3.5
		c3.7,0,6.5-0.8,8.4-2.3c2-1.5,2.9-3.7,2.9-6.5c0-2.8-1-5-2.9-6.5c-2-1.5-4.8-2.3-8.4-2.3h-3.5V283.8z"/>
	<path class="st2" d="M202.4,287.6c0-5.3,1-10.2,2.9-14.8c2-4.6,4.7-8.5,8.1-11.9c3.5-3.4,7.6-6.1,12.4-8c4.8-1.9,10.1-2.9,15.9-2.9
		c5.7,0,11,1,15.9,2.9c4.8,1.9,9,4.6,12.5,8s6.2,7.4,8.2,11.9c2,4.6,2.9,9.5,2.9,14.8s-1,10.2-2.9,14.8c-2,4.6-4.7,8.5-8.2,11.9
		c-3.5,3.4-7.7,6.1-12.5,8c-4.9,1.9-10.1,2.9-15.9,2.9c-5.8,0-11.1-1-15.9-2.9c-4.8-1.9-9-4.6-12.4-8c-3.5-3.4-6.2-7.4-8.1-11.9
		C203.4,297.8,202.4,292.9,202.4,287.6z M221.8,287.6c0,2.8,0.5,5.4,1.6,7.8c1.1,2.4,2.5,4.5,4.3,6.2c1.8,1.8,4,3.1,6.4,4.1
		c2.4,1,5,1.5,7.7,1.5c2.7,0,5.3-0.5,7.7-1.5c2.4-1,4.6-2.3,6.4-4.1c1.9-1.8,3.3-3.8,4.4-6.2c1.1-2.4,1.6-5,1.6-7.8
		s-0.5-5.4-1.6-7.8c-1.1-2.4-2.5-4.5-4.4-6.2c-1.9-1.8-4-3.1-6.4-4.1c-2.4-1-5-1.5-7.7-1.5c-2.7,0-5.3,0.5-7.7,1.5
		c-2.4,1-4.6,2.3-6.4,4.1c-1.8,1.8-3.3,3.8-4.3,6.2C222.3,282.2,221.8,284.8,221.8,287.6z"/>
	<path class="st2" d="M311.5,252v38.7c0,2.1,0.1,4.2,0.2,6.4s0.6,4.1,1.4,5.9c0.8,1.8,2,3.2,3.7,4.3c1.7,1.1,4.1,1.7,7.2,1.7
		c3.1,0,5.5-0.6,7.1-1.7c1.7-1.1,2.9-2.5,3.7-4.3c0.8-1.8,1.3-3.7,1.5-5.9c0.2-2.2,0.2-4.3,0.2-6.4V252h18.4v41.3
		c0,11.1-2.5,19.2-7.6,24.3c-5.1,5.1-12.9,7.7-23.4,7.7c-10.5,0-18.3-2.5-23.4-7.7c-5.1-5.1-7.7-13.2-7.7-24.3V252H311.5z"/>
	<path class="st2" d="M388.5,323.2H370V252h29.5c8,0,14.1,2.1,18.4,6.2c4.3,4.2,6.4,10,6.4,17.6c0,7.6-2.1,13.4-6.4,17.6
		c-4.2,4.2-10.4,6.2-18.4,6.2h-11V323.2z M388.5,284.7h6.1c6.8,0,10.2-3,10.2-8.9c0-5.9-3.4-8.9-10.2-8.9h-6.1V284.7z"/>
	<path class="st2" d="M473.1,270.2c-2-1.6-4-2.8-6-3.6c-2-0.8-4-1.2-5.9-1.2c-2.4,0-4.3,0.6-5.9,1.7c-1.5,1.1-2.3,2.6-2.3,4.4
		c0,1.3,0.4,2.3,1.1,3.1s1.7,1.5,3,2.1c1.2,0.6,2.6,1.1,4.2,1.6c1.5,0.4,3.1,0.9,4.6,1.4c6,2,10.5,4.7,13.3,8.1
		c2.8,3.4,4.2,7.8,4.2,13.2c0,3.7-0.6,7-1.8,9.9c-1.2,3-3,5.5-5.4,7.6c-2.4,2.1-5.3,3.7-8.7,4.9c-3.4,1.2-7.3,1.7-11.7,1.7
		c-9,0-17.3-2.7-25-8l7.9-14.9c2.8,2.5,5.5,4.3,8.2,5.5c2.7,1.2,5.4,1.8,8,1.8c3,0,5.3-0.7,6.8-2.1c1.5-1.4,2.2-3,2.2-4.7
		c0-1.1-0.2-2-0.6-2.8c-0.4-0.8-1-1.5-1.9-2.2c-0.9-0.7-2-1.3-3.4-1.8s-3.1-1.2-5.1-1.9c-2.4-0.8-4.7-1.6-7-2.5
		c-2.3-0.9-4.3-2.1-6.1-3.6s-3.2-3.4-4.3-5.7c-1.1-2.3-1.7-5.2-1.7-8.7c0-3.5,0.6-6.7,1.7-9.6c1.2-2.9,2.8-5.3,4.9-7.4
		c2.1-2,4.7-3.6,7.7-4.8c3.1-1.1,6.5-1.7,10.2-1.7c3.5,0,7.2,0.5,11.1,1.5c3.8,1,7.5,2.4,11.1,4.3L473.1,270.2z"/>
</g>
<g class="st1">
	<path d="M93.1,76.7v50.9c0,2.1-0.1,4.1-0.3,5.9c-0.2,1.8-0.6,3.4-1.1,4.7c-0.8,2.1-2,4-3.5,5.7c-1.5,1.7-3.2,3.2-5.1,4.4
		c-1.9,1.2-4.1,2.1-6.5,2.8c-2.4,0.7-4.8,1-7.4,1c-7.8,0-14.2-3.6-19.2-10.8l12.4-12.7c0.3,2.2,1,4,2.1,5.3c1.1,1.3,2.5,1.9,4.1,1.9
		c3.6,0,5.3-2.8,5.3-8.5V76.7H93.1z"/>
	<path d="M105.3,113.4c0-5.4,1-10.5,3-15.2c2-4.7,4.8-8.8,8.4-12.3c3.6-3.5,7.8-6.2,12.8-8.2c5-2,10.4-3,16.4-3c5.9,0,11.3,1,16.3,3
		c5,2,9.3,4.7,12.9,8.2s6.4,7.6,8.4,12.3c2,4.7,3,9.8,3,15.2s-1,10.5-3,15.2c-2,4.7-4.8,8.8-8.4,12.3s-7.9,6.2-12.9,8.2
		c-5,2-10.4,3-16.3,3c-6,0-11.4-1-16.4-3c-5-2-9.2-4.7-12.8-8.2c-3.6-3.5-6.4-7.6-8.4-12.3C106.3,123.9,105.3,118.8,105.3,113.4z
		 M125.2,113.4c0,2.9,0.5,5.6,1.7,8.1c1.1,2.5,2.6,4.6,4.5,6.4c1.9,1.8,4.1,3.2,6.6,4.2c2.5,1,5.1,1.5,7.9,1.5
		c2.8,0,5.4-0.5,7.9-1.5c2.5-1,4.7-2.4,6.6-4.2c1.9-1.8,3.4-4,4.5-6.4c1.1-2.5,1.7-5.2,1.7-8.1c0-2.9-0.6-5.6-1.7-8.1
		c-1.1-2.5-2.6-4.6-4.5-6.4c-1.9-1.8-4.1-3.2-6.6-4.2c-2.5-1-5.1-1.5-7.9-1.5c-2.8,0-5.4,0.5-7.9,1.5c-2.5,1-4.7,2.4-6.6,4.2
		c-1.9,1.8-3.4,4-4.5,6.4C125.8,107.8,125.2,110.5,125.2,113.4z"/>
	<path d="M217.6,76.7V150h-19.1V76.7H217.6z"/>
	<path d="M233,150V76.7H252l35.2,44.8V76.7h19V150h-19L252,105.2V150H233z"/>
</g>
</svg>
