<?xml version="1.0" encoding="utf-8"?>
<!-- Generator: Adobe Illustrator 26.5.0, SVG Export Plug-In . SVG Version: 6.00 Build 0)  -->
<svg version="1.1" id="Layer_1" xmlns="http://www.w3.org/2000/svg" xmlns:xlink="http://www.w3.org/1999/xlink" x="0px" y="0px"
	 viewBox="0 0 300 200" style="enable-background:new 0 0 300 200;" xml:space="preserve">
<style type="text/css">
	.st0{fill:#FFFFFF;stroke:#000000;stroke-width:8;}
	.st1{fill:#FFFFFF;}
	.st2{fill:none;}
</style>
<g>
	<g>
		<rect x="21.5" y="22.4" width="82.2" height="21.7"/>
		<g>
			<rect x="86.5" y="30.1" class="st1" width="6.4" height="6.4"/>
			<rect x="73.3" y="30.1" class="st1" width="6.4" height="6.4"/>
			<rect x="32.4" y="30.1" class="st1" width="31.9" height="6.4"/>
		</g>
	</g>
	<g>
		<rect x="21.5" y="49.1" width="82.2" height="21.7"/>
		<g>
			<rect x="86.5" y="56.8" class="st1" width="6.4" height="6.4"/>
			<rect x="73.3" y="56.8" class="st1" width="6.4" height="6.4"/>
			<rect x="32.4" y="56.8" class="st1" width="31.9" height="6.4"/>
		</g>
	</g>
	<g>
		<rect x="21.5" y="75.8" width="82.2" height="21.7"/>
		<g>
			<rect x="86.5" y="83.5" class="st1" width="6.4" height="6.4"/>
			<rect x="73.3" y="83.5" class="st1" width="6.4" height="6.4"/>
			<rect x="32.4" y="83.5" class="st1" width="31.9" height="6.4"/>
		</g>
	</g>
	<g>
		<rect x="21.5" y="102.5" width="82.2" height="21.7"/>
		<g>
			<rect x="86.5" y="110.2" class="st1" width="6.4" height="6.4"/>
			<rect x="73.3" y="110.2" class="st1" width="6.4" height="6.4"/>
			<rect x="32.4" y="110.2" class="st1" width="31.9" height="6.4"/>
		</g>
	</g>
	<g>
		<rect x="21.5" y="129.2" width="82.2" height="21.7"/>
		<g>
			<rect x="86.5" y="136.9" class="st1" width="6.4" height="6.4"/>
			<rect x="73.3" y="136.9" class="st1" width="6.4" height="6.4"/>
			<rect x="32.4" y="136.9" class="st1" width="31.9" height="6.4"/>
		</g>
	</g>
	<g>
		<rect x="21.5" y="155.9" width="82.2" height="21.7"/>
		<g>
			<rect x="86.5" y="163.6" class="st1" width="6.4" height="6.4"/>
			<rect x="73.3" y="163.6" class="st1" width="6.4" height="6.4"/>
			<rect x="32.4" y="163.6" class="st1" width="31.9" height="6.4"/>
		</g>
	</g>
</g>
<g>
	<g>
		<rect x="108.9" y="22.4" width="82.2" height="21.7"/>
		<g>
			<rect x="173.8" y="30.1" class="st1" width="6.4" height="6.4"/>
			<rect x="160.7" y="30.1" class="st1" width="6.4" height="6.4"/>
			<rect x="119.8" y="30.1" class="st1" width="31.9" height="6.4"/>
		</g>
	</g>
	<g>
		<rect x="108.9" y="49.1" width="82.2" height="21.7"/>
		<g>
			<rect x="173.8" y="56.8" class="st1" width="6.4" height="6.4"/>
			<rect x="160.7" y="56.8" class="st1" width="6.4" height="6.4"/>
			<rect x="119.8" y="56.8" class="st1" width="31.9" height="6.4"/>
		</g>
	</g>
	<g>
		<rect x="108.9" y="75.8" width="82.2" height="21.7"/>
		<g>
			<rect x="173.8" y="83.5" class="st1" width="6.4" height="6.4"/>
			<rect x="160.7" y="83.5" class="st1" width="6.4" height="6.4"/>
			<rect x="119.8" y="83.5" class="st1" width="31.9" height="6.4"/>
		</g>
	</g>
	<g>
		<rect x="108.9" y="102.5" width="82.2" height="21.7"/>
		<g>
			<rect x="173.8" y="110.2" class="st1" width="6.4" height="6.4"/>
			<rect x="160.7" y="110.2" class="st1" width="6.4" height="6.4"/>
			<rect x="119.8" y="110.2" class="st1" width="31.9" height="6.4"/>
		</g>
	</g>
	<g>
		<rect x="108.9" y="129.2" width="82.2" height="21.7"/>
		<g>
			<rect x="173.8" y="136.9" class="st1" width="6.4" height="6.4"/>
			<rect x="160.7" y="136.9" class="st1" width="6.4" height="6.4"/>
			<rect x="119.8" y="136.9" class="st1" width="31.9" height="6.4"/>
		</g>
	</g>
	<g>
		<rect x="108.9" y="155.9" width="82.2" height="21.7"/>
		<g>
			<rect x="173.8" y="163.6" class="st1" width="6.4" height="6.4"/>
			<rect x="160.7" y="163.6" class="st1" width="6.4" height="6.4"/>
			<rect x="119.8" y="163.6" class="st1" width="31.9" height="6.4"/>
		</g>
	</g>
</g>
<g>
	<g>
		<rect x="196.3" y="22.4" width="82.2" height="21.7"/>
		<g>
			<rect x="261.2" y="30.1" class="st1" width="6.4" height="6.4"/>
			<rect x="248" y="30.1" class="st1" width="6.4" height="6.4"/>
			<rect x="207.2" y="30.1" class="st1" width="31.9" height="6.4"/>
		</g>
	</g>
	<g>
		<rect x="196.3" y="49.1" width="82.2" height="21.7"/>
		<g>
			<rect x="261.2" y="56.8" class="st1" width="6.4" height="6.4"/>
			<rect x="248" y="56.8" class="st1" width="6.4" height="6.4"/>
			<rect x="207.2" y="56.8" class="st1" width="31.9" height="6.4"/>
		</g>
	</g>
	<g>
		<rect x="196.3" y="75.8" width="82.2" height="21.7"/>
		<g>
			<rect x="261.2" y="83.5" class="st1" width="6.4" height="6.4"/>
			<rect x="248" y="83.5" class="st1" width="6.4" height="6.4"/>
			<rect x="207.2" y="83.5" class="st1" width="31.9" height="6.4"/>
		</g>
	</g>
	<g>
		<rect x="196.3" y="102.5" width="82.2" height="21.7"/>
		<g>
			<rect x="261.2" y="110.2" class="st1" width="6.4" height="6.4"/>
			<rect x="248" y="110.2" class="st1" width="6.4" height="6.4"/>
			<rect x="207.2" y="110.2" class="st1" width="31.9" height="6.4"/>
		</g>
	</g>
	<g>
		<rect x="196.3" y="129.2" width="82.2" height="21.7"/>
		<g>
			<rect x="261.2" y="136.9" class="st1" width="6.4" height="6.4"/>
			<rect x="248" y="136.9" class="st1" width="6.4" height="6.4"/>
			<rect x="207.2" y="136.9" class="st1" width="31.9" height="6.4"/>
		</g>
	</g>
	<g>
		<rect x="196.3" y="155.9" width="82.2" height="21.7"/>
		<g>
			<rect x="261.2" y="163.6" class="st1" width="6.4" height="6.4"/>
			<rect x="248" y="163.6" class="st1" width="6.4" height="6.4"/>
			<rect x="207.2" y="163.6" class="st1" width="31.9" height="6.4"/>
		</g>
	</g>
</g>
</svg>
