<?xml version="1.0" encoding="utf-8"?>
<!-- Generator: Adobe Illustrator 26.5.0, SVG Export Plug-In . SVG Version: 6.00 Build 0)  -->
<svg version="1.1" id="Layer_1" xmlns="http://www.w3.org/2000/svg" xmlns:xlink="http://www.w3.org/1999/xlink" x="0px" y="0px"
	 viewBox="0 0 40 40" style="enable-background:new 0 0 40 40;" xml:space="preserve">
<style type="text/css">
	.st0{fill:#ffffff;}
</style>
<g id="Group_768">
	<path id="Path_37" class="st0" d="M40,40V38c0-2.9,0-5.7,0-8.6c0-4.3,0-8.6,0-12.9c0-2.3,0-4.7,0-7c0-0.1,0-0.2-0.1-0.3
		c-2.8-2.8-5.5-5.6-8.3-8.3c0,0-0.1-0.1-0.2-0.1c0,7.9-0.1,15.8-0.1,23.7L6.9,0.1L0,7l24.3,24.3L0.7,31.4c0.1,0.1,0.2,0.2,0.2,0.2
		c1.4,1.4,2.8,2.8,4.1,4.1c1.3,1.3,2.7,2.7,4,4C9.2,39.9,9.4,40,9.5,40c10.1,0,20.1,0,30.2,0L40,40z"/>
</g>
</svg>
